<svg width="14" height="217" viewBox="0 0 14 217" fill="none" xmlns="http://www.w3.org/2000/svg">
<line x1="6.5" y1="110.018" x2="6.5" y2="9.00014" stroke="url(#paint0_linear_73_152)"/>
<line x1="6.5" y1="110.018" x2="6.5" y2="9.00014" stroke="url(#paint1_linear_73_152)" style="mix-blend-mode:overlay"/>
<line x1="6.5" y1="110.018" x2="6.5" y2="9.00014" stroke="#C1A875" style="mix-blend-mode:color"/>
<path d="M6.32511 12.926C6.5533 13.0247 6.69294 13.0247 6.92113 12.926C7.70588 12.5867 7.33638 9.69837 7.02552 7.91147C7.7037 9.59365 8.91285 12.2425 9.75856 12.117C10.0045 12.0805 10.1231 12.0069 10.265 11.8027C10.7118 11.1596 9.20807 9.21008 8.02505 7.84619C9.43582 8.97289 11.4447 10.3963 12.0692 9.92374C12.2675 9.77372 12.3362 9.65219 12.3627 9.40499C12.4484 8.60514 10.067 7.58346 8.36226 6.95789C10.1541 7.25291 12.7298 7.53637 13.0491 6.79801C13.1478 6.56982 13.1478 6.43018 13.0491 6.20199C12.7298 5.46363 10.1541 5.74708 8.36227 6.04211C10.067 5.41654 12.4484 4.39486 12.3627 3.59501C12.3362 3.34781 12.2675 3.22628 12.0692 3.07626C11.4447 2.60371 9.43584 4.02709 8.02508 5.15379C9.20809 3.7899 10.7118 1.84041 10.265 1.19727C10.1231 0.993095 10.0045 0.91946 9.75857 0.882965C8.91285 0.757457 7.70369 3.40639 7.02551 5.08857C7.33638 3.30167 7.70588 0.413348 6.92113 0.0740051C6.69294 -0.0246696 6.5533 -0.0246696 6.32511 0.0740051C5.54033 0.413359 5.90989 3.30187 6.22076 5.08875C5.5426 3.40658 4.33337 0.757452 3.48762 0.882965C3.2417 0.91946 3.12306 0.993095 2.98121 1.19727C2.53438 1.84041 4.0381 3.7899 5.22111 5.15379C3.81035 4.02709 1.80146 2.60371 1.17697 3.07626C0.978722 3.22628 0.90996 3.34781 0.883471 3.59501C0.797767 4.39486 3.17915 5.41654 4.88391 6.0421C3.09213 5.74708 0.516391 5.46364 0.197113 6.20199C0.0984383 6.43018 0.0984383 6.56982 0.197113 6.79801C0.51639 7.53636 3.09212 7.25292 4.88391 6.9579C3.17915 7.58346 0.797769 8.60514 0.883473 9.40499C0.909962 9.65219 0.978723 9.77372 1.17697 9.92374C1.80146 10.3963 3.81038 8.97289 5.22114 7.84618C4.03813 9.21007 2.53439 11.1596 2.98122 11.8027C3.12307 12.0069 3.24171 12.0805 3.48763 12.117C4.33337 12.2425 5.54259 9.59346 6.22075 7.91129C5.90988 9.69818 5.54033 12.5866 6.32511 12.926Z" fill="url(#paint2_linear_73_152)"/>
<path d="M6.32511 12.926C6.5533 13.0247 6.69294 13.0247 6.92113 12.926C7.70588 12.5867 7.33638 9.69837 7.02552 7.91147C7.7037 9.59365 8.91285 12.2425 9.75856 12.117C10.0045 12.0805 10.1231 12.0069 10.265 11.8027C10.7118 11.1596 9.20807 9.21008 8.02505 7.84619C9.43582 8.97289 11.4447 10.3963 12.0692 9.92374C12.2675 9.77372 12.3362 9.65219 12.3627 9.40499C12.4484 8.60514 10.067 7.58346 8.36226 6.95789C10.1541 7.25291 12.7298 7.53637 13.0491 6.79801C13.1478 6.56982 13.1478 6.43018 13.0491 6.20199C12.7298 5.46363 10.1541 5.74708 8.36227 6.04211C10.067 5.41654 12.4484 4.39486 12.3627 3.59501C12.3362 3.34781 12.2675 3.22628 12.0692 3.07626C11.4447 2.60371 9.43584 4.02709 8.02508 5.15379C9.20809 3.7899 10.7118 1.84041 10.265 1.19727C10.1231 0.993095 10.0045 0.91946 9.75857 0.882965C8.91285 0.757457 7.70369 3.40639 7.02551 5.08857C7.33638 3.30167 7.70588 0.413348 6.92113 0.0740051C6.69294 -0.0246696 6.5533 -0.0246696 6.32511 0.0740051C5.54033 0.413359 5.90989 3.30187 6.22076 5.08875C5.5426 3.40658 4.33337 0.757452 3.48762 0.882965C3.2417 0.91946 3.12306 0.993095 2.98121 1.19727C2.53438 1.84041 4.0381 3.7899 5.22111 5.15379C3.81035 4.02709 1.80146 2.60371 1.17697 3.07626C0.978722 3.22628 0.90996 3.34781 0.883471 3.59501C0.797767 4.39486 3.17915 5.41654 4.88391 6.0421C3.09213 5.74708 0.516391 5.46364 0.197113 6.20199C0.0984383 6.43018 0.0984383 6.56982 0.197113 6.79801C0.51639 7.53636 3.09212 7.25292 4.88391 6.9579C3.17915 7.58346 0.797769 8.60514 0.883473 9.40499C0.909962 9.65219 0.978723 9.77372 1.17697 9.92374C1.80146 10.3963 3.81038 8.97289 5.22114 7.84618C4.03813 9.21007 2.53439 11.1596 2.98122 11.8027C3.12307 12.0069 3.24171 12.0805 3.48763 12.117C4.33337 12.2425 5.54259 9.59346 6.22075 7.91129C5.90988 9.69818 5.54033 12.5866 6.32511 12.926Z" fill="url(#paint3_linear_73_152)" style="mix-blend-mode:overlay"/>
<path d="M6.32511 12.926C6.5533 13.0247 6.69294 13.0247 6.92113 12.926C7.70588 12.5867 7.33638 9.69837 7.02552 7.91147C7.7037 9.59365 8.91285 12.2425 9.75856 12.117C10.0045 12.0805 10.1231 12.0069 10.265 11.8027C10.7118 11.1596 9.20807 9.21008 8.02505 7.84619C9.43582 8.97289 11.4447 10.3963 12.0692 9.92374C12.2675 9.77372 12.3362 9.65219 12.3627 9.40499C12.4484 8.60514 10.067 7.58346 8.36226 6.95789C10.1541 7.25291 12.7298 7.53637 13.0491 6.79801C13.1478 6.56982 13.1478 6.43018 13.0491 6.20199C12.7298 5.46363 10.1541 5.74708 8.36227 6.04211C10.067 5.41654 12.4484 4.39486 12.3627 3.59501C12.3362 3.34781 12.2675 3.22628 12.0692 3.07626C11.4447 2.60371 9.43584 4.02709 8.02508 5.15379C9.20809 3.7899 10.7118 1.84041 10.265 1.19727C10.1231 0.993095 10.0045 0.91946 9.75857 0.882965C8.91285 0.757457 7.70369 3.40639 7.02551 5.08857C7.33638 3.30167 7.70588 0.413348 6.92113 0.0740051C6.69294 -0.0246696 6.5533 -0.0246696 6.32511 0.0740051C5.54033 0.413359 5.90989 3.30187 6.22076 5.08875C5.5426 3.40658 4.33337 0.757452 3.48762 0.882965C3.2417 0.91946 3.12306 0.993095 2.98121 1.19727C2.53438 1.84041 4.0381 3.7899 5.22111 5.15379C3.81035 4.02709 1.80146 2.60371 1.17697 3.07626C0.978722 3.22628 0.90996 3.34781 0.883471 3.59501C0.797767 4.39486 3.17915 5.41654 4.88391 6.0421C3.09213 5.74708 0.516391 5.46364 0.197113 6.20199C0.0984383 6.43018 0.0984383 6.56982 0.197113 6.79801C0.51639 7.53636 3.09212 7.25292 4.88391 6.9579C3.17915 7.58346 0.797769 8.60514 0.883473 9.40499C0.909962 9.65219 0.978723 9.77372 1.17697 9.92374C1.80146 10.3963 3.81038 8.97289 5.22114 7.84618C4.03813 9.21007 2.53439 11.1596 2.98122 11.8027C3.12307 12.0069 3.24171 12.0805 3.48763 12.117C4.33337 12.2425 5.54259 9.59346 6.22075 7.91129C5.90988 9.69818 5.54033 12.5866 6.32511 12.926Z" fill="#C1A875" style="mix-blend-mode:color"/>
<line x1="6.37689" y1="215.018" x2="6.37689" y2="114" stroke="url(#paint4_linear_73_152)"/>
<line x1="6.37689" y1="215.018" x2="6.37689" y2="114" stroke="url(#paint5_linear_73_152)" style="mix-blend-mode:overlay"/>
<line x1="6.37689" y1="215.018" x2="6.37689" y2="114" stroke="#C1A875" style="mix-blend-mode:color"/>
<path d="M6.202 117.926C6.43019 118.025 6.56983 118.025 6.79802 117.926C7.58277 117.587 7.21327 114.698 6.90241 112.911C7.58059 114.594 8.78974 117.243 9.63546 117.117C9.88138 117.081 10 117.007 10.1419 116.803C10.5887 116.16 9.08496 114.21 7.90195 112.846C9.31271 113.973 11.3216 115.396 11.9461 114.924C12.1444 114.774 12.2131 114.652 12.2396 114.405C12.3253 113.605 9.94392 112.583 8.23916 111.958C10.0309 112.253 12.6067 112.536 12.926 111.798C13.0247 111.57 13.0247 111.43 12.926 111.202C12.6067 110.464 10.0309 110.747 8.23916 111.042C9.94392 110.417 12.3253 109.395 12.2396 108.595C12.2131 108.348 12.1444 108.226 11.9461 108.076C11.3216 107.604 9.31274 109.027 7.90197 110.154C9.08499 108.79 10.5887 106.84 10.1419 106.197C10 105.993 9.88138 105.919 9.63546 105.883C8.78975 105.757 7.58058 108.406 6.9024 110.089C7.21327 108.302 7.58278 105.413 6.79802 105.074C6.56983 104.975 6.43019 104.975 6.202 105.074C5.41722 105.413 5.78678 108.302 6.09765 110.089C5.41949 108.407 4.21026 105.757 3.36451 105.883C3.11859 105.919 2.99995 105.993 2.8581 106.197C2.41128 106.84 3.91499 108.79 5.098 110.154C3.68724 109.027 1.67835 107.604 1.05386 108.076C0.855614 108.226 0.786852 108.348 0.760364 108.595C0.674659 109.395 3.05604 110.417 4.76081 111.042C2.96902 110.747 0.393283 110.464 0.0740051 111.202C-0.0246696 111.43 -0.0246696 111.57 0.0740051 111.798C0.393282 112.536 2.96902 112.253 4.7608 111.958C3.05604 112.583 0.674661 113.605 0.760365 114.405C0.786854 114.652 0.855615 114.774 1.05387 114.924C1.67836 115.396 3.68727 113.973 5.09803 112.846C3.91502 114.21 2.41128 116.16 2.85811 116.803C2.99996 117.007 3.1186 117.081 3.36452 117.117C4.21027 117.243 5.41948 114.593 6.09764 112.911C5.78677 114.698 5.41722 117.587 6.202 117.926Z" fill="url(#paint6_linear_73_152)"/>
<path d="M6.202 117.926C6.43019 118.025 6.56983 118.025 6.79802 117.926C7.58277 117.587 7.21327 114.698 6.90241 112.911C7.58059 114.594 8.78974 117.243 9.63546 117.117C9.88138 117.081 10 117.007 10.1419 116.803C10.5887 116.16 9.08496 114.21 7.90195 112.846C9.31271 113.973 11.3216 115.396 11.9461 114.924C12.1444 114.774 12.2131 114.652 12.2396 114.405C12.3253 113.605 9.94392 112.583 8.23916 111.958C10.0309 112.253 12.6067 112.536 12.926 111.798C13.0247 111.57 13.0247 111.43 12.926 111.202C12.6067 110.464 10.0309 110.747 8.23916 111.042C9.94392 110.417 12.3253 109.395 12.2396 108.595C12.2131 108.348 12.1444 108.226 11.9461 108.076C11.3216 107.604 9.31274 109.027 7.90197 110.154C9.08499 108.79 10.5887 106.84 10.1419 106.197C10 105.993 9.88138 105.919 9.63546 105.883C8.78975 105.757 7.58058 108.406 6.9024 110.089C7.21327 108.302 7.58278 105.413 6.79802 105.074C6.56983 104.975 6.43019 104.975 6.202 105.074C5.41722 105.413 5.78678 108.302 6.09765 110.089C5.41949 108.407 4.21026 105.757 3.36451 105.883C3.11859 105.919 2.99995 105.993 2.8581 106.197C2.41128 106.84 3.91499 108.79 5.098 110.154C3.68724 109.027 1.67835 107.604 1.05386 108.076C0.855614 108.226 0.786852 108.348 0.760364 108.595C0.674659 109.395 3.05604 110.417 4.76081 111.042C2.96902 110.747 0.393283 110.464 0.0740051 111.202C-0.0246696 111.43 -0.0246696 111.57 0.0740051 111.798C0.393282 112.536 2.96902 112.253 4.7608 111.958C3.05604 112.583 0.674661 113.605 0.760365 114.405C0.786854 114.652 0.855615 114.774 1.05387 114.924C1.67836 115.396 3.68727 113.973 5.09803 112.846C3.91502 114.21 2.41128 116.16 2.85811 116.803C2.99996 117.007 3.1186 117.081 3.36452 117.117C4.21027 117.243 5.41948 114.593 6.09764 112.911C5.78677 114.698 5.41722 117.587 6.202 117.926Z" fill="url(#paint7_linear_73_152)" style="mix-blend-mode:overlay"/>
<path d="M6.202 117.926C6.43019 118.025 6.56983 118.025 6.79802 117.926C7.58277 117.587 7.21327 114.698 6.90241 112.911C7.58059 114.594 8.78974 117.243 9.63546 117.117C9.88138 117.081 10 117.007 10.1419 116.803C10.5887 116.16 9.08496 114.21 7.90195 112.846C9.31271 113.973 11.3216 115.396 11.9461 114.924C12.1444 114.774 12.2131 114.652 12.2396 114.405C12.3253 113.605 9.94392 112.583 8.23916 111.958C10.0309 112.253 12.6067 112.536 12.926 111.798C13.0247 111.57 13.0247 111.43 12.926 111.202C12.6067 110.464 10.0309 110.747 8.23916 111.042C9.94392 110.417 12.3253 109.395 12.2396 108.595C12.2131 108.348 12.1444 108.226 11.9461 108.076C11.3216 107.604 9.31274 109.027 7.90197 110.154C9.08499 108.79 10.5887 106.84 10.1419 106.197C10 105.993 9.88138 105.919 9.63546 105.883C8.78975 105.757 7.58058 108.406 6.9024 110.089C7.21327 108.302 7.58278 105.413 6.79802 105.074C6.56983 104.975 6.43019 104.975 6.202 105.074C5.41722 105.413 5.78678 108.302 6.09765 110.089C5.41949 108.407 4.21026 105.757 3.36451 105.883C3.11859 105.919 2.99995 105.993 2.8581 106.197C2.41128 106.84 3.91499 108.79 5.098 110.154C3.68724 109.027 1.67835 107.604 1.05386 108.076C0.855614 108.226 0.786852 108.348 0.760364 108.595C0.674659 109.395 3.05604 110.417 4.76081 111.042C2.96902 110.747 0.393283 110.464 0.0740051 111.202C-0.0246696 111.43 -0.0246696 111.57 0.0740051 111.798C0.393282 112.536 2.96902 112.253 4.7608 111.958C3.05604 112.583 0.674661 113.605 0.760365 114.405C0.786854 114.652 0.855615 114.774 1.05387 114.924C1.67836 115.396 3.68727 113.973 5.09803 112.846C3.91502 114.21 2.41128 116.16 2.85811 116.803C2.99996 117.007 3.1186 117.081 3.36452 117.117C4.21027 117.243 5.41948 114.593 6.09764 112.911C5.78677 114.698 5.41722 117.587 6.202 117.926Z" fill="#C1A875" style="mix-blend-mode:color"/>
<path d="M6.202 216.926C6.43019 217.025 6.56983 217.025 6.79802 216.926C7.58277 216.587 7.21327 213.698 6.90241 211.911C7.58059 213.594 8.78974 216.243 9.63546 216.117C9.88138 216.081 10 216.007 10.1419 215.803C10.5887 215.16 9.08496 213.21 7.90195 211.846C9.31271 212.973 11.3216 214.396 11.9461 213.924C12.1444 213.774 12.2131 213.652 12.2396 213.405C12.3253 212.605 9.94392 211.583 8.23916 210.958C10.0309 211.253 12.6067 211.536 12.926 210.798C13.0247 210.57 13.0247 210.43 12.926 210.202C12.6067 209.464 10.0309 209.747 8.23916 210.042C9.94392 209.417 12.3253 208.395 12.2396 207.595C12.2131 207.348 12.1444 207.226 11.9461 207.076C11.3216 206.604 9.31274 208.027 7.90197 209.154C9.08499 207.79 10.5887 205.84 10.1419 205.197C10 204.993 9.88138 204.919 9.63546 204.883C8.78975 204.757 7.58058 207.406 6.9024 209.089C7.21327 207.302 7.58278 204.413 6.79802 204.074C6.56983 203.975 6.43019 203.975 6.202 204.074C5.41722 204.413 5.78678 207.302 6.09765 209.089C5.41949 207.407 4.21026 204.757 3.36451 204.883C3.11859 204.919 2.99995 204.993 2.8581 205.197C2.41128 205.84 3.91499 207.79 5.098 209.154C3.68724 208.027 1.67835 206.604 1.05386 207.076C0.855614 207.226 0.786852 207.348 0.760364 207.595C0.674659 208.395 3.05604 209.417 4.76081 210.042C2.96902 209.747 0.393283 209.464 0.0740051 210.202C-0.0246696 210.43 -0.0246696 210.57 0.0740051 210.798C0.393282 211.536 2.96902 211.253 4.7608 210.958C3.05604 211.583 0.674661 212.605 0.760365 213.405C0.786854 213.652 0.855615 213.774 1.05387 213.924C1.67836 214.396 3.68727 212.973 5.09803 211.846C3.91502 213.21 2.41128 215.16 2.85811 215.803C2.99996 216.007 3.1186 216.081 3.36452 216.117C4.21027 216.243 5.41948 213.593 6.09764 211.911C5.78677 213.698 5.41722 216.587 6.202 216.926Z" fill="url(#paint8_linear_73_152)"/>
<path d="M6.202 216.926C6.43019 217.025 6.56983 217.025 6.79802 216.926C7.58277 216.587 7.21327 213.698 6.90241 211.911C7.58059 213.594 8.78974 216.243 9.63546 216.117C9.88138 216.081 10 216.007 10.1419 215.803C10.5887 215.16 9.08496 213.21 7.90195 211.846C9.31271 212.973 11.3216 214.396 11.9461 213.924C12.1444 213.774 12.2131 213.652 12.2396 213.405C12.3253 212.605 9.94392 211.583 8.23916 210.958C10.0309 211.253 12.6067 211.536 12.926 210.798C13.0247 210.57 13.0247 210.43 12.926 210.202C12.6067 209.464 10.0309 209.747 8.23916 210.042C9.94392 209.417 12.3253 208.395 12.2396 207.595C12.2131 207.348 12.1444 207.226 11.9461 207.076C11.3216 206.604 9.31274 208.027 7.90197 209.154C9.08499 207.79 10.5887 205.84 10.1419 205.197C10 204.993 9.88138 204.919 9.63546 204.883C8.78975 204.757 7.58058 207.406 6.9024 209.089C7.21327 207.302 7.58278 204.413 6.79802 204.074C6.56983 203.975 6.43019 203.975 6.202 204.074C5.41722 204.413 5.78678 207.302 6.09765 209.089C5.41949 207.407 4.21026 204.757 3.36451 204.883C3.11859 204.919 2.99995 204.993 2.8581 205.197C2.41128 205.84 3.91499 207.79 5.098 209.154C3.68724 208.027 1.67835 206.604 1.05386 207.076C0.855614 207.226 0.786852 207.348 0.760364 207.595C0.674659 208.395 3.05604 209.417 4.76081 210.042C2.96902 209.747 0.393283 209.464 0.0740051 210.202C-0.0246696 210.43 -0.0246696 210.57 0.0740051 210.798C0.393282 211.536 2.96902 211.253 4.7608 210.958C3.05604 211.583 0.674661 212.605 0.760365 213.405C0.786854 213.652 0.855615 213.774 1.05387 213.924C1.67836 214.396 3.68727 212.973 5.09803 211.846C3.91502 213.21 2.41128 215.16 2.85811 215.803C2.99996 216.007 3.1186 216.081 3.36452 216.117C4.21027 216.243 5.41948 213.593 6.09764 211.911C5.78677 213.698 5.41722 216.587 6.202 216.926Z" fill="url(#paint9_linear_73_152)" style="mix-blend-mode:overlay"/>
<path d="M6.202 216.926C6.43019 217.025 6.56983 217.025 6.79802 216.926C7.58277 216.587 7.21327 213.698 6.90241 211.911C7.58059 213.594 8.78974 216.243 9.63546 216.117C9.88138 216.081 10 216.007 10.1419 215.803C10.5887 215.16 9.08496 213.21 7.90195 211.846C9.31271 212.973 11.3216 214.396 11.9461 213.924C12.1444 213.774 12.2131 213.652 12.2396 213.405C12.3253 212.605 9.94392 211.583 8.23916 210.958C10.0309 211.253 12.6067 211.536 12.926 210.798C13.0247 210.57 13.0247 210.43 12.926 210.202C12.6067 209.464 10.0309 209.747 8.23916 210.042C9.94392 209.417 12.3253 208.395 12.2396 207.595C12.2131 207.348 12.1444 207.226 11.9461 207.076C11.3216 206.604 9.31274 208.027 7.90197 209.154C9.08499 207.79 10.5887 205.84 10.1419 205.197C10 204.993 9.88138 204.919 9.63546 204.883C8.78975 204.757 7.58058 207.406 6.9024 209.089C7.21327 207.302 7.58278 204.413 6.79802 204.074C6.56983 203.975 6.43019 203.975 6.202 204.074C5.41722 204.413 5.78678 207.302 6.09765 209.089C5.41949 207.407 4.21026 204.757 3.36451 204.883C3.11859 204.919 2.99995 204.993 2.8581 205.197C2.41128 205.84 3.91499 207.79 5.098 209.154C3.68724 208.027 1.67835 206.604 1.05386 207.076C0.855614 207.226 0.786852 207.348 0.760364 207.595C0.674659 208.395 3.05604 209.417 4.76081 210.042C2.96902 209.747 0.393283 209.464 0.0740051 210.202C-0.0246696 210.43 -0.0246696 210.57 0.0740051 210.798C0.393282 211.536 2.96902 211.253 4.7608 210.958C3.05604 211.583 0.674661 212.605 0.760365 213.405C0.786854 213.652 0.855615 213.774 1.05387 213.924C1.67836 214.396 3.68727 212.973 5.09803 211.846C3.91502 213.21 2.41128 215.16 2.85811 215.803C2.99996 216.007 3.1186 216.081 3.36452 216.117C4.21027 216.243 5.41948 213.593 6.09764 211.911C5.78677 213.698 5.41722 216.587 6.202 216.926Z" fill="#C1A875" style="mix-blend-mode:color"/>
<defs>
<linearGradient id="paint0_linear_73_152" x1="7.62544" y1="104.417" x2="3.43319" y2="104.24" gradientUnits="userSpaceOnUse">
<stop stop-color="#576265"/>
<stop offset="0.172016" stop-color="#9EA1A1"/>
<stop offset="0.45741" stop-color="#848B8A"/>
<stop offset="0.553567" stop-color="#576265"/>
<stop offset="0.823421" stop-color="#576265"/>
<stop offset="0.925155" stop-color="#757A7B"/>
<stop offset="1" stop-color="#576265"/>
</linearGradient>
<linearGradient id="paint1_linear_73_152" x1="7.5" y1="69.6921" x2="6.90305" y2="69.6943" gradientUnits="userSpaceOnUse">
<stop stop-color="white" stop-opacity="0"/>
<stop offset="1" stop-color="white"/>
</linearGradient>
<linearGradient id="paint2_linear_73_152" x1="12.4023" y1="4.8693" x2="0.278197" y2="7.70943" gradientUnits="userSpaceOnUse">
<stop stop-color="#576265"/>
<stop offset="0.172016" stop-color="#9EA1A1"/>
<stop offset="0.45741" stop-color="#848B8A"/>
<stop offset="0.553567" stop-color="#576265"/>
<stop offset="0.823421" stop-color="#576265"/>
<stop offset="0.925155" stop-color="#757A7B"/>
<stop offset="1" stop-color="#576265"/>
</linearGradient>
<linearGradient id="paint3_linear_73_152" x1="7.93359" y1="6.5" x2="10.5265" y2="13.2668" gradientUnits="userSpaceOnUse">
<stop stop-color="white" stop-opacity="0"/>
<stop offset="1" stop-color="white"/>
</linearGradient>
<linearGradient id="paint4_linear_73_152" x1="7.50233" y1="209.417" x2="3.31008" y2="209.24" gradientUnits="userSpaceOnUse">
<stop stop-color="#576265"/>
<stop offset="0.172016" stop-color="#9EA1A1"/>
<stop offset="0.45741" stop-color="#848B8A"/>
<stop offset="0.553567" stop-color="#576265"/>
<stop offset="0.823421" stop-color="#576265"/>
<stop offset="0.925155" stop-color="#757A7B"/>
<stop offset="1" stop-color="#576265"/>
</linearGradient>
<linearGradient id="paint5_linear_73_152" x1="7.37689" y1="174.692" x2="6.77995" y2="174.694" gradientUnits="userSpaceOnUse">
<stop stop-color="white" stop-opacity="0"/>
<stop offset="1" stop-color="white"/>
</linearGradient>
<linearGradient id="paint6_linear_73_152" x1="12.2792" y1="109.869" x2="0.155089" y2="112.709" gradientUnits="userSpaceOnUse">
<stop stop-color="#576265"/>
<stop offset="0.172016" stop-color="#9EA1A1"/>
<stop offset="0.45741" stop-color="#848B8A"/>
<stop offset="0.553567" stop-color="#576265"/>
<stop offset="0.823421" stop-color="#576265"/>
<stop offset="0.925155" stop-color="#757A7B"/>
<stop offset="1" stop-color="#576265"/>
</linearGradient>
<linearGradient id="paint7_linear_73_152" x1="7.81048" y1="111.5" x2="10.4034" y2="118.267" gradientUnits="userSpaceOnUse">
<stop stop-color="white" stop-opacity="0"/>
<stop offset="1" stop-color="white"/>
</linearGradient>
<linearGradient id="paint8_linear_73_152" x1="12.2792" y1="208.869" x2="0.155089" y2="211.709" gradientUnits="userSpaceOnUse">
<stop stop-color="#576265"/>
<stop offset="0.172016" stop-color="#9EA1A1"/>
<stop offset="0.45741" stop-color="#848B8A"/>
<stop offset="0.553567" stop-color="#576265"/>
<stop offset="0.823421" stop-color="#576265"/>
<stop offset="0.925155" stop-color="#757A7B"/>
<stop offset="1" stop-color="#576265"/>
</linearGradient>
<linearGradient id="paint9_linear_73_152" x1="7.81048" y1="210.5" x2="10.4034" y2="217.267" gradientUnits="userSpaceOnUse">
<stop stop-color="white" stop-opacity="0"/>
<stop offset="1" stop-color="white"/>
</linearGradient>
</defs>
</svg>
