<svg width="21" height="20" viewBox="0 0 21 20" fill="none" xmlns="http://www.w3.org/2000/svg">
<rect x="0.5" y="0.5" width="20" height="19" rx="2.5" stroke="url(#paint0_linear_68_131)"/>
<rect x="0.5" y="0.5" width="20" height="19" rx="2.5" stroke="url(#paint1_linear_68_131)" style="mix-blend-mode:overlay"/>
<rect x="0.5" y="0.5" width="20" height="19" rx="2.5" stroke="#C1A875" style="mix-blend-mode:color"/>
<mask id="path-2-inside-1_68_131" fill="white">
<path d="M16.8393 6.57439C17.0331 6.01295 17.1037 5.41636 17.0463 4.82519C16.989 4.23402 16.8049 3.66215 16.5068 3.14845C16.4808 3.10337 16.4433 3.06592 16.3983 3.03987C16.3532 3.01381 16.3021 3.00007 16.25 3.00002C15.5792 2.99811 14.918 3.15924 14.3233 3.46953C13.7285 3.77982 13.2181 4.22998 12.8359 4.78127H10.7578C10.3756 4.22998 9.86522 3.77982 9.27049 3.46953C8.67577 3.15924 8.01455 2.99811 7.34375 3.00002C7.29169 3.00007 7.24056 3.01381 7.19549 3.03987C7.15041 3.06592 7.11298 3.10337 7.08695 3.14845C6.7888 3.66215 6.60478 4.23402 6.54741 4.82519C6.49003 5.41636 6.56065 6.01295 6.75445 6.57439C6.36972 7.19542 6.16281 7.91013 6.15625 8.64064V9.23439C6.15743 10.2576 6.56442 11.2386 7.28794 11.9621C8.01145 12.6856 8.99242 13.0926 10.0156 13.0938H10.1203C9.80984 13.344 9.55933 13.6604 9.38711 14.02C9.21489 14.3796 9.12533 14.7732 9.125 15.1719V16.0625H7.04688C6.49572 16.0625 5.96714 15.8436 5.57742 15.4538C5.18769 15.0641 4.96875 14.5355 4.96875 13.9844C4.96875 13.2758 4.68725 12.5962 4.18618 12.0951C3.6851 11.594 3.0055 11.3125 2.29688 11.3125C2.21814 11.3125 2.14263 11.3438 2.08695 11.3995C2.03128 11.4551 2 11.5307 2 11.6094C2 11.6881 2.03128 11.7636 2.08695 11.8193C2.14263 11.875 2.21814 11.9063 2.29688 11.9063C2.84803 11.9063 3.37661 12.1252 3.76633 12.5149C4.15606 12.9047 4.375 13.4332 4.375 13.9844C4.375 14.693 4.6565 15.3726 5.15757 15.8737C5.65865 16.3748 6.33825 16.6563 7.04688 16.6563H9.125V18.1406C9.125 18.2194 9.15628 18.2949 9.21195 18.3506C9.26763 18.4062 9.34314 18.4375 9.42188 18.4375C9.50061 18.4375 9.57612 18.4062 9.6318 18.3506C9.68747 18.2949 9.71875 18.2194 9.71875 18.1406V15.1719C9.71875 14.6207 9.9377 14.0922 10.3274 13.7024C10.7171 13.3127 11.2457 13.0938 11.7969 13.0938C12.348 13.0938 12.8766 13.3127 13.2663 13.7024C13.6561 14.0922 13.875 14.6207 13.875 15.1719V18.1406C13.875 18.2194 13.9063 18.2949 13.962 18.3506C14.0176 18.4062 14.0931 18.4375 14.1719 18.4375C14.2506 18.4375 14.3261 18.4062 14.3818 18.3506C14.4375 18.2949 14.4688 18.2194 14.4688 18.1406V15.1719C14.4684 14.7732 14.3789 14.3796 14.2066 14.02C14.0344 13.6604 13.7839 13.344 13.4735 13.0938H13.5781C14.6013 13.0926 15.5823 12.6856 16.3058 11.9621C17.0293 11.2386 17.4363 10.2576 17.4375 9.23439V8.64064C17.4309 7.91013 17.224 7.19542 16.8393 6.57439ZM16.8438 9.23439C16.8428 10.1002 16.4984 10.9302 15.8862 11.5425C15.274 12.1547 14.4439 12.499 13.5781 12.5H10.0156C9.14983 12.499 8.31977 12.1547 7.70756 11.5425C7.09535 10.9302 6.75098 10.1002 6.75 9.23439V8.64064C6.75769 7.98243 6.95649 7.34064 7.32223 6.79334C7.3524 6.75306 7.37184 6.70577 7.37873 6.65592C7.38561 6.60607 7.3797 6.55528 7.36156 6.50834C7.1801 6.03987 7.10015 5.53821 7.12702 5.03654C7.15389 4.53487 7.28696 4.04463 7.51742 3.59822C8.086 3.62461 8.63988 3.78741 9.1323 4.07289C9.62472 4.35837 10.0412 4.75814 10.3466 5.23845C10.3735 5.28037 10.4105 5.31484 10.4542 5.33871C10.498 5.36257 10.547 5.37506 10.5968 5.37502H12.997C13.0468 5.37506 13.0958 5.36257 13.1395 5.33871C13.1832 5.31484 13.2202 5.28037 13.2471 5.23845C13.5525 4.75814 13.969 4.35837 14.4614 4.07289C14.9539 3.78741 15.5078 3.62461 16.0763 3.59822C16.3068 4.04463 16.4399 4.53487 16.4667 5.03654C16.4936 5.53821 16.4137 6.03987 16.2322 6.50834C16.2142 6.55518 16.2083 6.60582 16.2152 6.65553C16.2221 6.70524 16.2415 6.7524 16.2715 6.79259C16.637 7.34028 16.8358 7.98224 16.8438 8.64064V9.23439Z"/>
</mask>
<path d="M16.8393 6.57439C17.0331 6.01295 17.1037 5.41636 17.0463 4.82519C16.989 4.23402 16.8049 3.66215 16.5068 3.14845C16.4808 3.10337 16.4433 3.06592 16.3983 3.03987C16.3532 3.01381 16.3021 3.00007 16.25 3.00002C15.5792 2.99811 14.918 3.15924 14.3233 3.46953C13.7285 3.77982 13.2181 4.22998 12.8359 4.78127H10.7578C10.3756 4.22998 9.86522 3.77982 9.27049 3.46953C8.67577 3.15924 8.01455 2.99811 7.34375 3.00002C7.29169 3.00007 7.24056 3.01381 7.19549 3.03987C7.15041 3.06592 7.11298 3.10337 7.08695 3.14845C6.7888 3.66215 6.60478 4.23402 6.54741 4.82519C6.49003 5.41636 6.56065 6.01295 6.75445 6.57439C6.36972 7.19542 6.16281 7.91013 6.15625 8.64064V9.23439C6.15743 10.2576 6.56442 11.2386 7.28794 11.9621C8.01145 12.6856 8.99242 13.0926 10.0156 13.0938H10.1203C9.80984 13.344 9.55933 13.6604 9.38711 14.02C9.21489 14.3796 9.12533 14.7732 9.125 15.1719V16.0625H7.04688C6.49572 16.0625 5.96714 15.8436 5.57742 15.4538C5.18769 15.0641 4.96875 14.5355 4.96875 13.9844C4.96875 13.2758 4.68725 12.5962 4.18618 12.0951C3.6851 11.594 3.0055 11.3125 2.29688 11.3125C2.21814 11.3125 2.14263 11.3438 2.08695 11.3995C2.03128 11.4551 2 11.5307 2 11.6094C2 11.6881 2.03128 11.7636 2.08695 11.8193C2.14263 11.875 2.21814 11.9063 2.29688 11.9063C2.84803 11.9063 3.37661 12.1252 3.76633 12.5149C4.15606 12.9047 4.375 13.4332 4.375 13.9844C4.375 14.693 4.6565 15.3726 5.15757 15.8737C5.65865 16.3748 6.33825 16.6563 7.04688 16.6563H9.125V18.1406C9.125 18.2194 9.15628 18.2949 9.21195 18.3506C9.26763 18.4062 9.34314 18.4375 9.42188 18.4375C9.50061 18.4375 9.57612 18.4062 9.6318 18.3506C9.68747 18.2949 9.71875 18.2194 9.71875 18.1406V15.1719C9.71875 14.6207 9.9377 14.0922 10.3274 13.7024C10.7171 13.3127 11.2457 13.0938 11.7969 13.0938C12.348 13.0938 12.8766 13.3127 13.2663 13.7024C13.6561 14.0922 13.875 14.6207 13.875 15.1719V18.1406C13.875 18.2194 13.9063 18.2949 13.962 18.3506C14.0176 18.4062 14.0931 18.4375 14.1719 18.4375C14.2506 18.4375 14.3261 18.4062 14.3818 18.3506C14.4375 18.2949 14.4688 18.2194 14.4688 18.1406V15.1719C14.4684 14.7732 14.3789 14.3796 14.2066 14.02C14.0344 13.6604 13.7839 13.344 13.4735 13.0938H13.5781C14.6013 13.0926 15.5823 12.6856 16.3058 11.9621C17.0293 11.2386 17.4363 10.2576 17.4375 9.23439V8.64064C17.4309 7.91013 17.224 7.19542 16.8393 6.57439ZM16.8438 9.23439C16.8428 10.1002 16.4984 10.9302 15.8862 11.5425C15.274 12.1547 14.4439 12.499 13.5781 12.5H10.0156C9.14983 12.499 8.31977 12.1547 7.70756 11.5425C7.09535 10.9302 6.75098 10.1002 6.75 9.23439V8.64064C6.75769 7.98243 6.95649 7.34064 7.32223 6.79334C7.3524 6.75306 7.37184 6.70577 7.37873 6.65592C7.38561 6.60607 7.3797 6.55528 7.36156 6.50834C7.1801 6.03987 7.10015 5.53821 7.12702 5.03654C7.15389 4.53487 7.28696 4.04463 7.51742 3.59822C8.086 3.62461 8.63988 3.78741 9.1323 4.07289C9.62472 4.35837 10.0412 4.75814 10.3466 5.23845C10.3735 5.28037 10.4105 5.31484 10.4542 5.33871C10.498 5.36257 10.547 5.37506 10.5968 5.37502H12.997C13.0468 5.37506 13.0958 5.36257 13.1395 5.33871C13.1832 5.31484 13.2202 5.28037 13.2471 5.23845C13.5525 4.75814 13.969 4.35837 14.4614 4.07289C14.9539 3.78741 15.5078 3.62461 16.0763 3.59822C16.3068 4.04463 16.4399 4.53487 16.4667 5.03654C16.4936 5.53821 16.4137 6.03987 16.2322 6.50834C16.2142 6.55518 16.2083 6.60582 16.2152 6.65553C16.2221 6.70524 16.2415 6.7524 16.2715 6.79259C16.637 7.34028 16.8358 7.98224 16.8438 8.64064V9.23439Z" fill="url(#paint2_linear_68_131)"/>
<path d="M16.8393 6.57439C17.0331 6.01295 17.1037 5.41636 17.0463 4.82519C16.989 4.23402 16.8049 3.66215 16.5068 3.14845C16.4808 3.10337 16.4433 3.06592 16.3983 3.03987C16.3532 3.01381 16.3021 3.00007 16.25 3.00002C15.5792 2.99811 14.918 3.15924 14.3233 3.46953C13.7285 3.77982 13.2181 4.22998 12.8359 4.78127H10.7578C10.3756 4.22998 9.86522 3.77982 9.27049 3.46953C8.67577 3.15924 8.01455 2.99811 7.34375 3.00002C7.29169 3.00007 7.24056 3.01381 7.19549 3.03987C7.15041 3.06592 7.11298 3.10337 7.08695 3.14845C6.7888 3.66215 6.60478 4.23402 6.54741 4.82519C6.49003 5.41636 6.56065 6.01295 6.75445 6.57439C6.36972 7.19542 6.16281 7.91013 6.15625 8.64064V9.23439C6.15743 10.2576 6.56442 11.2386 7.28794 11.9621C8.01145 12.6856 8.99242 13.0926 10.0156 13.0938H10.1203C9.80984 13.344 9.55933 13.6604 9.38711 14.02C9.21489 14.3796 9.12533 14.7732 9.125 15.1719V16.0625H7.04688C6.49572 16.0625 5.96714 15.8436 5.57742 15.4538C5.18769 15.0641 4.96875 14.5355 4.96875 13.9844C4.96875 13.2758 4.68725 12.5962 4.18618 12.0951C3.6851 11.594 3.0055 11.3125 2.29688 11.3125C2.21814 11.3125 2.14263 11.3438 2.08695 11.3995C2.03128 11.4551 2 11.5307 2 11.6094C2 11.6881 2.03128 11.7636 2.08695 11.8193C2.14263 11.875 2.21814 11.9063 2.29688 11.9063C2.84803 11.9063 3.37661 12.1252 3.76633 12.5149C4.15606 12.9047 4.375 13.4332 4.375 13.9844C4.375 14.693 4.6565 15.3726 5.15757 15.8737C5.65865 16.3748 6.33825 16.6563 7.04688 16.6563H9.125V18.1406C9.125 18.2194 9.15628 18.2949 9.21195 18.3506C9.26763 18.4062 9.34314 18.4375 9.42188 18.4375C9.50061 18.4375 9.57612 18.4062 9.6318 18.3506C9.68747 18.2949 9.71875 18.2194 9.71875 18.1406V15.1719C9.71875 14.6207 9.9377 14.0922 10.3274 13.7024C10.7171 13.3127 11.2457 13.0938 11.7969 13.0938C12.348 13.0938 12.8766 13.3127 13.2663 13.7024C13.6561 14.0922 13.875 14.6207 13.875 15.1719V18.1406C13.875 18.2194 13.9063 18.2949 13.962 18.3506C14.0176 18.4062 14.0931 18.4375 14.1719 18.4375C14.2506 18.4375 14.3261 18.4062 14.3818 18.3506C14.4375 18.2949 14.4688 18.2194 14.4688 18.1406V15.1719C14.4684 14.7732 14.3789 14.3796 14.2066 14.02C14.0344 13.6604 13.7839 13.344 13.4735 13.0938H13.5781C14.6013 13.0926 15.5823 12.6856 16.3058 11.9621C17.0293 11.2386 17.4363 10.2576 17.4375 9.23439V8.64064C17.4309 7.91013 17.224 7.19542 16.8393 6.57439ZM16.8438 9.23439C16.8428 10.1002 16.4984 10.9302 15.8862 11.5425C15.274 12.1547 14.4439 12.499 13.5781 12.5H10.0156C9.14983 12.499 8.31977 12.1547 7.70756 11.5425C7.09535 10.9302 6.75098 10.1002 6.75 9.23439V8.64064C6.75769 7.98243 6.95649 7.34064 7.32223 6.79334C7.3524 6.75306 7.37184 6.70577 7.37873 6.65592C7.38561 6.60607 7.3797 6.55528 7.36156 6.50834C7.1801 6.03987 7.10015 5.53821 7.12702 5.03654C7.15389 4.53487 7.28696 4.04463 7.51742 3.59822C8.086 3.62461 8.63988 3.78741 9.1323 4.07289C9.62472 4.35837 10.0412 4.75814 10.3466 5.23845C10.3735 5.28037 10.4105 5.31484 10.4542 5.33871C10.498 5.36257 10.547 5.37506 10.5968 5.37502H12.997C13.0468 5.37506 13.0958 5.36257 13.1395 5.33871C13.1832 5.31484 13.2202 5.28037 13.2471 5.23845C13.5525 4.75814 13.969 4.35837 14.4614 4.07289C14.9539 3.78741 15.5078 3.62461 16.0763 3.59822C16.3068 4.04463 16.4399 4.53487 16.4667 5.03654C16.4936 5.53821 16.4137 6.03987 16.2322 6.50834C16.2142 6.55518 16.2083 6.60582 16.2152 6.65553C16.2221 6.70524 16.2415 6.7524 16.2715 6.79259C16.637 7.34028 16.8358 7.98224 16.8438 8.64064V9.23439Z" fill="url(#paint3_linear_68_131)" style="mix-blend-mode:overlay"/>
<path d="M16.8393 6.57439C17.0331 6.01295 17.1037 5.41636 17.0463 4.82519C16.989 4.23402 16.8049 3.66215 16.5068 3.14845C16.4808 3.10337 16.4433 3.06592 16.3983 3.03987C16.3532 3.01381 16.3021 3.00007 16.25 3.00002C15.5792 2.99811 14.918 3.15924 14.3233 3.46953C13.7285 3.77982 13.2181 4.22998 12.8359 4.78127H10.7578C10.3756 4.22998 9.86522 3.77982 9.27049 3.46953C8.67577 3.15924 8.01455 2.99811 7.34375 3.00002C7.29169 3.00007 7.24056 3.01381 7.19549 3.03987C7.15041 3.06592 7.11298 3.10337 7.08695 3.14845C6.7888 3.66215 6.60478 4.23402 6.54741 4.82519C6.49003 5.41636 6.56065 6.01295 6.75445 6.57439C6.36972 7.19542 6.16281 7.91013 6.15625 8.64064V9.23439C6.15743 10.2576 6.56442 11.2386 7.28794 11.9621C8.01145 12.6856 8.99242 13.0926 10.0156 13.0938H10.1203C9.80984 13.344 9.55933 13.6604 9.38711 14.02C9.21489 14.3796 9.12533 14.7732 9.125 15.1719V16.0625H7.04688C6.49572 16.0625 5.96714 15.8436 5.57742 15.4538C5.18769 15.0641 4.96875 14.5355 4.96875 13.9844C4.96875 13.2758 4.68725 12.5962 4.18618 12.0951C3.6851 11.594 3.0055 11.3125 2.29688 11.3125C2.21814 11.3125 2.14263 11.3438 2.08695 11.3995C2.03128 11.4551 2 11.5307 2 11.6094C2 11.6881 2.03128 11.7636 2.08695 11.8193C2.14263 11.875 2.21814 11.9063 2.29688 11.9063C2.84803 11.9063 3.37661 12.1252 3.76633 12.5149C4.15606 12.9047 4.375 13.4332 4.375 13.9844C4.375 14.693 4.6565 15.3726 5.15757 15.8737C5.65865 16.3748 6.33825 16.6563 7.04688 16.6563H9.125V18.1406C9.125 18.2194 9.15628 18.2949 9.21195 18.3506C9.26763 18.4062 9.34314 18.4375 9.42188 18.4375C9.50061 18.4375 9.57612 18.4062 9.6318 18.3506C9.68747 18.2949 9.71875 18.2194 9.71875 18.1406V15.1719C9.71875 14.6207 9.9377 14.0922 10.3274 13.7024C10.7171 13.3127 11.2457 13.0938 11.7969 13.0938C12.348 13.0938 12.8766 13.3127 13.2663 13.7024C13.6561 14.0922 13.875 14.6207 13.875 15.1719V18.1406C13.875 18.2194 13.9063 18.2949 13.962 18.3506C14.0176 18.4062 14.0931 18.4375 14.1719 18.4375C14.2506 18.4375 14.3261 18.4062 14.3818 18.3506C14.4375 18.2949 14.4688 18.2194 14.4688 18.1406V15.1719C14.4684 14.7732 14.3789 14.3796 14.2066 14.02C14.0344 13.6604 13.7839 13.344 13.4735 13.0938H13.5781C14.6013 13.0926 15.5823 12.6856 16.3058 11.9621C17.0293 11.2386 17.4363 10.2576 17.4375 9.23439V8.64064C17.4309 7.91013 17.224 7.19542 16.8393 6.57439ZM16.8438 9.23439C16.8428 10.1002 16.4984 10.9302 15.8862 11.5425C15.274 12.1547 14.4439 12.499 13.5781 12.5H10.0156C9.14983 12.499 8.31977 12.1547 7.70756 11.5425C7.09535 10.9302 6.75098 10.1002 6.75 9.23439V8.64064C6.75769 7.98243 6.95649 7.34064 7.32223 6.79334C7.3524 6.75306 7.37184 6.70577 7.37873 6.65592C7.38561 6.60607 7.3797 6.55528 7.36156 6.50834C7.1801 6.03987 7.10015 5.53821 7.12702 5.03654C7.15389 4.53487 7.28696 4.04463 7.51742 3.59822C8.086 3.62461 8.63988 3.78741 9.1323 4.07289C9.62472 4.35837 10.0412 4.75814 10.3466 5.23845C10.3735 5.28037 10.4105 5.31484 10.4542 5.33871C10.498 5.36257 10.547 5.37506 10.5968 5.37502H12.997C13.0468 5.37506 13.0958 5.36257 13.1395 5.33871C13.1832 5.31484 13.2202 5.28037 13.2471 5.23845C13.5525 4.75814 13.969 4.35837 14.4614 4.07289C14.9539 3.78741 15.5078 3.62461 16.0763 3.59822C16.3068 4.04463 16.4399 4.53487 16.4667 5.03654C16.4936 5.53821 16.4137 6.03987 16.2322 6.50834C16.2142 6.55518 16.2083 6.60582 16.2152 6.65553C16.2221 6.70524 16.2415 6.7524 16.2715 6.79259C16.637 7.34028 16.8358 7.98224 16.8438 8.64064V9.23439Z" fill="#C1A875" style="mix-blend-mode:color"/>
<path d="M16.8393 6.57439L15.894 6.24809L15.739 6.69717L15.9892 7.10103L16.8393 6.57439ZM16.5068 3.14845L15.6408 3.64845L15.6419 3.65043L16.5068 3.14845ZM16.25 3.00002L16.2472 4.00001L16.249 4.00002L16.25 3.00002ZM12.8359 4.78127V5.78127H13.3595L13.6578 5.351L12.8359 4.78127ZM10.7578 4.78127L9.93598 5.351L10.2343 5.78127H10.7578V4.78127ZM7.34375 3.00002L7.34478 4.00002L7.34659 4.00001L7.34375 3.00002ZM7.08695 3.14845L7.95183 3.65044L7.95298 3.64845L7.08695 3.14845ZM6.75445 6.57439L7.60454 7.10103L7.85474 6.69717L7.69972 6.24809L6.75445 6.57439ZM6.15625 8.64064L5.15625 8.63167V8.64064H6.15625ZM6.15625 9.23439H5.15625L5.15625 9.23554L6.15625 9.23439ZM10.0156 13.0938L10.0145 14.0938H10.0156V13.0938ZM10.1203 13.0938L10.7478 13.8724L12.9547 12.0938H10.1203V13.0938ZM9.125 15.1719L8.125 15.1711V15.1719H9.125ZM9.125 16.0625V17.0625H10.125V16.0625H9.125ZM7.04688 16.0625V15.0625V16.0625ZM4.96875 13.9844H5.96875H4.96875ZM2.29688 11.3125V10.3125V11.3125ZM2 11.6094H1H2ZM2.29688 11.9063V10.9063V11.9063ZM4.375 13.9844H3.375H4.375ZM9.125 16.6563H10.125V15.6563H9.125V16.6563ZM14.4688 15.1719H15.4688V15.1711L14.4688 15.1719ZM13.4735 13.0938V12.0938H10.639L12.846 13.8724L13.4735 13.0938ZM13.5781 13.0938V14.0938L13.5793 14.0938L13.5781 13.0938ZM17.4375 9.23439L18.4375 9.23554V9.23439H17.4375ZM17.4375 8.64064H18.4375L18.4375 8.63167L17.4375 8.64064ZM16.8438 9.23439L17.8438 9.23553V9.23439H16.8438ZM13.5781 12.5V13.5L13.5793 13.5L13.5781 12.5ZM10.0156 12.5L10.0145 13.5H10.0156V12.5ZM6.75 9.23439H5.75L5.75 9.23553L6.75 9.23439ZM6.75 8.64064L5.75 8.62896V8.64064H6.75ZM7.32223 6.79334L6.52193 6.19374L6.50576 6.21531L6.49078 6.23773L7.32223 6.79334ZM7.36156 6.50834L8.29436 6.14794L8.29405 6.14713L7.36156 6.50834ZM7.51742 3.59822L7.56378 2.5993L6.92308 2.56956L6.62885 3.13948L7.51742 3.59822ZM10.3466 5.23845L9.50279 5.77504L9.50498 5.77845L10.3466 5.23845ZM10.5968 5.37502V4.37502L10.5959 4.37502L10.5968 5.37502ZM12.997 5.37502L12.9978 4.37502H12.997V5.37502ZM13.2471 5.23845L14.0888 5.77846L14.091 5.77504L13.2471 5.23845ZM16.0763 3.59822L16.9649 3.13948L16.6707 2.56956L16.03 2.5993L16.0763 3.59822ZM16.2322 6.50834L15.2997 6.14713L15.2988 6.14959L16.2322 6.50834ZM16.2715 6.79259L17.1033 6.23747L17.0885 6.21525L17.0725 6.19384L16.2715 6.79259ZM16.8438 8.64064H17.8438L17.8437 8.6286L16.8438 8.64064ZM17.7846 6.90069C18.0252 6.20352 18.1129 5.46269 18.0417 4.72859L16.051 4.92179C16.0945 5.37004 16.041 5.82239 15.894 6.24809L17.7846 6.90069ZM18.0417 4.72859C17.9704 3.9945 17.7419 3.28436 17.3717 2.64647L15.6419 3.65043C15.868 4.03993 16.0075 4.47355 16.051 4.92179L18.0417 4.72859ZM17.3728 2.64845C17.2591 2.4515 17.0956 2.28791 16.8987 2.1741L15.8978 3.90564C15.7911 3.84393 15.7024 3.75524 15.6408 3.64845L17.3728 2.64845ZM16.8987 2.1741C16.7018 2.06028 16.4784 2.00025 16.251 2.00002L16.249 4.00002C16.1257 3.99989 16.0046 3.96734 15.8978 3.90564L16.8987 2.1741ZM16.2528 2.00002C15.42 1.99766 14.5991 2.1977 13.8607 2.58295L14.7858 4.35611C15.2369 4.12077 15.7384 3.99857 16.2472 4.00001L16.2528 2.00002ZM13.8607 2.58295C13.1223 2.96819 12.4886 3.52708 12.0141 4.21153L13.6578 5.351C13.9476 4.93288 14.3348 4.59145 14.7858 4.35611L13.8607 2.58295ZM12.8359 3.78127H10.7578V5.78127H12.8359V3.78127ZM11.5796 4.21153C11.1051 3.52708 10.4714 2.96819 9.73306 2.58295L8.80793 4.35611C9.25899 4.59145 9.64612 4.93288 9.93598 5.351L11.5796 4.21153ZM9.73306 2.58295C8.99468 2.1977 8.17374 1.99766 7.34091 2.00002L7.34659 4.00001C7.85536 3.99857 8.35686 4.12077 8.80793 4.35611L9.73306 2.58295ZM7.34272 2.00002C7.1153 2.00025 6.89194 2.06028 6.69504 2.1741L7.69593 3.90564C7.58918 3.96734 7.46808 3.99989 7.34478 4.00002L7.34272 2.00002ZM6.69504 2.1741C6.49814 2.28791 6.33464 2.4515 6.22093 2.64845L7.95298 3.64845C7.89133 3.75524 7.80268 3.84393 7.69593 3.90564L6.69504 2.1741ZM6.22207 2.64647C5.85184 3.28436 5.62333 3.9945 5.55208 4.72859L7.54273 4.92179C7.58624 4.47355 7.72577 4.03993 7.95183 3.65043L6.22207 2.64647ZM5.55208 4.72859C5.48084 5.46269 5.56853 6.20352 5.80919 6.90069L7.69972 6.24809C7.55277 5.82239 7.49923 5.37004 7.54273 4.92179L5.55208 4.72859ZM5.90436 6.04775C5.42324 6.82437 5.16449 7.71813 5.15629 8.63167L7.15621 8.64961C7.16112 8.10212 7.3162 7.56647 7.60454 7.10103L5.90436 6.04775ZM5.15625 8.64064V9.23439H7.15625V8.64064H5.15625ZM5.15625 9.23554C5.15773 10.5236 5.67006 11.7584 6.58083 12.6692L7.99504 11.255C7.45878 10.7187 7.15712 9.99163 7.15625 9.23324L5.15625 9.23554ZM6.58083 12.6692C7.4916 13.58 8.72645 14.0923 10.0145 14.0938L10.0168 12.0938C9.25839 12.0929 8.53131 11.7912 7.99504 11.255L6.58083 12.6692ZM10.0156 14.0938H10.1203V12.0938H10.0156V14.0938ZM9.49277 12.3152C9.06615 12.659 8.72188 13.0939 8.48521 13.5881L10.289 14.452C10.3968 14.227 10.5535 14.0289 10.7478 13.8724L9.49277 12.3152ZM8.48521 13.5881C8.24854 14.0823 8.12546 14.6231 8.125 15.1711L10.125 15.1727C10.1252 14.9233 10.1812 14.677 10.289 14.452L8.48521 13.5881ZM8.125 15.1719V16.0625H10.125V15.1719H8.125ZM9.125 15.0625H7.04688V17.0625H9.125V15.0625ZM7.04688 15.0625C6.76094 15.0625 6.48671 14.9489 6.28453 14.7467L4.87031 16.161C5.44757 16.7382 6.23051 17.0625 7.04688 17.0625V15.0625ZM6.28453 14.7467C6.08234 14.5446 5.96875 14.2703 5.96875 13.9844H3.96875C3.96875 14.8008 4.29305 15.5837 4.87031 16.161L6.28453 14.7467ZM5.96875 13.9844C5.96875 13.0106 5.58189 12.0766 4.89328 11.388L3.47907 12.8022C3.79261 13.1157 3.96875 13.541 3.96875 13.9844H5.96875ZM4.89328 11.388C4.20467 10.6994 3.27072 10.3125 2.29688 10.3125V12.3125C2.74028 12.3125 3.16553 12.4887 3.47907 12.8022L4.89328 11.388ZM2.29688 10.3125C1.95292 10.3125 1.62306 10.4491 1.37985 10.6924L2.79406 12.1066C2.6622 12.2384 2.48335 12.3125 2.29688 12.3125V10.3125ZM1.37985 10.6924C1.13663 10.9356 1 11.2654 1 11.6094H3C3 11.7959 2.92592 11.9747 2.79406 12.1066L1.37985 10.6924ZM1 11.6094C1 11.9533 1.13663 12.2832 1.37985 12.5264L2.79406 11.1122C2.92592 11.2441 3 11.4229 3 11.6094H1ZM1.37985 12.5264C1.62306 12.7696 1.95292 12.9063 2.29688 12.9063V10.9063C2.48335 10.9063 2.6622 10.9803 2.79406 11.1122L1.37985 12.5264ZM2.29688 12.9063C2.58281 12.9063 2.85704 13.0199 3.05922 13.222L4.47344 11.8078C3.89618 11.2306 3.11324 10.9063 2.29688 10.9063V12.9063ZM3.05922 13.222C3.26141 13.4242 3.375 13.6985 3.375 13.9844H5.375C5.375 13.168 5.0507 12.3851 4.47344 11.8078L3.05922 13.222ZM3.375 13.9844C3.375 14.9582 3.76186 15.8922 4.45047 16.5808L5.86468 15.1666C5.55114 14.853 5.375 14.4278 5.375 13.9844H3.375ZM4.45047 16.5808C5.13908 17.2694 6.07303 17.6563 7.04688 17.6563V15.6563C6.60347 15.6563 6.17822 15.4801 5.86468 15.1666L4.45047 16.5808ZM7.04688 17.6563H9.125V15.6563H7.04688V17.6563ZM8.125 16.6563V18.1406H10.125V16.6563H8.125ZM8.125 18.1406C8.125 18.4846 8.26163 18.8145 8.50485 19.0577L9.91906 17.6435C10.0509 17.7753 10.125 17.9542 10.125 18.1406H8.125ZM8.50485 19.0577C8.74806 19.3009 9.07793 19.4375 9.42188 19.4375V17.4375C9.60835 17.4375 9.7872 17.5116 9.91906 17.6435L8.50485 19.0577ZM9.42188 19.4375C9.76582 19.4375 10.0957 19.3009 10.3389 19.0577L8.92469 17.6435C9.05655 17.5116 9.2354 17.4375 9.42188 17.4375V19.4375ZM10.3389 19.0577C10.5821 18.8145 10.7188 18.4846 10.7188 18.1406H8.71875C8.71875 17.9542 8.79283 17.7753 8.92469 17.6435L10.3389 19.0577ZM10.7188 18.1406V15.1719H8.71875V18.1406H10.7188ZM10.7188 15.1719C10.7188 14.886 10.8323 14.6117 11.0345 14.4095L9.62031 12.9953C9.04305 13.5726 8.71875 14.3555 8.71875 15.1719H10.7188ZM11.0345 14.4095C11.2367 14.2074 11.5109 14.0938 11.7969 14.0938V12.0938C10.9805 12.0938 10.1976 12.4181 9.62031 12.9953L11.0345 14.4095ZM11.7969 14.0938C12.0828 14.0938 12.357 14.2074 12.5592 14.4095L13.9734 12.9953C13.3962 12.4181 12.6132 12.0938 11.7969 12.0938V14.0938ZM12.5592 14.4095C12.7614 14.6117 12.875 14.886 12.875 15.1719H14.875C14.875 14.3555 14.5507 13.5726 13.9734 12.9953L12.5592 14.4095ZM12.875 15.1719V18.1406H14.875V15.1719H12.875ZM12.875 18.1406C12.875 18.4846 13.0116 18.8145 13.2548 19.0577L14.6691 17.6435C14.8009 17.7753 14.875 17.9542 14.875 18.1406H12.875ZM13.2548 19.0577C13.4981 19.3009 13.8279 19.4375 14.1719 19.4375V17.4375C14.3584 17.4375 14.5372 17.5116 14.6691 17.6435L13.2548 19.0577ZM14.1719 19.4375C14.5158 19.4375 14.8457 19.3009 15.0889 19.0577L13.6747 17.6435C13.8066 17.5116 13.9854 17.4375 14.1719 17.4375V19.4375ZM15.0889 19.0577C15.3321 18.8145 15.4688 18.4846 15.4688 18.1406H13.4688C13.4688 17.9542 13.5428 17.7753 13.6747 17.6435L15.0889 19.0577ZM15.4688 18.1406V15.1719H13.4688V18.1406H15.4688ZM15.4688 15.1711C15.4683 14.6231 15.3452 14.0823 15.1085 13.5881L13.3047 14.452C13.4125 14.677 13.4685 14.9233 13.4688 15.1727L15.4688 15.1711ZM15.1085 13.5881C14.8719 13.0939 14.5276 12.659 14.101 12.3152L12.846 13.8724C13.0402 14.0289 13.197 14.227 13.3047 14.452L15.1085 13.5881ZM13.4735 14.0938H13.5781V12.0938H13.4735V14.0938ZM13.5793 14.0938C14.8673 14.0923 16.1021 13.58 17.0129 12.6692L15.5987 11.255C15.0624 11.7912 14.3354 12.0929 13.577 12.0938L13.5793 14.0938ZM17.0129 12.6692C17.9237 11.7584 18.436 10.5236 18.4375 9.23554L16.4375 9.23324C16.4366 9.99163 16.135 10.7187 15.5987 11.255L17.0129 12.6692ZM18.4375 9.23439V8.64064H16.4375V9.23439H18.4375ZM18.4375 8.63167C18.4293 7.71813 18.1705 6.82437 17.6894 6.04775L15.9892 7.10103C16.2776 7.56647 16.4326 8.10212 16.4375 8.64961L18.4375 8.63167ZM15.8438 9.23326C15.8431 9.83423 15.604 10.4104 15.1791 10.8353L16.5933 12.2496C17.3928 11.4501 17.8425 10.3661 17.8437 9.23553L15.8438 9.23326ZM15.1791 10.8353C14.7541 11.2603 14.178 11.4993 13.577 11.5L13.5793 13.5C14.7099 13.4987 15.7938 13.049 16.5933 12.2496L15.1791 10.8353ZM13.5781 11.5H10.0156V13.5H13.5781V11.5ZM10.0168 11.5C9.41579 11.4993 8.83962 11.2603 8.41467 10.8353L7.00046 12.2496C7.79993 13.049 8.88387 13.4987 10.0145 13.5L10.0168 11.5ZM8.41467 10.8353C7.98972 10.4104 7.75068 9.83423 7.75 9.23326L5.75 9.23553C5.75128 10.3661 6.20099 11.4501 7.00046 12.2496L8.41467 10.8353ZM7.75 9.23439V8.64064H5.75V9.23439H7.75ZM7.74993 8.65233C7.75536 8.18792 7.89563 7.7351 8.15367 7.34895L6.49078 6.23773C6.01736 6.94618 5.76002 7.77694 5.75007 8.62896L7.74993 8.65233ZM8.12253 7.39294C8.25434 7.217 8.33928 7.01043 8.36933 6.79264L6.38812 6.5192C6.40441 6.40112 6.45046 6.28912 6.52193 6.19374L8.12253 7.39294ZM8.36933 6.79264C8.39939 6.57486 8.37359 6.35301 8.29436 6.14794L6.42876 6.86874C6.38581 6.75755 6.37182 6.63728 6.38812 6.5192L8.36933 6.79264ZM8.29405 6.14713C8.16371 5.81065 8.10629 5.45034 8.12559 5.09002L6.12845 4.98306C6.09401 5.62608 6.19648 6.26908 6.42908 6.86955L8.29405 6.14713ZM8.12559 5.09002C8.14489 4.7297 8.24046 4.37759 8.40599 4.05696L6.62885 3.13948C6.33345 3.71166 6.16289 4.34004 6.12845 4.98306L8.12559 5.09002ZM7.47106 4.59714C7.87937 4.61609 8.27713 4.73301 8.63075 4.93802L9.63386 3.20777C9.00263 2.84182 8.29263 2.63312 7.56378 2.5993L7.47106 4.59714ZM8.63075 4.93802C8.98437 5.14303 9.28347 5.43011 9.50279 5.77504L11.1905 4.70187C10.799 4.08617 10.2651 3.57372 9.63386 3.20777L8.63075 4.93802ZM9.50498 5.77845C9.62245 5.96155 9.78409 6.11215 9.97503 6.2164L10.9335 4.46101C11.037 4.51753 11.1246 4.59919 11.1883 4.69845L9.50498 5.77845ZM9.97503 6.2164C10.166 6.32065 10.3801 6.3752 10.5976 6.37502L10.5959 4.37502C10.7139 4.37492 10.8299 4.40449 10.9335 4.46101L9.97503 6.2164ZM10.5968 6.37502H12.997V4.37502H10.5968V6.37502ZM12.9962 6.37502C13.2137 6.3752 13.4278 6.32065 13.6187 6.2164L12.6603 4.46101C12.7638 4.40449 12.8799 4.37492 12.9978 4.37502L12.9962 6.37502ZM13.6187 6.2164C13.8097 6.11215 13.9713 5.96154 14.0888 5.77845L12.4054 4.69845C12.4691 4.59919 12.5568 4.51754 12.6603 4.46101L13.6187 6.2164ZM14.091 5.77504C14.3103 5.43011 14.6094 5.14303 14.963 4.93802L13.9599 3.20777C13.3287 3.57372 12.7948 4.08617 12.4033 4.70187L14.091 5.77504ZM14.963 4.93802C15.3166 4.73301 15.7144 4.61609 16.1227 4.59714L16.03 2.5993C15.3011 2.63312 14.5911 2.84182 13.9599 3.20777L14.963 4.93802ZM15.1878 4.05696C15.3533 4.37759 15.4489 4.7297 15.4682 5.09002L17.4653 4.98306C17.4309 4.34004 17.2603 3.71166 16.9649 3.13948L15.1878 4.05696ZM15.4682 5.09002C15.4875 5.45034 15.43 5.81065 15.2997 6.14713L17.1647 6.86955C17.3973 6.26908 17.4997 5.62608 17.4653 4.98306L15.4682 5.09002ZM15.2988 6.14959C15.2201 6.35423 15.1946 6.57546 15.2247 6.79261L17.2058 6.51846C17.2221 6.63619 17.2083 6.75613 17.1656 6.86708L15.2988 6.14959ZM15.2247 6.79261C15.2547 7.00976 15.3393 7.21576 15.4706 7.39135L17.0725 6.19384C17.1436 6.28904 17.1895 6.40073 17.2058 6.51846L15.2247 6.79261ZM15.4398 7.34771C15.6979 7.73445 15.8382 8.18776 15.8438 8.65269L17.8437 8.6286C17.8334 7.77671 17.5762 6.9461 17.1033 6.23747L15.4398 7.34771ZM15.8438 8.64064V9.23439H17.8438V8.64064H15.8438Z" fill="url(#paint4_linear_68_131)" mask="url(#path-2-inside-1_68_131)"/>
<path d="M16.8393 6.57439L15.894 6.24809L15.739 6.69717L15.9892 7.10103L16.8393 6.57439ZM16.5068 3.14845L15.6408 3.64845L15.6419 3.65043L16.5068 3.14845ZM16.25 3.00002L16.2472 4.00001L16.249 4.00002L16.25 3.00002ZM12.8359 4.78127V5.78127H13.3595L13.6578 5.351L12.8359 4.78127ZM10.7578 4.78127L9.93598 5.351L10.2343 5.78127H10.7578V4.78127ZM7.34375 3.00002L7.34478 4.00002L7.34659 4.00001L7.34375 3.00002ZM7.08695 3.14845L7.95183 3.65044L7.95298 3.64845L7.08695 3.14845ZM6.75445 6.57439L7.60454 7.10103L7.85474 6.69717L7.69972 6.24809L6.75445 6.57439ZM6.15625 8.64064L5.15625 8.63167V8.64064H6.15625ZM6.15625 9.23439H5.15625L5.15625 9.23554L6.15625 9.23439ZM10.0156 13.0938L10.0145 14.0938H10.0156V13.0938ZM10.1203 13.0938L10.7478 13.8724L12.9547 12.0938H10.1203V13.0938ZM9.125 15.1719L8.125 15.1711V15.1719H9.125ZM9.125 16.0625V17.0625H10.125V16.0625H9.125ZM7.04688 16.0625V15.0625V16.0625ZM4.96875 13.9844H5.96875H4.96875ZM2.29688 11.3125V10.3125V11.3125ZM2 11.6094H1H2ZM2.29688 11.9063V10.9063V11.9063ZM4.375 13.9844H3.375H4.375ZM9.125 16.6563H10.125V15.6563H9.125V16.6563ZM14.4688 15.1719H15.4688V15.1711L14.4688 15.1719ZM13.4735 13.0938V12.0938H10.639L12.846 13.8724L13.4735 13.0938ZM13.5781 13.0938V14.0938L13.5793 14.0938L13.5781 13.0938ZM17.4375 9.23439L18.4375 9.23554V9.23439H17.4375ZM17.4375 8.64064H18.4375L18.4375 8.63167L17.4375 8.64064ZM16.8438 9.23439L17.8438 9.23553V9.23439H16.8438ZM13.5781 12.5V13.5L13.5793 13.5L13.5781 12.5ZM10.0156 12.5L10.0145 13.5H10.0156V12.5ZM6.75 9.23439H5.75L5.75 9.23553L6.75 9.23439ZM6.75 8.64064L5.75 8.62896V8.64064H6.75ZM7.32223 6.79334L6.52193 6.19374L6.50576 6.21531L6.49078 6.23773L7.32223 6.79334ZM7.36156 6.50834L8.29436 6.14794L8.29405 6.14713L7.36156 6.50834ZM7.51742 3.59822L7.56378 2.5993L6.92308 2.56956L6.62885 3.13948L7.51742 3.59822ZM10.3466 5.23845L9.50279 5.77504L9.50498 5.77845L10.3466 5.23845ZM10.5968 5.37502V4.37502L10.5959 4.37502L10.5968 5.37502ZM12.997 5.37502L12.9978 4.37502H12.997V5.37502ZM13.2471 5.23845L14.0888 5.77846L14.091 5.77504L13.2471 5.23845ZM16.0763 3.59822L16.9649 3.13948L16.6707 2.56956L16.03 2.5993L16.0763 3.59822ZM16.2322 6.50834L15.2997 6.14713L15.2988 6.14959L16.2322 6.50834ZM16.2715 6.79259L17.1033 6.23747L17.0885 6.21525L17.0725 6.19384L16.2715 6.79259ZM16.8438 8.64064H17.8438L17.8437 8.6286L16.8438 8.64064ZM17.7846 6.90069C18.0252 6.20352 18.1129 5.46269 18.0417 4.72859L16.051 4.92179C16.0945 5.37004 16.041 5.82239 15.894 6.24809L17.7846 6.90069ZM18.0417 4.72859C17.9704 3.9945 17.7419 3.28436 17.3717 2.64647L15.6419 3.65043C15.868 4.03993 16.0075 4.47355 16.051 4.92179L18.0417 4.72859ZM17.3728 2.64845C17.2591 2.4515 17.0956 2.28791 16.8987 2.1741L15.8978 3.90564C15.7911 3.84393 15.7024 3.75524 15.6408 3.64845L17.3728 2.64845ZM16.8987 2.1741C16.7018 2.06028 16.4784 2.00025 16.251 2.00002L16.249 4.00002C16.1257 3.99989 16.0046 3.96734 15.8978 3.90564L16.8987 2.1741ZM16.2528 2.00002C15.42 1.99766 14.5991 2.1977 13.8607 2.58295L14.7858 4.35611C15.2369 4.12077 15.7384 3.99857 16.2472 4.00001L16.2528 2.00002ZM13.8607 2.58295C13.1223 2.96819 12.4886 3.52708 12.0141 4.21153L13.6578 5.351C13.9476 4.93288 14.3348 4.59145 14.7858 4.35611L13.8607 2.58295ZM12.8359 3.78127H10.7578V5.78127H12.8359V3.78127ZM11.5796 4.21153C11.1051 3.52708 10.4714 2.96819 9.73306 2.58295L8.80793 4.35611C9.25899 4.59145 9.64612 4.93288 9.93598 5.351L11.5796 4.21153ZM9.73306 2.58295C8.99468 2.1977 8.17374 1.99766 7.34091 2.00002L7.34659 4.00001C7.85536 3.99857 8.35686 4.12077 8.80793 4.35611L9.73306 2.58295ZM7.34272 2.00002C7.1153 2.00025 6.89194 2.06028 6.69504 2.1741L7.69593 3.90564C7.58918 3.96734 7.46808 3.99989 7.34478 4.00002L7.34272 2.00002ZM6.69504 2.1741C6.49814 2.28791 6.33464 2.4515 6.22093 2.64845L7.95298 3.64845C7.89133 3.75524 7.80268 3.84393 7.69593 3.90564L6.69504 2.1741ZM6.22207 2.64647C5.85184 3.28436 5.62333 3.9945 5.55208 4.72859L7.54273 4.92179C7.58624 4.47355 7.72577 4.03993 7.95183 3.65043L6.22207 2.64647ZM5.55208 4.72859C5.48084 5.46269 5.56853 6.20352 5.80919 6.90069L7.69972 6.24809C7.55277 5.82239 7.49923 5.37004 7.54273 4.92179L5.55208 4.72859ZM5.90436 6.04775C5.42324 6.82437 5.16449 7.71813 5.15629 8.63167L7.15621 8.64961C7.16112 8.10212 7.3162 7.56647 7.60454 7.10103L5.90436 6.04775ZM5.15625 8.64064V9.23439H7.15625V8.64064H5.15625ZM5.15625 9.23554C5.15773 10.5236 5.67006 11.7584 6.58083 12.6692L7.99504 11.255C7.45878 10.7187 7.15712 9.99163 7.15625 9.23324L5.15625 9.23554ZM6.58083 12.6692C7.4916 13.58 8.72645 14.0923 10.0145 14.0938L10.0168 12.0938C9.25839 12.0929 8.53131 11.7912 7.99504 11.255L6.58083 12.6692ZM10.0156 14.0938H10.1203V12.0938H10.0156V14.0938ZM9.49277 12.3152C9.06615 12.659 8.72188 13.0939 8.48521 13.5881L10.289 14.452C10.3968 14.227 10.5535 14.0289 10.7478 13.8724L9.49277 12.3152ZM8.48521 13.5881C8.24854 14.0823 8.12546 14.6231 8.125 15.1711L10.125 15.1727C10.1252 14.9233 10.1812 14.677 10.289 14.452L8.48521 13.5881ZM8.125 15.1719V16.0625H10.125V15.1719H8.125ZM9.125 15.0625H7.04688V17.0625H9.125V15.0625ZM7.04688 15.0625C6.76094 15.0625 6.48671 14.9489 6.28453 14.7467L4.87031 16.161C5.44757 16.7382 6.23051 17.0625 7.04688 17.0625V15.0625ZM6.28453 14.7467C6.08234 14.5446 5.96875 14.2703 5.96875 13.9844H3.96875C3.96875 14.8008 4.29305 15.5837 4.87031 16.161L6.28453 14.7467ZM5.96875 13.9844C5.96875 13.0106 5.58189 12.0766 4.89328 11.388L3.47907 12.8022C3.79261 13.1157 3.96875 13.541 3.96875 13.9844H5.96875ZM4.89328 11.388C4.20467 10.6994 3.27072 10.3125 2.29688 10.3125V12.3125C2.74028 12.3125 3.16553 12.4887 3.47907 12.8022L4.89328 11.388ZM2.29688 10.3125C1.95292 10.3125 1.62306 10.4491 1.37985 10.6924L2.79406 12.1066C2.6622 12.2384 2.48335 12.3125 2.29688 12.3125V10.3125ZM1.37985 10.6924C1.13663 10.9356 1 11.2654 1 11.6094H3C3 11.7959 2.92592 11.9747 2.79406 12.1066L1.37985 10.6924ZM1 11.6094C1 11.9533 1.13663 12.2832 1.37985 12.5264L2.79406 11.1122C2.92592 11.2441 3 11.4229 3 11.6094H1ZM1.37985 12.5264C1.62306 12.7696 1.95292 12.9063 2.29688 12.9063V10.9063C2.48335 10.9063 2.6622 10.9803 2.79406 11.1122L1.37985 12.5264ZM2.29688 12.9063C2.58281 12.9063 2.85704 13.0199 3.05922 13.222L4.47344 11.8078C3.89618 11.2306 3.11324 10.9063 2.29688 10.9063V12.9063ZM3.05922 13.222C3.26141 13.4242 3.375 13.6985 3.375 13.9844H5.375C5.375 13.168 5.0507 12.3851 4.47344 11.8078L3.05922 13.222ZM3.375 13.9844C3.375 14.9582 3.76186 15.8922 4.45047 16.5808L5.86468 15.1666C5.55114 14.853 5.375 14.4278 5.375 13.9844H3.375ZM4.45047 16.5808C5.13908 17.2694 6.07303 17.6563 7.04688 17.6563V15.6563C6.60347 15.6563 6.17822 15.4801 5.86468 15.1666L4.45047 16.5808ZM7.04688 17.6563H9.125V15.6563H7.04688V17.6563ZM8.125 16.6563V18.1406H10.125V16.6563H8.125ZM8.125 18.1406C8.125 18.4846 8.26163 18.8145 8.50485 19.0577L9.91906 17.6435C10.0509 17.7753 10.125 17.9542 10.125 18.1406H8.125ZM8.50485 19.0577C8.74806 19.3009 9.07793 19.4375 9.42188 19.4375V17.4375C9.60835 17.4375 9.7872 17.5116 9.91906 17.6435L8.50485 19.0577ZM9.42188 19.4375C9.76582 19.4375 10.0957 19.3009 10.3389 19.0577L8.92469 17.6435C9.05655 17.5116 9.2354 17.4375 9.42188 17.4375V19.4375ZM10.3389 19.0577C10.5821 18.8145 10.7188 18.4846 10.7188 18.1406H8.71875C8.71875 17.9542 8.79283 17.7753 8.92469 17.6435L10.3389 19.0577ZM10.7188 18.1406V15.1719H8.71875V18.1406H10.7188ZM10.7188 15.1719C10.7188 14.886 10.8323 14.6117 11.0345 14.4095L9.62031 12.9953C9.04305 13.5726 8.71875 14.3555 8.71875 15.1719H10.7188ZM11.0345 14.4095C11.2367 14.2074 11.5109 14.0938 11.7969 14.0938V12.0938C10.9805 12.0938 10.1976 12.4181 9.62031 12.9953L11.0345 14.4095ZM11.7969 14.0938C12.0828 14.0938 12.357 14.2074 12.5592 14.4095L13.9734 12.9953C13.3962 12.4181 12.6132 12.0938 11.7969 12.0938V14.0938ZM12.5592 14.4095C12.7614 14.6117 12.875 14.886 12.875 15.1719H14.875C14.875 14.3555 14.5507 13.5726 13.9734 12.9953L12.5592 14.4095ZM12.875 15.1719V18.1406H14.875V15.1719H12.875ZM12.875 18.1406C12.875 18.4846 13.0116 18.8145 13.2548 19.0577L14.6691 17.6435C14.8009 17.7753 14.875 17.9542 14.875 18.1406H12.875ZM13.2548 19.0577C13.4981 19.3009 13.8279 19.4375 14.1719 19.4375V17.4375C14.3584 17.4375 14.5372 17.5116 14.6691 17.6435L13.2548 19.0577ZM14.1719 19.4375C14.5158 19.4375 14.8457 19.3009 15.0889 19.0577L13.6747 17.6435C13.8066 17.5116 13.9854 17.4375 14.1719 17.4375V19.4375ZM15.0889 19.0577C15.3321 18.8145 15.4688 18.4846 15.4688 18.1406H13.4688C13.4688 17.9542 13.5428 17.7753 13.6747 17.6435L15.0889 19.0577ZM15.4688 18.1406V15.1719H13.4688V18.1406H15.4688ZM15.4688 15.1711C15.4683 14.6231 15.3452 14.0823 15.1085 13.5881L13.3047 14.452C13.4125 14.677 13.4685 14.9233 13.4688 15.1727L15.4688 15.1711ZM15.1085 13.5881C14.8719 13.0939 14.5276 12.659 14.101 12.3152L12.846 13.8724C13.0402 14.0289 13.197 14.227 13.3047 14.452L15.1085 13.5881ZM13.4735 14.0938H13.5781V12.0938H13.4735V14.0938ZM13.5793 14.0938C14.8673 14.0923 16.1021 13.58 17.0129 12.6692L15.5987 11.255C15.0624 11.7912 14.3354 12.0929 13.577 12.0938L13.5793 14.0938ZM17.0129 12.6692C17.9237 11.7584 18.436 10.5236 18.4375 9.23554L16.4375 9.23324C16.4366 9.99163 16.135 10.7187 15.5987 11.255L17.0129 12.6692ZM18.4375 9.23439V8.64064H16.4375V9.23439H18.4375ZM18.4375 8.63167C18.4293 7.71813 18.1705 6.82437 17.6894 6.04775L15.9892 7.10103C16.2776 7.56647 16.4326 8.10212 16.4375 8.64961L18.4375 8.63167ZM15.8438 9.23326C15.8431 9.83423 15.604 10.4104 15.1791 10.8353L16.5933 12.2496C17.3928 11.4501 17.8425 10.3661 17.8437 9.23553L15.8438 9.23326ZM15.1791 10.8353C14.7541 11.2603 14.178 11.4993 13.577 11.5L13.5793 13.5C14.7099 13.4987 15.7938 13.049 16.5933 12.2496L15.1791 10.8353ZM13.5781 11.5H10.0156V13.5H13.5781V11.5ZM10.0168 11.5C9.41579 11.4993 8.83962 11.2603 8.41467 10.8353L7.00046 12.2496C7.79993 13.049 8.88387 13.4987 10.0145 13.5L10.0168 11.5ZM8.41467 10.8353C7.98972 10.4104 7.75068 9.83423 7.75 9.23326L5.75 9.23553C5.75128 10.3661 6.20099 11.4501 7.00046 12.2496L8.41467 10.8353ZM7.75 9.23439V8.64064H5.75V9.23439H7.75ZM7.74993 8.65233C7.75536 8.18792 7.89563 7.7351 8.15367 7.34895L6.49078 6.23773C6.01736 6.94618 5.76002 7.77694 5.75007 8.62896L7.74993 8.65233ZM8.12253 7.39294C8.25434 7.217 8.33928 7.01043 8.36933 6.79264L6.38812 6.5192C6.40441 6.40112 6.45046 6.28912 6.52193 6.19374L8.12253 7.39294ZM8.36933 6.79264C8.39939 6.57486 8.37359 6.35301 8.29436 6.14794L6.42876 6.86874C6.38581 6.75755 6.37182 6.63728 6.38812 6.5192L8.36933 6.79264ZM8.29405 6.14713C8.16371 5.81065 8.10629 5.45034 8.12559 5.09002L6.12845 4.98306C6.09401 5.62608 6.19648 6.26908 6.42908 6.86955L8.29405 6.14713ZM8.12559 5.09002C8.14489 4.7297 8.24046 4.37759 8.40599 4.05696L6.62885 3.13948C6.33345 3.71166 6.16289 4.34004 6.12845 4.98306L8.12559 5.09002ZM7.47106 4.59714C7.87937 4.61609 8.27713 4.73301 8.63075 4.93802L9.63386 3.20777C9.00263 2.84182 8.29263 2.63312 7.56378 2.5993L7.47106 4.59714ZM8.63075 4.93802C8.98437 5.14303 9.28347 5.43011 9.50279 5.77504L11.1905 4.70187C10.799 4.08617 10.2651 3.57372 9.63386 3.20777L8.63075 4.93802ZM9.50498 5.77845C9.62245 5.96155 9.78409 6.11215 9.97503 6.2164L10.9335 4.46101C11.037 4.51753 11.1246 4.59919 11.1883 4.69845L9.50498 5.77845ZM9.97503 6.2164C10.166 6.32065 10.3801 6.3752 10.5976 6.37502L10.5959 4.37502C10.7139 4.37492 10.8299 4.40449 10.9335 4.46101L9.97503 6.2164ZM10.5968 6.37502H12.997V4.37502H10.5968V6.37502ZM12.9962 6.37502C13.2137 6.3752 13.4278 6.32065 13.6187 6.2164L12.6603 4.46101C12.7638 4.40449 12.8799 4.37492 12.9978 4.37502L12.9962 6.37502ZM13.6187 6.2164C13.8097 6.11215 13.9713 5.96154 14.0888 5.77845L12.4054 4.69845C12.4691 4.59919 12.5568 4.51754 12.6603 4.46101L13.6187 6.2164ZM14.091 5.77504C14.3103 5.43011 14.6094 5.14303 14.963 4.93802L13.9599 3.20777C13.3287 3.57372 12.7948 4.08617 12.4033 4.70187L14.091 5.77504ZM14.963 4.93802C15.3166 4.73301 15.7144 4.61609 16.1227 4.59714L16.03 2.5993C15.3011 2.63312 14.5911 2.84182 13.9599 3.20777L14.963 4.93802ZM15.1878 4.05696C15.3533 4.37759 15.4489 4.7297 15.4682 5.09002L17.4653 4.98306C17.4309 4.34004 17.2603 3.71166 16.9649 3.13948L15.1878 4.05696ZM15.4682 5.09002C15.4875 5.45034 15.43 5.81065 15.2997 6.14713L17.1647 6.86955C17.3973 6.26908 17.4997 5.62608 17.4653 4.98306L15.4682 5.09002ZM15.2988 6.14959C15.2201 6.35423 15.1946 6.57546 15.2247 6.79261L17.2058 6.51846C17.2221 6.63619 17.2083 6.75613 17.1656 6.86708L15.2988 6.14959ZM15.2247 6.79261C15.2547 7.00976 15.3393 7.21576 15.4706 7.39135L17.0725 6.19384C17.1436 6.28904 17.1895 6.40073 17.2058 6.51846L15.2247 6.79261ZM15.4398 7.34771C15.6979 7.73445 15.8382 8.18776 15.8438 8.65269L17.8437 8.6286C17.8334 7.77671 17.5762 6.9461 17.1033 6.23747L15.4398 7.34771ZM15.8438 8.64064V9.23439H17.8438V8.64064H15.8438Z" fill="url(#paint5_linear_68_131)" style="mix-blend-mode:overlay" mask="url(#path-2-inside-1_68_131)"/>
<path d="M16.8393 6.57439L15.894 6.24809L15.739 6.69717L15.9892 7.10103L16.8393 6.57439ZM16.5068 3.14845L15.6408 3.64845L15.6419 3.65043L16.5068 3.14845ZM16.25 3.00002L16.2472 4.00001L16.249 4.00002L16.25 3.00002ZM12.8359 4.78127V5.78127H13.3595L13.6578 5.351L12.8359 4.78127ZM10.7578 4.78127L9.93598 5.351L10.2343 5.78127H10.7578V4.78127ZM7.34375 3.00002L7.34478 4.00002L7.34659 4.00001L7.34375 3.00002ZM7.08695 3.14845L7.95183 3.65044L7.95298 3.64845L7.08695 3.14845ZM6.75445 6.57439L7.60454 7.10103L7.85474 6.69717L7.69972 6.24809L6.75445 6.57439ZM6.15625 8.64064L5.15625 8.63167V8.64064H6.15625ZM6.15625 9.23439H5.15625L5.15625 9.23554L6.15625 9.23439ZM10.0156 13.0938L10.0145 14.0938H10.0156V13.0938ZM10.1203 13.0938L10.7478 13.8724L12.9547 12.0938H10.1203V13.0938ZM9.125 15.1719L8.125 15.1711V15.1719H9.125ZM9.125 16.0625V17.0625H10.125V16.0625H9.125ZM7.04688 16.0625V15.0625V16.0625ZM4.96875 13.9844H5.96875H4.96875ZM2.29688 11.3125V10.3125V11.3125ZM2 11.6094H1H2ZM2.29688 11.9063V10.9063V11.9063ZM4.375 13.9844H3.375H4.375ZM9.125 16.6563H10.125V15.6563H9.125V16.6563ZM14.4688 15.1719H15.4688V15.1711L14.4688 15.1719ZM13.4735 13.0938V12.0938H10.639L12.846 13.8724L13.4735 13.0938ZM13.5781 13.0938V14.0938L13.5793 14.0938L13.5781 13.0938ZM17.4375 9.23439L18.4375 9.23554V9.23439H17.4375ZM17.4375 8.64064H18.4375L18.4375 8.63167L17.4375 8.64064ZM16.8438 9.23439L17.8438 9.23553V9.23439H16.8438ZM13.5781 12.5V13.5L13.5793 13.5L13.5781 12.5ZM10.0156 12.5L10.0145 13.5H10.0156V12.5ZM6.75 9.23439H5.75L5.75 9.23553L6.75 9.23439ZM6.75 8.64064L5.75 8.62896V8.64064H6.75ZM7.32223 6.79334L6.52193 6.19374L6.50576 6.21531L6.49078 6.23773L7.32223 6.79334ZM7.36156 6.50834L8.29436 6.14794L8.29405 6.14713L7.36156 6.50834ZM7.51742 3.59822L7.56378 2.5993L6.92308 2.56956L6.62885 3.13948L7.51742 3.59822ZM10.3466 5.23845L9.50279 5.77504L9.50498 5.77845L10.3466 5.23845ZM10.5968 5.37502V4.37502L10.5959 4.37502L10.5968 5.37502ZM12.997 5.37502L12.9978 4.37502H12.997V5.37502ZM13.2471 5.23845L14.0888 5.77846L14.091 5.77504L13.2471 5.23845ZM16.0763 3.59822L16.9649 3.13948L16.6707 2.56956L16.03 2.5993L16.0763 3.59822ZM16.2322 6.50834L15.2997 6.14713L15.2988 6.14959L16.2322 6.50834ZM16.2715 6.79259L17.1033 6.23747L17.0885 6.21525L17.0725 6.19384L16.2715 6.79259ZM16.8438 8.64064H17.8438L17.8437 8.6286L16.8438 8.64064ZM17.7846 6.90069C18.0252 6.20352 18.1129 5.46269 18.0417 4.72859L16.051 4.92179C16.0945 5.37004 16.041 5.82239 15.894 6.24809L17.7846 6.90069ZM18.0417 4.72859C17.9704 3.9945 17.7419 3.28436 17.3717 2.64647L15.6419 3.65043C15.868 4.03993 16.0075 4.47355 16.051 4.92179L18.0417 4.72859ZM17.3728 2.64845C17.2591 2.4515 17.0956 2.28791 16.8987 2.1741L15.8978 3.90564C15.7911 3.84393 15.7024 3.75524 15.6408 3.64845L17.3728 2.64845ZM16.8987 2.1741C16.7018 2.06028 16.4784 2.00025 16.251 2.00002L16.249 4.00002C16.1257 3.99989 16.0046 3.96734 15.8978 3.90564L16.8987 2.1741ZM16.2528 2.00002C15.42 1.99766 14.5991 2.1977 13.8607 2.58295L14.7858 4.35611C15.2369 4.12077 15.7384 3.99857 16.2472 4.00001L16.2528 2.00002ZM13.8607 2.58295C13.1223 2.96819 12.4886 3.52708 12.0141 4.21153L13.6578 5.351C13.9476 4.93288 14.3348 4.59145 14.7858 4.35611L13.8607 2.58295ZM12.8359 3.78127H10.7578V5.78127H12.8359V3.78127ZM11.5796 4.21153C11.1051 3.52708 10.4714 2.96819 9.73306 2.58295L8.80793 4.35611C9.25899 4.59145 9.64612 4.93288 9.93598 5.351L11.5796 4.21153ZM9.73306 2.58295C8.99468 2.1977 8.17374 1.99766 7.34091 2.00002L7.34659 4.00001C7.85536 3.99857 8.35686 4.12077 8.80793 4.35611L9.73306 2.58295ZM7.34272 2.00002C7.1153 2.00025 6.89194 2.06028 6.69504 2.1741L7.69593 3.90564C7.58918 3.96734 7.46808 3.99989 7.34478 4.00002L7.34272 2.00002ZM6.69504 2.1741C6.49814 2.28791 6.33464 2.4515 6.22093 2.64845L7.95298 3.64845C7.89133 3.75524 7.80268 3.84393 7.69593 3.90564L6.69504 2.1741ZM6.22207 2.64647C5.85184 3.28436 5.62333 3.9945 5.55208 4.72859L7.54273 4.92179C7.58624 4.47355 7.72577 4.03993 7.95183 3.65043L6.22207 2.64647ZM5.55208 4.72859C5.48084 5.46269 5.56853 6.20352 5.80919 6.90069L7.69972 6.24809C7.55277 5.82239 7.49923 5.37004 7.54273 4.92179L5.55208 4.72859ZM5.90436 6.04775C5.42324 6.82437 5.16449 7.71813 5.15629 8.63167L7.15621 8.64961C7.16112 8.10212 7.3162 7.56647 7.60454 7.10103L5.90436 6.04775ZM5.15625 8.64064V9.23439H7.15625V8.64064H5.15625ZM5.15625 9.23554C5.15773 10.5236 5.67006 11.7584 6.58083 12.6692L7.99504 11.255C7.45878 10.7187 7.15712 9.99163 7.15625 9.23324L5.15625 9.23554ZM6.58083 12.6692C7.4916 13.58 8.72645 14.0923 10.0145 14.0938L10.0168 12.0938C9.25839 12.0929 8.53131 11.7912 7.99504 11.255L6.58083 12.6692ZM10.0156 14.0938H10.1203V12.0938H10.0156V14.0938ZM9.49277 12.3152C9.06615 12.659 8.72188 13.0939 8.48521 13.5881L10.289 14.452C10.3968 14.227 10.5535 14.0289 10.7478 13.8724L9.49277 12.3152ZM8.48521 13.5881C8.24854 14.0823 8.12546 14.6231 8.125 15.1711L10.125 15.1727C10.1252 14.9233 10.1812 14.677 10.289 14.452L8.48521 13.5881ZM8.125 15.1719V16.0625H10.125V15.1719H8.125ZM9.125 15.0625H7.04688V17.0625H9.125V15.0625ZM7.04688 15.0625C6.76094 15.0625 6.48671 14.9489 6.28453 14.7467L4.87031 16.161C5.44757 16.7382 6.23051 17.0625 7.04688 17.0625V15.0625ZM6.28453 14.7467C6.08234 14.5446 5.96875 14.2703 5.96875 13.9844H3.96875C3.96875 14.8008 4.29305 15.5837 4.87031 16.161L6.28453 14.7467ZM5.96875 13.9844C5.96875 13.0106 5.58189 12.0766 4.89328 11.388L3.47907 12.8022C3.79261 13.1157 3.96875 13.541 3.96875 13.9844H5.96875ZM4.89328 11.388C4.20467 10.6994 3.27072 10.3125 2.29688 10.3125V12.3125C2.74028 12.3125 3.16553 12.4887 3.47907 12.8022L4.89328 11.388ZM2.29688 10.3125C1.95292 10.3125 1.62306 10.4491 1.37985 10.6924L2.79406 12.1066C2.6622 12.2384 2.48335 12.3125 2.29688 12.3125V10.3125ZM1.37985 10.6924C1.13663 10.9356 1 11.2654 1 11.6094H3C3 11.7959 2.92592 11.9747 2.79406 12.1066L1.37985 10.6924ZM1 11.6094C1 11.9533 1.13663 12.2832 1.37985 12.5264L2.79406 11.1122C2.92592 11.2441 3 11.4229 3 11.6094H1ZM1.37985 12.5264C1.62306 12.7696 1.95292 12.9063 2.29688 12.9063V10.9063C2.48335 10.9063 2.6622 10.9803 2.79406 11.1122L1.37985 12.5264ZM2.29688 12.9063C2.58281 12.9063 2.85704 13.0199 3.05922 13.222L4.47344 11.8078C3.89618 11.2306 3.11324 10.9063 2.29688 10.9063V12.9063ZM3.05922 13.222C3.26141 13.4242 3.375 13.6985 3.375 13.9844H5.375C5.375 13.168 5.0507 12.3851 4.47344 11.8078L3.05922 13.222ZM3.375 13.9844C3.375 14.9582 3.76186 15.8922 4.45047 16.5808L5.86468 15.1666C5.55114 14.853 5.375 14.4278 5.375 13.9844H3.375ZM4.45047 16.5808C5.13908 17.2694 6.07303 17.6563 7.04688 17.6563V15.6563C6.60347 15.6563 6.17822 15.4801 5.86468 15.1666L4.45047 16.5808ZM7.04688 17.6563H9.125V15.6563H7.04688V17.6563ZM8.125 16.6563V18.1406H10.125V16.6563H8.125ZM8.125 18.1406C8.125 18.4846 8.26163 18.8145 8.50485 19.0577L9.91906 17.6435C10.0509 17.7753 10.125 17.9542 10.125 18.1406H8.125ZM8.50485 19.0577C8.74806 19.3009 9.07793 19.4375 9.42188 19.4375V17.4375C9.60835 17.4375 9.7872 17.5116 9.91906 17.6435L8.50485 19.0577ZM9.42188 19.4375C9.76582 19.4375 10.0957 19.3009 10.3389 19.0577L8.92469 17.6435C9.05655 17.5116 9.2354 17.4375 9.42188 17.4375V19.4375ZM10.3389 19.0577C10.5821 18.8145 10.7188 18.4846 10.7188 18.1406H8.71875C8.71875 17.9542 8.79283 17.7753 8.92469 17.6435L10.3389 19.0577ZM10.7188 18.1406V15.1719H8.71875V18.1406H10.7188ZM10.7188 15.1719C10.7188 14.886 10.8323 14.6117 11.0345 14.4095L9.62031 12.9953C9.04305 13.5726 8.71875 14.3555 8.71875 15.1719H10.7188ZM11.0345 14.4095C11.2367 14.2074 11.5109 14.0938 11.7969 14.0938V12.0938C10.9805 12.0938 10.1976 12.4181 9.62031 12.9953L11.0345 14.4095ZM11.7969 14.0938C12.0828 14.0938 12.357 14.2074 12.5592 14.4095L13.9734 12.9953C13.3962 12.4181 12.6132 12.0938 11.7969 12.0938V14.0938ZM12.5592 14.4095C12.7614 14.6117 12.875 14.886 12.875 15.1719H14.875C14.875 14.3555 14.5507 13.5726 13.9734 12.9953L12.5592 14.4095ZM12.875 15.1719V18.1406H14.875V15.1719H12.875ZM12.875 18.1406C12.875 18.4846 13.0116 18.8145 13.2548 19.0577L14.6691 17.6435C14.8009 17.7753 14.875 17.9542 14.875 18.1406H12.875ZM13.2548 19.0577C13.4981 19.3009 13.8279 19.4375 14.1719 19.4375V17.4375C14.3584 17.4375 14.5372 17.5116 14.6691 17.6435L13.2548 19.0577ZM14.1719 19.4375C14.5158 19.4375 14.8457 19.3009 15.0889 19.0577L13.6747 17.6435C13.8066 17.5116 13.9854 17.4375 14.1719 17.4375V19.4375ZM15.0889 19.0577C15.3321 18.8145 15.4688 18.4846 15.4688 18.1406H13.4688C13.4688 17.9542 13.5428 17.7753 13.6747 17.6435L15.0889 19.0577ZM15.4688 18.1406V15.1719H13.4688V18.1406H15.4688ZM15.4688 15.1711C15.4683 14.6231 15.3452 14.0823 15.1085 13.5881L13.3047 14.452C13.4125 14.677 13.4685 14.9233 13.4688 15.1727L15.4688 15.1711ZM15.1085 13.5881C14.8719 13.0939 14.5276 12.659 14.101 12.3152L12.846 13.8724C13.0402 14.0289 13.197 14.227 13.3047 14.452L15.1085 13.5881ZM13.4735 14.0938H13.5781V12.0938H13.4735V14.0938ZM13.5793 14.0938C14.8673 14.0923 16.1021 13.58 17.0129 12.6692L15.5987 11.255C15.0624 11.7912 14.3354 12.0929 13.577 12.0938L13.5793 14.0938ZM17.0129 12.6692C17.9237 11.7584 18.436 10.5236 18.4375 9.23554L16.4375 9.23324C16.4366 9.99163 16.135 10.7187 15.5987 11.255L17.0129 12.6692ZM18.4375 9.23439V8.64064H16.4375V9.23439H18.4375ZM18.4375 8.63167C18.4293 7.71813 18.1705 6.82437 17.6894 6.04775L15.9892 7.10103C16.2776 7.56647 16.4326 8.10212 16.4375 8.64961L18.4375 8.63167ZM15.8438 9.23326C15.8431 9.83423 15.604 10.4104 15.1791 10.8353L16.5933 12.2496C17.3928 11.4501 17.8425 10.3661 17.8437 9.23553L15.8438 9.23326ZM15.1791 10.8353C14.7541 11.2603 14.178 11.4993 13.577 11.5L13.5793 13.5C14.7099 13.4987 15.7938 13.049 16.5933 12.2496L15.1791 10.8353ZM13.5781 11.5H10.0156V13.5H13.5781V11.5ZM10.0168 11.5C9.41579 11.4993 8.83962 11.2603 8.41467 10.8353L7.00046 12.2496C7.79993 13.049 8.88387 13.4987 10.0145 13.5L10.0168 11.5ZM8.41467 10.8353C7.98972 10.4104 7.75068 9.83423 7.75 9.23326L5.75 9.23553C5.75128 10.3661 6.20099 11.4501 7.00046 12.2496L8.41467 10.8353ZM7.75 9.23439V8.64064H5.75V9.23439H7.75ZM7.74993 8.65233C7.75536 8.18792 7.89563 7.7351 8.15367 7.34895L6.49078 6.23773C6.01736 6.94618 5.76002 7.77694 5.75007 8.62896L7.74993 8.65233ZM8.12253 7.39294C8.25434 7.217 8.33928 7.01043 8.36933 6.79264L6.38812 6.5192C6.40441 6.40112 6.45046 6.28912 6.52193 6.19374L8.12253 7.39294ZM8.36933 6.79264C8.39939 6.57486 8.37359 6.35301 8.29436 6.14794L6.42876 6.86874C6.38581 6.75755 6.37182 6.63728 6.38812 6.5192L8.36933 6.79264ZM8.29405 6.14713C8.16371 5.81065 8.10629 5.45034 8.12559 5.09002L6.12845 4.98306C6.09401 5.62608 6.19648 6.26908 6.42908 6.86955L8.29405 6.14713ZM8.12559 5.09002C8.14489 4.7297 8.24046 4.37759 8.40599 4.05696L6.62885 3.13948C6.33345 3.71166 6.16289 4.34004 6.12845 4.98306L8.12559 5.09002ZM7.47106 4.59714C7.87937 4.61609 8.27713 4.73301 8.63075 4.93802L9.63386 3.20777C9.00263 2.84182 8.29263 2.63312 7.56378 2.5993L7.47106 4.59714ZM8.63075 4.93802C8.98437 5.14303 9.28347 5.43011 9.50279 5.77504L11.1905 4.70187C10.799 4.08617 10.2651 3.57372 9.63386 3.20777L8.63075 4.93802ZM9.50498 5.77845C9.62245 5.96155 9.78409 6.11215 9.97503 6.2164L10.9335 4.46101C11.037 4.51753 11.1246 4.59919 11.1883 4.69845L9.50498 5.77845ZM9.97503 6.2164C10.166 6.32065 10.3801 6.3752 10.5976 6.37502L10.5959 4.37502C10.7139 4.37492 10.8299 4.40449 10.9335 4.46101L9.97503 6.2164ZM10.5968 6.37502H12.997V4.37502H10.5968V6.37502ZM12.9962 6.37502C13.2137 6.3752 13.4278 6.32065 13.6187 6.2164L12.6603 4.46101C12.7638 4.40449 12.8799 4.37492 12.9978 4.37502L12.9962 6.37502ZM13.6187 6.2164C13.8097 6.11215 13.9713 5.96154 14.0888 5.77845L12.4054 4.69845C12.4691 4.59919 12.5568 4.51754 12.6603 4.46101L13.6187 6.2164ZM14.091 5.77504C14.3103 5.43011 14.6094 5.14303 14.963 4.93802L13.9599 3.20777C13.3287 3.57372 12.7948 4.08617 12.4033 4.70187L14.091 5.77504ZM14.963 4.93802C15.3166 4.73301 15.7144 4.61609 16.1227 4.59714L16.03 2.5993C15.3011 2.63312 14.5911 2.84182 13.9599 3.20777L14.963 4.93802ZM15.1878 4.05696C15.3533 4.37759 15.4489 4.7297 15.4682 5.09002L17.4653 4.98306C17.4309 4.34004 17.2603 3.71166 16.9649 3.13948L15.1878 4.05696ZM15.4682 5.09002C15.4875 5.45034 15.43 5.81065 15.2997 6.14713L17.1647 6.86955C17.3973 6.26908 17.4997 5.62608 17.4653 4.98306L15.4682 5.09002ZM15.2988 6.14959C15.2201 6.35423 15.1946 6.57546 15.2247 6.79261L17.2058 6.51846C17.2221 6.63619 17.2083 6.75613 17.1656 6.86708L15.2988 6.14959ZM15.2247 6.79261C15.2547 7.00976 15.3393 7.21576 15.4706 7.39135L17.0725 6.19384C17.1436 6.28904 17.1895 6.40073 17.2058 6.51846L15.2247 6.79261ZM15.4398 7.34771C15.6979 7.73445 15.8382 8.18776 15.8438 8.65269L17.8437 8.6286C17.8334 7.77671 17.5762 6.9461 17.1033 6.23747L15.4398 7.34771ZM15.8438 8.64064V9.23439H17.8438V8.64064H15.8438Z" fill="#C1A875" style="mix-blend-mode:color" mask="url(#path-2-inside-1_68_131)"/>
<defs>
<linearGradient id="paint0_linear_68_131" x1="1.16431" y1="12.5088" x2="20.6456" y2="7.71703" gradientUnits="userSpaceOnUse">
<stop stop-color="#576265"/>
<stop offset="0.172016" stop-color="#9EA1A1"/>
<stop offset="0.45741" stop-color="#848B8A"/>
<stop offset="0.553567" stop-color="#576265"/>
<stop offset="0.823421" stop-color="#576265"/>
<stop offset="0.925155" stop-color="#757A7B"/>
<stop offset="1" stop-color="#576265"/>
</linearGradient>
<linearGradient id="paint1_linear_68_131" x1="8.38306" y1="10" x2="4.53813" y2="-0.535934" gradientUnits="userSpaceOnUse">
<stop stop-color="white" stop-opacity="0"/>
<stop offset="1" stop-color="white"/>
</linearGradient>
<linearGradient id="paint2_linear_68_131" x1="2.85591" y1="12.6552" x2="17.2533" y2="9.28257" gradientUnits="userSpaceOnUse">
<stop stop-color="#576265"/>
<stop offset="0.172016" stop-color="#9EA1A1"/>
<stop offset="0.45741" stop-color="#848B8A"/>
<stop offset="0.553567" stop-color="#576265"/>
<stop offset="0.823421" stop-color="#576265"/>
<stop offset="0.925155" stop-color="#757A7B"/>
<stop offset="1" stop-color="#576265"/>
</linearGradient>
<linearGradient id="paint3_linear_68_131" x1="8.16255" y1="10.7188" x2="5.08343" y2="2.68313" gradientUnits="userSpaceOnUse">
<stop stop-color="white" stop-opacity="0"/>
<stop offset="1" stop-color="white"/>
</linearGradient>
<linearGradient id="paint4_linear_68_131" x1="2.85591" y1="12.6552" x2="17.2533" y2="9.28257" gradientUnits="userSpaceOnUse">
<stop stop-color="#576265"/>
<stop offset="0.172016" stop-color="#9EA1A1"/>
<stop offset="0.45741" stop-color="#848B8A"/>
<stop offset="0.553567" stop-color="#576265"/>
<stop offset="0.823421" stop-color="#576265"/>
<stop offset="0.925155" stop-color="#757A7B"/>
<stop offset="1" stop-color="#576265"/>
</linearGradient>
<linearGradient id="paint5_linear_68_131" x1="8.16255" y1="10.7188" x2="5.08343" y2="2.68313" gradientUnits="userSpaceOnUse">
<stop stop-color="white" stop-opacity="0"/>
<stop offset="1" stop-color="white"/>
</linearGradient>
</defs>
</svg>
