<svg width="1126" height="69" viewBox="0 0 1126 69" fill="none" xmlns="http://www.w3.org/2000/svg">
<line x1="554.851" y1="35.8046" x2="1078.77" y2="35.8046" stroke="url(#paint0_linear_73_152)"/>
<line x1="554.851" y1="35.8046" x2="1078.77" y2="35.8046" stroke="url(#paint1_linear_73_152)" style="mix-blend-mode:overlay"/>
<line x1="554.851" y1="35.8046" x2="1078.77" y2="35.8046" stroke="#C1A875" style="mix-blend-mode:color"/>
<path d="M1058.4 32.8041C1057.89 33.9876 1057.89 34.7118 1058.4 35.8953C1060.16 39.9653 1075.14 38.0489 1084.41 36.4367C1075.69 39.9539 1061.95 46.2251 1062.6 50.6112C1062.79 51.8867 1063.17 52.502 1064.23 53.2377C1067.57 55.5551 1077.68 47.7562 1084.75 41.6206C1078.91 48.9374 1071.52 59.3563 1073.97 62.5952C1074.75 63.6234 1075.38 63.98 1076.67 64.1174C1080.81 64.5619 1086.11 52.2111 1089.36 43.3695C1087.83 52.6624 1086.36 66.0213 1090.19 67.6772C1091.37 68.189 1092.09 68.189 1093.28 67.6772C1097.11 66.0213 1095.64 52.6624 1094.11 43.3695C1097.35 52.2111 1102.65 64.5619 1106.8 64.1174C1108.08 63.98 1108.71 63.6234 1109.49 62.5952C1111.94 59.3564 1104.56 48.9375 1098.71 41.6208C1105.79 47.7563 1115.9 55.5551 1119.23 53.2377C1120.29 52.502 1120.67 51.8867 1120.86 50.6113C1121.51 46.2251 1107.78 39.9539 1099.05 36.4366C1108.32 38.0489 1123.3 39.9653 1125.06 35.8953C1125.57 34.7118 1125.57 33.9876 1125.06 32.8041C1123.3 28.7339 1108.32 30.6506 1099.05 32.2629C1107.78 28.7457 1121.51 22.4742 1120.86 18.0878C1120.67 16.8124 1120.29 16.1971 1119.23 15.4614C1115.9 13.144 1105.79 20.9428 1098.71 27.0783C1104.56 19.7616 1111.94 9.34273 1109.49 6.10391C1108.71 5.07571 1108.08 4.71909 1106.8 4.58171C1102.65 4.13721 1097.35 16.488 1094.11 25.3295C1095.64 16.0366 1097.11 2.67789 1093.28 1.022C1092.09 0.510234 1091.37 0.510234 1090.19 1.022C1086.36 2.67788 1087.83 16.0366 1089.36 25.3295C1086.11 16.488 1080.81 4.13722 1076.67 4.58172C1075.38 4.7191 1074.75 5.07572 1073.97 6.10392C1071.52 9.34276 1078.91 19.7617 1084.75 27.0785C1077.68 20.9429 1067.57 13.144 1064.23 15.4614C1063.17 16.1971 1062.79 16.8124 1062.6 18.0879C1061.95 22.4742 1075.69 28.7456 1084.41 32.2628C1075.14 30.6505 1060.16 28.7339 1058.4 32.8041Z" fill="url(#paint2_linear_73_152)"/>
<path d="M1058.4 32.8041C1057.89 33.9876 1057.89 34.7118 1058.4 35.8953C1060.16 39.9653 1075.14 38.0489 1084.41 36.4367C1075.69 39.9539 1061.95 46.2251 1062.6 50.6112C1062.79 51.8867 1063.17 52.502 1064.23 53.2377C1067.57 55.5551 1077.68 47.7562 1084.75 41.6206C1078.91 48.9374 1071.52 59.3563 1073.97 62.5952C1074.75 63.6234 1075.38 63.98 1076.67 64.1174C1080.81 64.5619 1086.11 52.2111 1089.36 43.3695C1087.83 52.6624 1086.36 66.0213 1090.19 67.6772C1091.37 68.189 1092.09 68.189 1093.28 67.6772C1097.11 66.0213 1095.64 52.6624 1094.11 43.3695C1097.35 52.2111 1102.65 64.5619 1106.8 64.1174C1108.08 63.98 1108.71 63.6234 1109.49 62.5952C1111.94 59.3564 1104.56 48.9375 1098.71 41.6208C1105.79 47.7563 1115.9 55.5551 1119.23 53.2377C1120.29 52.502 1120.67 51.8867 1120.86 50.6113C1121.51 46.2251 1107.78 39.9539 1099.05 36.4366C1108.32 38.0489 1123.3 39.9653 1125.06 35.8953C1125.57 34.7118 1125.57 33.9876 1125.06 32.8041C1123.3 28.7339 1108.32 30.6506 1099.05 32.2629C1107.78 28.7457 1121.51 22.4742 1120.86 18.0878C1120.67 16.8124 1120.29 16.1971 1119.23 15.4614C1115.9 13.144 1105.79 20.9428 1098.71 27.0783C1104.56 19.7616 1111.94 9.34273 1109.49 6.10391C1108.71 5.07571 1108.08 4.71909 1106.8 4.58171C1102.65 4.13721 1097.35 16.488 1094.11 25.3295C1095.64 16.0366 1097.11 2.67789 1093.28 1.022C1092.09 0.510234 1091.37 0.510234 1090.19 1.022C1086.36 2.67788 1087.83 16.0366 1089.36 25.3295C1086.11 16.488 1080.81 4.13722 1076.67 4.58172C1075.38 4.7191 1074.75 5.07572 1073.97 6.10392C1071.52 9.34276 1078.91 19.7617 1084.75 27.0785C1077.68 20.9429 1067.57 13.144 1064.23 15.4614C1063.17 16.1971 1062.79 16.8124 1062.6 18.0879C1061.95 22.4742 1075.69 28.7456 1084.41 32.2628C1075.14 30.6505 1060.16 28.7339 1058.4 32.8041Z" fill="url(#paint3_linear_73_152)" style="mix-blend-mode:overlay"/>
<path d="M1058.4 32.8041C1057.89 33.9876 1057.89 34.7118 1058.4 35.8953C1060.16 39.9653 1075.14 38.0489 1084.41 36.4367C1075.69 39.9539 1061.95 46.2251 1062.6 50.6112C1062.79 51.8867 1063.17 52.502 1064.23 53.2377C1067.57 55.5551 1077.68 47.7562 1084.75 41.6206C1078.91 48.9374 1071.52 59.3563 1073.97 62.5952C1074.75 63.6234 1075.38 63.98 1076.67 64.1174C1080.81 64.5619 1086.11 52.2111 1089.36 43.3695C1087.83 52.6624 1086.36 66.0213 1090.19 67.6772C1091.37 68.189 1092.09 68.189 1093.28 67.6772C1097.11 66.0213 1095.64 52.6624 1094.11 43.3695C1097.35 52.2111 1102.65 64.5619 1106.8 64.1174C1108.08 63.98 1108.71 63.6234 1109.49 62.5952C1111.94 59.3564 1104.56 48.9375 1098.71 41.6208C1105.79 47.7563 1115.9 55.5551 1119.23 53.2377C1120.29 52.502 1120.67 51.8867 1120.86 50.6113C1121.51 46.2251 1107.78 39.9539 1099.05 36.4366C1108.32 38.0489 1123.3 39.9653 1125.06 35.8953C1125.57 34.7118 1125.57 33.9876 1125.06 32.8041C1123.3 28.7339 1108.32 30.6506 1099.05 32.2629C1107.78 28.7457 1121.51 22.4742 1120.86 18.0878C1120.67 16.8124 1120.29 16.1971 1119.23 15.4614C1115.9 13.144 1105.79 20.9428 1098.71 27.0783C1104.56 19.7616 1111.94 9.34273 1109.49 6.10391C1108.71 5.07571 1108.08 4.71909 1106.8 4.58171C1102.65 4.13721 1097.35 16.488 1094.11 25.3295C1095.64 16.0366 1097.11 2.67789 1093.28 1.022C1092.09 0.510234 1091.37 0.510234 1090.19 1.022C1086.36 2.67788 1087.83 16.0366 1089.36 25.3295C1086.11 16.488 1080.81 4.13722 1076.67 4.58172C1075.38 4.7191 1074.75 5.07572 1073.97 6.10392C1071.52 9.34276 1078.91 19.7617 1084.75 27.0785C1077.68 20.9429 1067.57 13.144 1064.23 15.4614C1063.17 16.1971 1062.79 16.8124 1062.6 18.0879C1061.95 22.4742 1075.69 28.7456 1084.41 32.2628C1075.14 30.6505 1060.16 28.7339 1058.4 32.8041Z" fill="#C1A875" style="mix-blend-mode:color"/>
<line x1="10.2816" y1="35.1665" x2="534.196" y2="35.1665" stroke="url(#paint4_linear_73_152)"/>
<line x1="10.2816" y1="35.1665" x2="534.196" y2="35.1665" stroke="url(#paint5_linear_73_152)" style="mix-blend-mode:overlay"/>
<line x1="10.2816" y1="35.1665" x2="534.196" y2="35.1665" stroke="#C1A875" style="mix-blend-mode:color"/>
<path d="M513.835 32.1659C513.323 33.3494 513.323 34.0736 513.835 35.2571C515.595 39.3271 530.575 37.4107 539.842 35.7985C531.118 39.3158 517.38 45.5869 518.03 49.9731C518.22 51.2485 518.602 51.8638 519.661 52.5995C522.996 54.9169 533.107 47.118 540.181 40.9824C534.337 48.2992 526.955 58.7182 529.406 61.957C530.184 62.9852 530.814 63.3418 532.096 63.4792C536.244 63.9237 541.543 51.5729 544.788 42.7313C543.258 52.0242 541.787 65.3831 545.617 67.039C546.8 67.5508 547.525 67.5508 548.708 67.039C552.537 65.3831 551.067 52.0242 549.537 42.7313C552.782 51.5729 558.081 63.9237 562.229 63.4792C563.511 63.3418 564.141 62.9852 564.919 61.957C567.37 58.7182 559.988 48.2993 554.144 40.9826C561.218 47.1181 571.329 54.917 574.664 52.5996C575.723 51.8639 576.105 51.2485 576.295 49.9731C576.945 45.5869 563.207 39.3157 554.483 35.7984C563.75 37.4107 578.73 39.3271 580.49 35.2571C581.002 34.0736 581.002 33.3494 580.49 32.1659C578.73 28.0957 563.749 30.0124 554.482 31.6247C563.206 28.1075 576.945 21.836 576.295 17.4496C576.105 16.1742 575.723 15.5589 574.664 14.8232C571.329 12.5058 561.218 20.3046 554.144 26.4401C559.988 19.1234 567.37 8.70455 564.919 5.46573C564.141 4.43753 563.511 4.0809 562.229 3.94352C558.081 3.49902 552.782 15.8498 549.537 24.6913C551.067 15.3984 552.537 2.03971 548.708 0.383813C547.525 -0.127949 546.8 -0.127949 545.617 0.383813C541.788 2.0397 543.258 15.3984 544.788 24.6913C541.543 15.8498 536.244 3.49904 532.096 3.94354C530.814 4.08091 530.184 4.43753 529.406 5.46573C526.955 8.70457 534.337 19.1236 540.181 26.4403C533.107 20.3047 522.996 12.5058 519.661 14.8232C518.602 15.5589 518.22 16.1742 518.03 17.4497C517.379 21.836 531.119 28.1074 539.843 31.6246C530.576 30.0124 515.595 28.0957 513.835 32.1659Z" fill="url(#paint6_linear_73_152)"/>
<path d="M513.835 32.1659C513.323 33.3494 513.323 34.0736 513.835 35.2571C515.595 39.3271 530.575 37.4107 539.842 35.7985C531.118 39.3158 517.38 45.5869 518.03 49.9731C518.22 51.2485 518.602 51.8638 519.661 52.5995C522.996 54.9169 533.107 47.118 540.181 40.9824C534.337 48.2992 526.955 58.7182 529.406 61.957C530.184 62.9852 530.814 63.3418 532.096 63.4792C536.244 63.9237 541.543 51.5729 544.788 42.7313C543.258 52.0242 541.787 65.3831 545.617 67.039C546.8 67.5508 547.525 67.5508 548.708 67.039C552.537 65.3831 551.067 52.0242 549.537 42.7313C552.782 51.5729 558.081 63.9237 562.229 63.4792C563.511 63.3418 564.141 62.9852 564.919 61.957C567.37 58.7182 559.988 48.2993 554.144 40.9826C561.218 47.1181 571.329 54.917 574.664 52.5996C575.723 51.8639 576.105 51.2485 576.295 49.9731C576.945 45.5869 563.207 39.3157 554.483 35.7984C563.75 37.4107 578.73 39.3271 580.49 35.2571C581.002 34.0736 581.002 33.3494 580.49 32.1659C578.73 28.0957 563.749 30.0124 554.482 31.6247C563.206 28.1075 576.945 21.836 576.295 17.4496C576.105 16.1742 575.723 15.5589 574.664 14.8232C571.329 12.5058 561.218 20.3046 554.144 26.4401C559.988 19.1234 567.37 8.70455 564.919 5.46573C564.141 4.43753 563.511 4.0809 562.229 3.94352C558.081 3.49902 552.782 15.8498 549.537 24.6913C551.067 15.3984 552.537 2.03971 548.708 0.383813C547.525 -0.127949 546.8 -0.127949 545.617 0.383813C541.788 2.0397 543.258 15.3984 544.788 24.6913C541.543 15.8498 536.244 3.49904 532.096 3.94354C530.814 4.08091 530.184 4.43753 529.406 5.46573C526.955 8.70457 534.337 19.1236 540.181 26.4403C533.107 20.3047 522.996 12.5058 519.661 14.8232C518.602 15.5589 518.22 16.1742 518.03 17.4497C517.379 21.836 531.119 28.1074 539.843 31.6246C530.576 30.0124 515.595 28.0957 513.835 32.1659Z" fill="url(#paint7_linear_73_152)" style="mix-blend-mode:overlay"/>
<path d="M513.835 32.1659C513.323 33.3494 513.323 34.0736 513.835 35.2571C515.595 39.3271 530.575 37.4107 539.842 35.7985C531.118 39.3158 517.38 45.5869 518.03 49.9731C518.22 51.2485 518.602 51.8638 519.661 52.5995C522.996 54.9169 533.107 47.118 540.181 40.9824C534.337 48.2992 526.955 58.7182 529.406 61.957C530.184 62.9852 530.814 63.3418 532.096 63.4792C536.244 63.9237 541.543 51.5729 544.788 42.7313C543.258 52.0242 541.787 65.3831 545.617 67.039C546.8 67.5508 547.525 67.5508 548.708 67.039C552.537 65.3831 551.067 52.0242 549.537 42.7313C552.782 51.5729 558.081 63.9237 562.229 63.4792C563.511 63.3418 564.141 62.9852 564.919 61.957C567.37 58.7182 559.988 48.2993 554.144 40.9826C561.218 47.1181 571.329 54.917 574.664 52.5996C575.723 51.8639 576.105 51.2485 576.295 49.9731C576.945 45.5869 563.207 39.3157 554.483 35.7984C563.75 37.4107 578.73 39.3271 580.49 35.2571C581.002 34.0736 581.002 33.3494 580.49 32.1659C578.73 28.0957 563.749 30.0124 554.482 31.6247C563.206 28.1075 576.945 21.836 576.295 17.4496C576.105 16.1742 575.723 15.5589 574.664 14.8232C571.329 12.5058 561.218 20.3046 554.144 26.4401C559.988 19.1234 567.37 8.70455 564.919 5.46573C564.141 4.43753 563.511 4.0809 562.229 3.94352C558.081 3.49902 552.782 15.8498 549.537 24.6913C551.067 15.3984 552.537 2.03971 548.708 0.383813C547.525 -0.127949 546.8 -0.127949 545.617 0.383813C541.788 2.0397 543.258 15.3984 544.788 24.6913C541.543 15.8498 536.244 3.49904 532.096 3.94354C530.814 4.08091 530.184 4.43753 529.406 5.46573C526.955 8.70457 534.337 19.1236 540.181 26.4403C533.107 20.3047 522.996 12.5058 519.661 14.8232C518.602 15.5589 518.22 16.1742 518.03 17.4497C517.379 21.836 531.119 28.1074 539.843 31.6246C530.576 30.0124 515.595 28.0957 513.835 32.1659Z" fill="#C1A875" style="mix-blend-mode:color"/>
<path d="M0.383823 32.1659C-0.127941 33.3494 -0.127941 34.0736 0.383823 35.2571C2.14377 39.3271 17.1235 37.4107 26.391 35.7985C17.6666 39.3158 3.92847 45.5869 4.57939 49.9731C4.76867 51.2485 5.15057 51.8638 6.20949 52.5995C9.5451 54.9169 19.656 47.118 26.7296 40.9824C20.8861 48.2992 13.5038 58.7182 15.9546 61.957C16.7327 62.9852 17.363 63.3418 18.645 63.4792C22.7934 63.9237 28.0922 51.5729 31.3366 42.7313C29.8065 52.0242 28.3364 65.3831 32.1658 67.039C33.3493 67.5508 34.0735 67.5508 35.257 67.039C39.0864 65.3831 37.6163 52.0242 36.0862 42.7313C39.3306 51.5729 44.6295 63.9237 48.7778 63.4792C50.0599 63.3418 50.6902 62.9852 51.4682 61.957C53.9191 58.7182 46.5369 48.2993 40.6934 40.9826C47.767 47.1181 57.8778 54.917 61.2134 52.5996C62.2723 51.8639 62.6542 51.2485 62.8435 49.9731C63.4944 45.5869 49.7561 39.3157 41.0316 35.7984C50.2992 37.4107 65.2791 39.3271 67.039 35.2571C67.5508 34.0736 67.5508 33.3494 67.039 32.1659C65.279 28.0957 50.2981 30.0124 41.0307 31.6247C49.7551 28.1075 63.4944 21.836 62.8435 17.4496C62.6542 16.1742 62.2723 15.5589 61.2134 14.8232C57.8778 12.5058 47.767 20.3046 40.6934 26.4401C46.5369 19.1234 53.9191 8.70455 51.4682 5.46573C50.6902 4.43753 50.0599 4.0809 48.7778 3.94352C44.6295 3.49902 39.3307 15.8498 36.0863 24.6913C37.6163 15.3984 39.0864 2.03971 35.257 0.383813C34.0735 -0.127949 33.3493 -0.127949 32.1658 0.383813C28.3365 2.0397 29.8065 15.3984 31.3366 24.6913C28.0922 15.8498 22.7934 3.49904 18.645 3.94354C17.363 4.08091 16.7327 4.43753 15.9546 5.46573C13.5038 8.70457 20.8861 19.1236 26.7296 26.4403C19.656 20.3047 9.5451 12.5058 6.20949 14.8232C5.15057 15.5589 4.76867 16.1742 4.57939 17.4497C3.92844 21.836 17.6676 28.1074 26.392 31.6246C17.1245 30.0124 2.14383 28.0957 0.383823 32.1659Z" fill="url(#paint8_linear_73_152)"/>
<path d="M0.383823 32.1659C-0.127941 33.3494 -0.127941 34.0736 0.383823 35.2571C2.14377 39.3271 17.1235 37.4107 26.391 35.7985C17.6666 39.3158 3.92847 45.5869 4.57939 49.9731C4.76867 51.2485 5.15057 51.8638 6.20949 52.5995C9.5451 54.9169 19.656 47.118 26.7296 40.9824C20.8861 48.2992 13.5038 58.7182 15.9546 61.957C16.7327 62.9852 17.363 63.3418 18.645 63.4792C22.7934 63.9237 28.0922 51.5729 31.3366 42.7313C29.8065 52.0242 28.3364 65.3831 32.1658 67.039C33.3493 67.5508 34.0735 67.5508 35.257 67.039C39.0864 65.3831 37.6163 52.0242 36.0862 42.7313C39.3306 51.5729 44.6295 63.9237 48.7778 63.4792C50.0599 63.3418 50.6902 62.9852 51.4682 61.957C53.9191 58.7182 46.5369 48.2993 40.6934 40.9826C47.767 47.1181 57.8778 54.917 61.2134 52.5996C62.2723 51.8639 62.6542 51.2485 62.8435 49.9731C63.4944 45.5869 49.7561 39.3157 41.0316 35.7984C50.2992 37.4107 65.2791 39.3271 67.039 35.2571C67.5508 34.0736 67.5508 33.3494 67.039 32.1659C65.279 28.0957 50.2981 30.0124 41.0307 31.6247C49.7551 28.1075 63.4944 21.836 62.8435 17.4496C62.6542 16.1742 62.2723 15.5589 61.2134 14.8232C57.8778 12.5058 47.767 20.3046 40.6934 26.4401C46.5369 19.1234 53.9191 8.70455 51.4682 5.46573C50.6902 4.43753 50.0599 4.0809 48.7778 3.94352C44.6295 3.49902 39.3307 15.8498 36.0863 24.6913C37.6163 15.3984 39.0864 2.03971 35.257 0.383813C34.0735 -0.127949 33.3493 -0.127949 32.1658 0.383813C28.3365 2.0397 29.8065 15.3984 31.3366 24.6913C28.0922 15.8498 22.7934 3.49904 18.645 3.94354C17.363 4.08091 16.7327 4.43753 15.9546 5.46573C13.5038 8.70457 20.8861 19.1236 26.7296 26.4403C19.656 20.3047 9.5451 12.5058 6.20949 14.8232C5.15057 15.5589 4.76867 16.1742 4.57939 17.4497C3.92844 21.836 17.6676 28.1074 26.392 31.6246C17.1245 30.0124 2.14383 28.0957 0.383823 32.1659Z" fill="url(#paint9_linear_73_152)" style="mix-blend-mode:overlay"/>
<path d="M0.383823 32.1659C-0.127941 33.3494 -0.127941 34.0736 0.383823 35.2571C2.14377 39.3271 17.1235 37.4107 26.391 35.7985C17.6666 39.3158 3.92847 45.5869 4.57939 49.9731C4.76867 51.2485 5.15057 51.8638 6.20949 52.5995C9.5451 54.9169 19.656 47.118 26.7296 40.9824C20.8861 48.2992 13.5038 58.7182 15.9546 61.957C16.7327 62.9852 17.363 63.3418 18.645 63.4792C22.7934 63.9237 28.0922 51.5729 31.3366 42.7313C29.8065 52.0242 28.3364 65.3831 32.1658 67.039C33.3493 67.5508 34.0735 67.5508 35.257 67.039C39.0864 65.3831 37.6163 52.0242 36.0862 42.7313C39.3306 51.5729 44.6295 63.9237 48.7778 63.4792C50.0599 63.3418 50.6902 62.9852 51.4682 61.957C53.9191 58.7182 46.5369 48.2993 40.6934 40.9826C47.767 47.1181 57.8778 54.917 61.2134 52.5996C62.2723 51.8639 62.6542 51.2485 62.8435 49.9731C63.4944 45.5869 49.7561 39.3157 41.0316 35.7984C50.2992 37.4107 65.2791 39.3271 67.039 35.2571C67.5508 34.0736 67.5508 33.3494 67.039 32.1659C65.279 28.0957 50.2981 30.0124 41.0307 31.6247C49.7551 28.1075 63.4944 21.836 62.8435 17.4496C62.6542 16.1742 62.2723 15.5589 61.2134 14.8232C57.8778 12.5058 47.767 20.3046 40.6934 26.4401C46.5369 19.1234 53.9191 8.70455 51.4682 5.46573C50.6902 4.43753 50.0599 4.0809 48.7778 3.94352C44.6295 3.49902 39.3307 15.8498 36.0863 24.6913C37.6163 15.3984 39.0864 2.03971 35.257 0.383813C34.0735 -0.127949 33.3493 -0.127949 32.1658 0.383813C28.3365 2.0397 29.8065 15.3984 31.3366 24.6913C28.0922 15.8498 22.7934 3.49904 18.645 3.94354C17.363 4.08091 16.7327 4.43753 15.9546 5.46573C13.5038 8.70457 20.8861 19.1236 26.7296 26.4403C19.656 20.3047 9.5451 12.5058 6.20949 14.8232C5.15057 15.5589 4.76867 16.1742 4.57939 17.4497C3.92844 21.836 17.6676 28.1074 26.392 31.6246C17.1245 30.0124 2.14383 28.0957 0.383823 32.1659Z" fill="#C1A875" style="mix-blend-mode:color"/>
<defs>
<linearGradient id="paint0_linear_73_152" x1="583.899" y1="36.93" x2="583.933" y2="32.7305" gradientUnits="userSpaceOnUse">
<stop stop-color="#576265"/>
<stop offset="0.172016" stop-color="#9EA1A1"/>
<stop offset="0.45741" stop-color="#848B8A"/>
<stop offset="0.553567" stop-color="#576265"/>
<stop offset="0.823421" stop-color="#576265"/>
<stop offset="0.925155" stop-color="#757A7B"/>
<stop offset="1" stop-color="#576265"/>
</linearGradient>
<linearGradient id="paint1_linear_73_152" x1="763.994" y1="36.8046" x2="763.994" y2="36.2076" gradientUnits="userSpaceOnUse">
<stop stop-color="white" stop-opacity="0"/>
<stop offset="1" stop-color="white"/>
</linearGradient>
<linearGradient id="paint2_linear_73_152" x1="1100.19" y1="64.3229" x2="1085.46" y2="1.44253" gradientUnits="userSpaceOnUse">
<stop stop-color="#576265"/>
<stop offset="0.172016" stop-color="#9EA1A1"/>
<stop offset="0.45741" stop-color="#848B8A"/>
<stop offset="0.553567" stop-color="#576265"/>
<stop offset="0.823421" stop-color="#576265"/>
<stop offset="0.925155" stop-color="#757A7B"/>
<stop offset="1" stop-color="#576265"/>
</linearGradient>
<linearGradient id="paint3_linear_73_152" x1="1091.73" y1="41.1463" x2="1056.64" y2="54.5942" gradientUnits="userSpaceOnUse">
<stop stop-color="white" stop-opacity="0"/>
<stop offset="1" stop-color="white"/>
</linearGradient>
<linearGradient id="paint4_linear_73_152" x1="39.3293" y1="36.2919" x2="39.3635" y2="32.0925" gradientUnits="userSpaceOnUse">
<stop stop-color="#576265"/>
<stop offset="0.172016" stop-color="#9EA1A1"/>
<stop offset="0.45741" stop-color="#848B8A"/>
<stop offset="0.553567" stop-color="#576265"/>
<stop offset="0.823421" stop-color="#576265"/>
<stop offset="0.925155" stop-color="#757A7B"/>
<stop offset="1" stop-color="#576265"/>
</linearGradient>
<linearGradient id="paint5_linear_73_152" x1="219.425" y1="36.1665" x2="219.424" y2="35.5695" gradientUnits="userSpaceOnUse">
<stop stop-color="white" stop-opacity="0"/>
<stop offset="1" stop-color="white"/>
</linearGradient>
<linearGradient id="paint6_linear_73_152" x1="555.62" y1="63.6847" x2="540.89" y2="0.804344" gradientUnits="userSpaceOnUse">
<stop stop-color="#576265"/>
<stop offset="0.172016" stop-color="#9EA1A1"/>
<stop offset="0.45741" stop-color="#848B8A"/>
<stop offset="0.553567" stop-color="#576265"/>
<stop offset="0.823421" stop-color="#576265"/>
<stop offset="0.925155" stop-color="#757A7B"/>
<stop offset="1" stop-color="#576265"/>
</linearGradient>
<linearGradient id="paint7_linear_73_152" x1="547.162" y1="40.5081" x2="512.067" y2="53.956" gradientUnits="userSpaceOnUse">
<stop stop-color="white" stop-opacity="0"/>
<stop offset="1" stop-color="white"/>
</linearGradient>
<linearGradient id="paint8_linear_73_152" x1="42.1689" y1="63.6847" x2="27.4389" y2="0.804344" gradientUnits="userSpaceOnUse">
<stop stop-color="#576265"/>
<stop offset="0.172016" stop-color="#9EA1A1"/>
<stop offset="0.45741" stop-color="#848B8A"/>
<stop offset="0.553567" stop-color="#576265"/>
<stop offset="0.823421" stop-color="#576265"/>
<stop offset="0.925155" stop-color="#757A7B"/>
<stop offset="1" stop-color="#576265"/>
</linearGradient>
<linearGradient id="paint9_linear_73_152" x1="33.7114" y1="40.5081" x2="-1.38393" y2="53.956" gradientUnits="userSpaceOnUse">
<stop stop-color="white" stop-opacity="0"/>
<stop offset="1" stop-color="white"/>
</linearGradient>
</defs>
</svg>
