<svg width="1442" height="60" viewBox="0 0 1442 60" fill="none" xmlns="http://www.w3.org/2000/svg">
<line x1="724.72" y1="29.9261" x2="1409.03" y2="29.9261" stroke="url(#paint0_linear_73_152)"/>
<line x1="724.72" y1="29.9261" x2="1409.03" y2="29.9261" stroke="url(#paint1_linear_73_152)" style="mix-blend-mode:overlay"/>
<line x1="724.72" y1="29.9261" x2="1409.03" y2="29.9261" stroke="#C1A875" style="mix-blend-mode:color"/>
<path d="M1382.34 28.6246C1381.89 29.6778 1381.89 30.3223 1382.34 31.3755C1383.91 34.9974 1397.24 33.292 1405.49 31.8573C1397.72 34.9873 1385.5 40.568 1386.08 44.4713C1386.24 45.6063 1386.58 46.1539 1387.53 46.8086C1390.49 48.8709 1399.49 41.9306 1405.79 36.4705C1400.59 42.9817 1394.02 52.2536 1396.2 55.1359C1396.89 56.0509 1397.45 56.3683 1398.59 56.4905C1402.28 56.8861 1407 45.895 1409.89 38.0269C1408.53 46.2967 1407.22 58.1848 1410.62 59.6584C1411.68 60.1139 1412.32 60.1139 1413.38 59.6584C1416.78 58.1848 1415.47 46.2967 1414.11 38.0269C1417 45.895 1421.72 56.8861 1425.41 56.4905C1426.55 56.3683 1427.11 56.0509 1427.8 55.1359C1429.98 52.2537 1423.41 42.9819 1418.21 36.4706C1424.51 41.9307 1433.51 48.8709 1436.47 46.8087C1437.42 46.154 1437.76 45.6064 1437.92 44.4714C1438.5 40.5681 1426.28 34.9873 1418.51 31.8572C1426.76 33.292 1440.09 34.9974 1441.66 31.3755C1442.11 30.3223 1442.11 29.6778 1441.66 28.6246C1440.09 25.0025 1426.76 26.7082 1418.51 28.143C1426.28 25.013 1438.5 19.432 1437.92 15.5285C1437.76 14.3935 1437.42 13.8459 1436.47 13.1912C1433.51 11.129 1424.51 18.0692 1418.21 23.5292C1423.41 17.018 1429.98 7.74623 1427.8 4.86399C1427.11 3.94899 1426.55 3.63162 1425.41 3.50937C1421.72 3.11381 1417 14.1048 1414.11 21.973C1415.48 13.7032 1416.78 1.81515 1413.38 0.341563C1412.32 -0.113857 1411.68 -0.113857 1410.62 0.341563C1407.22 1.81515 1408.52 13.7032 1409.89 21.9729C1407 14.1048 1402.28 3.11382 1398.59 3.50938C1397.45 3.63164 1396.89 3.94899 1396.2 4.86399C1394.02 7.74626 1400.59 17.0182 1405.79 23.5294C1399.49 18.0693 1390.49 11.129 1387.53 13.1913C1386.58 13.846 1386.24 14.3936 1386.08 15.5286C1385.5 19.432 1397.72 25.013 1405.49 28.143C1397.24 26.7082 1383.91 25.0026 1382.34 28.6246Z" fill="url(#paint2_linear_73_152)"/>
<path d="M1382.34 28.6246C1381.89 29.6778 1381.89 30.3223 1382.34 31.3755C1383.91 34.9974 1397.24 33.292 1405.49 31.8573C1397.72 34.9873 1385.5 40.568 1386.08 44.4713C1386.24 45.6063 1386.58 46.1539 1387.53 46.8086C1390.49 48.8709 1399.49 41.9306 1405.79 36.4705C1400.59 42.9817 1394.02 52.2536 1396.2 55.1359C1396.89 56.0509 1397.45 56.3683 1398.59 56.4905C1402.28 56.8861 1407 45.895 1409.89 38.0269C1408.53 46.2967 1407.22 58.1848 1410.62 59.6584C1411.68 60.1139 1412.32 60.1139 1413.38 59.6584C1416.78 58.1848 1415.47 46.2967 1414.11 38.0269C1417 45.895 1421.72 56.8861 1425.41 56.4905C1426.55 56.3683 1427.11 56.0509 1427.8 55.1359C1429.98 52.2537 1423.41 42.9819 1418.21 36.4706C1424.51 41.9307 1433.51 48.8709 1436.47 46.8087C1437.42 46.154 1437.76 45.6064 1437.92 44.4714C1438.5 40.5681 1426.28 34.9873 1418.51 31.8572C1426.76 33.292 1440.09 34.9974 1441.66 31.3755C1442.11 30.3223 1442.11 29.6778 1441.66 28.6246C1440.09 25.0025 1426.76 26.7082 1418.51 28.143C1426.28 25.013 1438.5 19.432 1437.92 15.5285C1437.76 14.3935 1437.42 13.8459 1436.47 13.1912C1433.51 11.129 1424.51 18.0692 1418.21 23.5292C1423.41 17.018 1429.98 7.74623 1427.8 4.86399C1427.11 3.94899 1426.55 3.63162 1425.41 3.50937C1421.72 3.11381 1417 14.1048 1414.11 21.973C1415.48 13.7032 1416.78 1.81515 1413.38 0.341563C1412.32 -0.113857 1411.68 -0.113857 1410.62 0.341563C1407.22 1.81515 1408.52 13.7032 1409.89 21.9729C1407 14.1048 1402.28 3.11382 1398.59 3.50938C1397.45 3.63164 1396.89 3.94899 1396.2 4.86399C1394.02 7.74626 1400.59 17.0182 1405.79 23.5294C1399.49 18.0693 1390.49 11.129 1387.53 13.1913C1386.58 13.846 1386.24 14.3936 1386.08 15.5286C1385.5 19.432 1397.72 25.013 1405.49 28.143C1397.24 26.7082 1383.91 25.0026 1382.34 28.6246Z" fill="url(#paint3_linear_73_152)" style="mix-blend-mode:overlay"/>
<path d="M1382.34 28.6246C1381.89 29.6778 1381.89 30.3223 1382.34 31.3755C1383.91 34.9974 1397.24 33.292 1405.49 31.8573C1397.72 34.9873 1385.5 40.568 1386.08 44.4713C1386.24 45.6063 1386.58 46.1539 1387.53 46.8086C1390.49 48.8709 1399.49 41.9306 1405.79 36.4705C1400.59 42.9817 1394.02 52.2536 1396.2 55.1359C1396.89 56.0509 1397.45 56.3683 1398.59 56.4905C1402.28 56.8861 1407 45.895 1409.89 38.0269C1408.53 46.2967 1407.22 58.1848 1410.62 59.6584C1411.68 60.1139 1412.32 60.1139 1413.38 59.6584C1416.78 58.1848 1415.47 46.2967 1414.11 38.0269C1417 45.895 1421.72 56.8861 1425.41 56.4905C1426.55 56.3683 1427.11 56.0509 1427.8 55.1359C1429.98 52.2537 1423.41 42.9819 1418.21 36.4706C1424.51 41.9307 1433.51 48.8709 1436.47 46.8087C1437.42 46.154 1437.76 45.6064 1437.92 44.4714C1438.5 40.5681 1426.28 34.9873 1418.51 31.8572C1426.76 33.292 1440.09 34.9974 1441.66 31.3755C1442.11 30.3223 1442.11 29.6778 1441.66 28.6246C1440.09 25.0025 1426.76 26.7082 1418.51 28.143C1426.28 25.013 1438.5 19.432 1437.92 15.5285C1437.76 14.3935 1437.42 13.8459 1436.47 13.1912C1433.51 11.129 1424.51 18.0692 1418.21 23.5292C1423.41 17.018 1429.98 7.74623 1427.8 4.86399C1427.11 3.94899 1426.55 3.63162 1425.41 3.50937C1421.72 3.11381 1417 14.1048 1414.11 21.973C1415.48 13.7032 1416.78 1.81515 1413.38 0.341563C1412.32 -0.113857 1411.68 -0.113857 1410.62 0.341563C1407.22 1.81515 1408.52 13.7032 1409.89 21.9729C1407 14.1048 1402.28 3.11382 1398.59 3.50938C1397.45 3.63164 1396.89 3.94899 1396.2 4.86399C1394.02 7.74626 1400.59 17.0182 1405.79 23.5294C1399.49 18.0693 1390.49 11.129 1387.53 13.1913C1386.58 13.846 1386.24 14.3936 1386.08 15.5286C1385.5 19.432 1397.72 25.013 1405.49 28.143C1397.24 26.7082 1383.91 25.0026 1382.34 28.6246Z" fill="#C1A875" style="mix-blend-mode:color"/>
<line x1="13.4293" y1="29.0929" x2="697.741" y2="29.0929" stroke="url(#paint4_linear_73_152)"/>
<line x1="13.4293" y1="29.0929" x2="697.741" y2="29.0929" stroke="url(#paint5_linear_73_152)" style="mix-blend-mode:overlay"/>
<line x1="13.4293" y1="29.0929" x2="697.741" y2="29.0929" stroke="#C1A875" style="mix-blend-mode:color"/>
<path d="M691.342 28.6246C690.886 29.6778 690.886 30.3223 691.342 31.3755C692.908 34.9974 706.238 33.292 714.486 31.8573C706.722 34.9873 694.496 40.568 695.075 44.4713C695.244 45.6063 695.584 46.1539 696.526 46.8086C699.494 48.8709 708.492 41.9306 714.787 36.4705C709.587 42.9817 703.017 52.2536 705.198 55.1359C705.891 56.0509 706.451 56.3683 707.592 56.4905C711.284 56.8861 715.999 45.895 718.887 38.0269C717.525 46.2967 716.217 58.1848 719.625 59.6584C720.678 60.1139 721.322 60.1139 722.375 59.6584C725.783 58.1848 724.475 46.2967 723.113 38.0269C726.001 45.895 730.716 56.8861 734.408 56.4905C735.549 56.3683 736.109 56.0509 736.802 55.1359C738.983 52.2537 732.413 42.9819 727.213 36.4706C733.508 41.9307 742.506 48.8709 745.474 46.8087C746.416 46.154 746.756 45.6064 746.925 44.4714C747.504 40.5681 735.278 34.9873 727.514 31.8572C735.762 33.292 749.092 34.9974 750.658 31.3755C751.114 30.3223 751.114 29.6778 750.658 28.6246C749.092 25.0025 735.761 26.7082 727.513 28.143C735.277 25.013 747.504 19.432 746.925 15.5285C746.756 14.3935 746.416 13.8459 745.474 13.1912C742.506 11.129 733.508 18.0692 727.213 23.5292C732.413 17.018 738.983 7.74623 736.802 4.86399C736.109 3.94899 735.549 3.63162 734.408 3.50937C730.716 3.11381 726.001 14.1048 723.113 21.973C724.475 13.7032 725.783 1.81515 722.375 0.341563C721.322 -0.113857 720.678 -0.113857 719.625 0.341563C716.217 1.81515 717.525 13.7032 718.887 21.9729C715.999 14.1048 711.284 3.11382 707.592 3.50938C706.451 3.63164 705.891 3.94899 705.198 4.86399C703.017 7.74626 709.587 17.0182 714.787 23.5294C708.492 18.0693 699.494 11.129 696.526 13.1913C695.584 13.846 695.244 14.3936 695.075 15.5286C694.496 19.432 706.722 25.013 714.486 28.143C706.239 26.7082 692.908 25.0026 691.342 28.6246Z" fill="url(#paint6_linear_73_152)"/>
<path d="M691.342 28.6246C690.886 29.6778 690.886 30.3223 691.342 31.3755C692.908 34.9974 706.238 33.292 714.486 31.8573C706.722 34.9873 694.496 40.568 695.075 44.4713C695.244 45.6063 695.584 46.1539 696.526 46.8086C699.494 48.8709 708.492 41.9306 714.787 36.4705C709.587 42.9817 703.017 52.2536 705.198 55.1359C705.891 56.0509 706.451 56.3683 707.592 56.4905C711.284 56.8861 715.999 45.895 718.887 38.0269C717.525 46.2967 716.217 58.1848 719.625 59.6584C720.678 60.1139 721.322 60.1139 722.375 59.6584C725.783 58.1848 724.475 46.2967 723.113 38.0269C726.001 45.895 730.716 56.8861 734.408 56.4905C735.549 56.3683 736.109 56.0509 736.802 55.1359C738.983 52.2537 732.413 42.9819 727.213 36.4706C733.508 41.9307 742.506 48.8709 745.474 46.8087C746.416 46.154 746.756 45.6064 746.925 44.4714C747.504 40.5681 735.278 34.9873 727.514 31.8572C735.762 33.292 749.092 34.9974 750.658 31.3755C751.114 30.3223 751.114 29.6778 750.658 28.6246C749.092 25.0025 735.761 26.7082 727.513 28.143C735.277 25.013 747.504 19.432 746.925 15.5285C746.756 14.3935 746.416 13.8459 745.474 13.1912C742.506 11.129 733.508 18.0692 727.213 23.5292C732.413 17.018 738.983 7.74623 736.802 4.86399C736.109 3.94899 735.549 3.63162 734.408 3.50937C730.716 3.11381 726.001 14.1048 723.113 21.973C724.475 13.7032 725.783 1.81515 722.375 0.341563C721.322 -0.113857 720.678 -0.113857 719.625 0.341563C716.217 1.81515 717.525 13.7032 718.887 21.9729C715.999 14.1048 711.284 3.11382 707.592 3.50938C706.451 3.63164 705.891 3.94899 705.198 4.86399C703.017 7.74626 709.587 17.0182 714.787 23.5294C708.492 18.0693 699.494 11.129 696.526 13.1913C695.584 13.846 695.244 14.3936 695.075 15.5286C694.496 19.432 706.722 25.013 714.486 28.143C706.239 26.7082 692.908 25.0026 691.342 28.6246Z" fill="url(#paint7_linear_73_152)" style="mix-blend-mode:overlay"/>
<path d="M691.342 28.6246C690.886 29.6778 690.886 30.3223 691.342 31.3755C692.908 34.9974 706.238 33.292 714.486 31.8573C706.722 34.9873 694.496 40.568 695.075 44.4713C695.244 45.6063 695.584 46.1539 696.526 46.8086C699.494 48.8709 708.492 41.9306 714.787 36.4705C709.587 42.9817 703.017 52.2536 705.198 55.1359C705.891 56.0509 706.451 56.3683 707.592 56.4905C711.284 56.8861 715.999 45.895 718.887 38.0269C717.525 46.2967 716.217 58.1848 719.625 59.6584C720.678 60.1139 721.322 60.1139 722.375 59.6584C725.783 58.1848 724.475 46.2967 723.113 38.0269C726.001 45.895 730.716 56.8861 734.408 56.4905C735.549 56.3683 736.109 56.0509 736.802 55.1359C738.983 52.2537 732.413 42.9819 727.213 36.4706C733.508 41.9307 742.506 48.8709 745.474 46.8087C746.416 46.154 746.756 45.6064 746.925 44.4714C747.504 40.5681 735.278 34.9873 727.514 31.8572C735.762 33.292 749.092 34.9974 750.658 31.3755C751.114 30.3223 751.114 29.6778 750.658 28.6246C749.092 25.0025 735.761 26.7082 727.513 28.143C735.277 25.013 747.504 19.432 746.925 15.5285C746.756 14.3935 746.416 13.8459 745.474 13.1912C742.506 11.129 733.508 18.0692 727.213 23.5292C732.413 17.018 738.983 7.74623 736.802 4.86399C736.109 3.94899 735.549 3.63162 734.408 3.50937C730.716 3.11381 726.001 14.1048 723.113 21.973C724.475 13.7032 725.783 1.81515 722.375 0.341563C721.322 -0.113857 720.678 -0.113857 719.625 0.341563C716.217 1.81515 717.525 13.7032 718.887 21.9729C715.999 14.1048 711.284 3.11382 707.592 3.50938C706.451 3.63164 705.891 3.94899 705.198 4.86399C703.017 7.74626 709.587 17.0182 714.787 23.5294C708.492 18.0693 699.494 11.129 696.526 13.1913C695.584 13.846 695.244 14.3936 695.075 15.5286C694.496 19.432 706.722 25.013 714.486 28.143C706.239 26.7082 692.908 25.0026 691.342 28.6246Z" fill="#C1A875" style="mix-blend-mode:color"/>
<path d="M0.341566 28.6246C-0.113855 29.6778 -0.113855 30.3223 0.341566 31.3755C1.90775 34.9974 15.2383 33.292 23.4855 31.8573C15.7216 34.9873 3.49596 40.568 4.07523 44.4713C4.24367 45.6063 4.58352 46.1539 5.52586 46.8086C8.49424 48.8709 17.492 41.9306 23.7868 36.4705C18.5867 42.9817 12.0171 52.2536 14.1981 55.1359C14.8905 56.0509 15.4514 56.3683 16.5923 56.4905C20.284 56.8861 24.9994 45.895 27.8866 38.0269C26.525 46.2967 25.2168 58.1848 28.6246 59.6584C29.6778 60.1139 30.3222 60.1139 31.3754 59.6584C34.7832 58.1848 33.475 46.2967 32.1134 38.0269C35.0006 45.895 39.716 56.8861 43.4077 56.4905C44.5486 56.3683 45.1095 56.0509 45.8019 55.1359C47.9829 52.2537 41.4134 42.9819 36.2133 36.4706C42.5081 41.9307 51.5058 48.8709 54.4741 46.8087C55.4165 46.154 55.7563 45.6064 55.9248 44.4714C56.504 40.5681 44.2782 34.9873 36.5143 31.8572C44.7615 33.292 58.0922 34.9974 59.6584 31.3755C60.1139 30.3223 60.1139 29.6778 59.6584 28.6246C58.0922 25.0025 44.7606 26.7082 36.5134 28.143C44.2773 25.013 56.5041 19.432 55.9248 15.5285C55.7563 14.3935 55.4165 13.8459 54.4741 13.1912C51.5058 11.129 42.5082 18.0692 36.2133 23.5292C41.4134 17.018 47.9829 7.74623 45.8019 4.86399C45.1095 3.94899 44.5486 3.63162 43.4077 3.50937C39.716 3.11381 35.0006 14.1048 32.1134 21.973C33.475 13.7032 34.7832 1.81515 31.3754 0.341563C30.3222 -0.113857 29.6778 -0.113857 28.6246 0.341563C25.2168 1.81515 26.525 13.7032 27.8866 21.9729C24.9994 14.1048 20.284 3.11382 16.5923 3.50938C15.4514 3.63164 14.8905 3.94899 14.1981 4.86399C12.0171 7.74626 18.5867 17.0182 23.7868 23.5294C17.492 18.0693 8.49424 11.129 5.52586 13.1913C4.58352 13.846 4.24367 14.3936 4.07523 15.5286C3.49594 19.432 15.7225 25.013 23.4864 28.143C15.2392 26.7082 1.9078 25.0026 0.341566 28.6246Z" fill="url(#paint8_linear_73_152)"/>
<path d="M0.341566 28.6246C-0.113855 29.6778 -0.113855 30.3223 0.341566 31.3755C1.90775 34.9974 15.2383 33.292 23.4855 31.8573C15.7216 34.9873 3.49596 40.568 4.07523 44.4713C4.24367 45.6063 4.58352 46.1539 5.52586 46.8086C8.49424 48.8709 17.492 41.9306 23.7868 36.4705C18.5867 42.9817 12.0171 52.2536 14.1981 55.1359C14.8905 56.0509 15.4514 56.3683 16.5923 56.4905C20.284 56.8861 24.9994 45.895 27.8866 38.0269C26.525 46.2967 25.2168 58.1848 28.6246 59.6584C29.6778 60.1139 30.3222 60.1139 31.3754 59.6584C34.7832 58.1848 33.475 46.2967 32.1134 38.0269C35.0006 45.895 39.716 56.8861 43.4077 56.4905C44.5486 56.3683 45.1095 56.0509 45.8019 55.1359C47.9829 52.2537 41.4134 42.9819 36.2133 36.4706C42.5081 41.9307 51.5058 48.8709 54.4741 46.8087C55.4165 46.154 55.7563 45.6064 55.9248 44.4714C56.504 40.5681 44.2782 34.9873 36.5143 31.8572C44.7615 33.292 58.0922 34.9974 59.6584 31.3755C60.1139 30.3223 60.1139 29.6778 59.6584 28.6246C58.0922 25.0025 44.7606 26.7082 36.5134 28.143C44.2773 25.013 56.5041 19.432 55.9248 15.5285C55.7563 14.3935 55.4165 13.8459 54.4741 13.1912C51.5058 11.129 42.5082 18.0692 36.2133 23.5292C41.4134 17.018 47.9829 7.74623 45.8019 4.86399C45.1095 3.94899 44.5486 3.63162 43.4077 3.50937C39.716 3.11381 35.0006 14.1048 32.1134 21.973C33.475 13.7032 34.7832 1.81515 31.3754 0.341563C30.3222 -0.113857 29.6778 -0.113857 28.6246 0.341563C25.2168 1.81515 26.525 13.7032 27.8866 21.9729C24.9994 14.1048 20.284 3.11382 16.5923 3.50938C15.4514 3.63164 14.8905 3.94899 14.1981 4.86399C12.0171 7.74626 18.5867 17.0182 23.7868 23.5294C17.492 18.0693 8.49424 11.129 5.52586 13.1913C4.58352 13.846 4.24367 14.3936 4.07523 15.5286C3.49594 19.432 15.7225 25.013 23.4864 28.143C15.2392 26.7082 1.9078 25.0026 0.341566 28.6246Z" fill="url(#paint9_linear_73_152)" style="mix-blend-mode:overlay"/>
<path d="M0.341566 28.6246C-0.113855 29.6778 -0.113855 30.3223 0.341566 31.3755C1.90775 34.9974 15.2383 33.292 23.4855 31.8573C15.7216 34.9873 3.49596 40.568 4.07523 44.4713C4.24367 45.6063 4.58352 46.1539 5.52586 46.8086C8.49424 48.8709 17.492 41.9306 23.7868 36.4705C18.5867 42.9817 12.0171 52.2536 14.1981 55.1359C14.8905 56.0509 15.4514 56.3683 16.5923 56.4905C20.284 56.8861 24.9994 45.895 27.8866 38.0269C26.525 46.2967 25.2168 58.1848 28.6246 59.6584C29.6778 60.1139 30.3222 60.1139 31.3754 59.6584C34.7832 58.1848 33.475 46.2967 32.1134 38.0269C35.0006 45.895 39.716 56.8861 43.4077 56.4905C44.5486 56.3683 45.1095 56.0509 45.8019 55.1359C47.9829 52.2537 41.4134 42.9819 36.2133 36.4706C42.5081 41.9307 51.5058 48.8709 54.4741 46.8087C55.4165 46.154 55.7563 45.6064 55.9248 44.4714C56.504 40.5681 44.2782 34.9873 36.5143 31.8572C44.7615 33.292 58.0922 34.9974 59.6584 31.3755C60.1139 30.3223 60.1139 29.6778 59.6584 28.6246C58.0922 25.0025 44.7606 26.7082 36.5134 28.143C44.2773 25.013 56.5041 19.432 55.9248 15.5285C55.7563 14.3935 55.4165 13.8459 54.4741 13.1912C51.5058 11.129 42.5082 18.0692 36.2133 23.5292C41.4134 17.018 47.9829 7.74623 45.8019 4.86399C45.1095 3.94899 44.5486 3.63162 43.4077 3.50937C39.716 3.11381 35.0006 14.1048 32.1134 21.973C33.475 13.7032 34.7832 1.81515 31.3754 0.341563C30.3222 -0.113857 29.6778 -0.113857 28.6246 0.341563C25.2168 1.81515 26.525 13.7032 27.8866 21.9729C24.9994 14.1048 20.284 3.11382 16.5923 3.50938C15.4514 3.63164 14.8905 3.94899 14.1981 4.86399C12.0171 7.74626 18.5867 17.0182 23.7868 23.5294C17.492 18.0693 8.49424 11.129 5.52586 13.1913C4.58352 13.846 4.24367 14.3936 4.07523 15.5286C3.49594 19.432 15.7225 25.013 23.4864 28.143C15.2392 26.7082 1.9078 25.0026 0.341566 28.6246Z" fill="#C1A875" style="mix-blend-mode:color"/>
<defs>
<linearGradient id="paint0_linear_73_152" x1="762.66" y1="31.0516" x2="762.687" y2="26.852" gradientUnits="userSpaceOnUse">
<stop stop-color="#576265"/>
<stop offset="0.172016" stop-color="#9EA1A1"/>
<stop offset="0.45741" stop-color="#848B8A"/>
<stop offset="0.553567" stop-color="#576265"/>
<stop offset="0.823421" stop-color="#576265"/>
<stop offset="0.925155" stop-color="#757A7B"/>
<stop offset="1" stop-color="#576265"/>
</linearGradient>
<linearGradient id="paint1_linear_73_152" x1="997.893" y1="30.9261" x2="997.892" y2="30.3292" gradientUnits="userSpaceOnUse">
<stop stop-color="white" stop-opacity="0"/>
<stop offset="1" stop-color="white"/>
</linearGradient>
<linearGradient id="paint2_linear_73_152" x1="1419.53" y1="56.6734" x2="1406.42" y2="0.715797" gradientUnits="userSpaceOnUse">
<stop stop-color="#576265"/>
<stop offset="0.172016" stop-color="#9EA1A1"/>
<stop offset="0.45741" stop-color="#848B8A"/>
<stop offset="0.553567" stop-color="#576265"/>
<stop offset="0.823421" stop-color="#576265"/>
<stop offset="0.925155" stop-color="#757A7B"/>
<stop offset="1" stop-color="#576265"/>
</linearGradient>
<linearGradient id="paint3_linear_73_152" x1="1412" y1="36.0484" x2="1380.77" y2="48.0158" gradientUnits="userSpaceOnUse">
<stop stop-color="white" stop-opacity="0"/>
<stop offset="1" stop-color="white"/>
</linearGradient>
<linearGradient id="paint4_linear_73_152" x1="51.37" y1="30.2183" x2="51.3962" y2="26.0188" gradientUnits="userSpaceOnUse">
<stop stop-color="#576265"/>
<stop offset="0.172016" stop-color="#9EA1A1"/>
<stop offset="0.45741" stop-color="#848B8A"/>
<stop offset="0.553567" stop-color="#576265"/>
<stop offset="0.823421" stop-color="#576265"/>
<stop offset="0.925155" stop-color="#757A7B"/>
<stop offset="1" stop-color="#576265"/>
</linearGradient>
<linearGradient id="paint5_linear_73_152" x1="286.602" y1="30.0929" x2="286.602" y2="29.4959" gradientUnits="userSpaceOnUse">
<stop stop-color="white" stop-opacity="0"/>
<stop offset="1" stop-color="white"/>
</linearGradient>
<linearGradient id="paint6_linear_73_152" x1="728.526" y1="56.6734" x2="715.418" y2="0.715797" gradientUnits="userSpaceOnUse">
<stop stop-color="#576265"/>
<stop offset="0.172016" stop-color="#9EA1A1"/>
<stop offset="0.45741" stop-color="#848B8A"/>
<stop offset="0.553567" stop-color="#576265"/>
<stop offset="0.823421" stop-color="#576265"/>
<stop offset="0.925155" stop-color="#757A7B"/>
<stop offset="1" stop-color="#576265"/>
</linearGradient>
<linearGradient id="paint7_linear_73_152" x1="721" y1="36.0484" x2="689.768" y2="48.0158" gradientUnits="userSpaceOnUse">
<stop stop-color="white" stop-opacity="0"/>
<stop offset="1" stop-color="white"/>
</linearGradient>
<linearGradient id="paint8_linear_73_152" x1="37.5263" y1="56.6734" x2="24.418" y2="0.715797" gradientUnits="userSpaceOnUse">
<stop stop-color="#576265"/>
<stop offset="0.172016" stop-color="#9EA1A1"/>
<stop offset="0.45741" stop-color="#848B8A"/>
<stop offset="0.553567" stop-color="#576265"/>
<stop offset="0.823421" stop-color="#576265"/>
<stop offset="0.925155" stop-color="#757A7B"/>
<stop offset="1" stop-color="#576265"/>
</linearGradient>
<linearGradient id="paint9_linear_73_152" x1="30" y1="36.0484" x2="-1.23157" y2="48.0158" gradientUnits="userSpaceOnUse">
<stop stop-color="white" stop-opacity="0"/>
<stop offset="1" stop-color="white"/>
</linearGradient>
</defs>
</svg>
