<svg width="20" height="19" viewBox="0 0 20 19" fill="none" xmlns="http://www.w3.org/2000/svg">
<path d="M18.565 0H1.185C0.870718 0 0.569309 0.118526 0.347079 0.329505C0.124848 0.540483 0 0.826631 0 1.125V17.625C0 17.9234 0.124848 18.2095 0.347079 18.4205C0.569309 18.6315 0.870718 18.75 1.185 18.75H18.565C18.8793 18.75 19.1807 18.6315 19.4029 18.4205C19.6252 18.2095 19.75 17.9234 19.75 17.625V1.125C19.75 0.826631 19.6252 0.540483 19.4029 0.329505C19.1807 0.118526 18.8793 0 18.565 0ZM18.96 17.625C18.96 17.7245 18.9184 17.8198 18.8443 17.8902C18.7702 17.9605 18.6698 18 18.565 18H1.185C1.08024 18 0.97977 17.9605 0.905693 17.8902C0.831616 17.8198 0.79 17.7245 0.79 17.625V1.125C0.79 1.02554 0.831616 0.930161 0.905693 0.859835C0.97977 0.789509 1.08024 0.75 1.185 0.75H18.565C18.6698 0.75 18.7702 0.789509 18.8443 0.859835C18.9184 0.930161 18.96 1.02554 18.96 1.125V17.625ZM6.32 7.875V13.875C6.32 13.9745 6.27838 14.0698 6.20431 14.1402C6.13023 14.2105 6.02976 14.25 5.925 14.25C5.82024 14.25 5.71977 14.2105 5.64569 14.1402C5.57162 14.0698 5.53 13.9745 5.53 13.875V7.875C5.53 7.77554 5.57162 7.68016 5.64569 7.60983C5.71977 7.53951 5.82024 7.5 5.925 7.5C6.02976 7.5 6.13023 7.53951 6.20431 7.60983C6.27838 7.68016 6.32 7.77554 6.32 7.875ZM15.01 10.5V13.875C15.01 13.9745 14.9684 14.0698 14.8943 14.1402C14.8202 14.2105 14.7198 14.25 14.615 14.25C14.5102 14.25 14.4098 14.2105 14.3357 14.1402C14.2616 14.0698 14.22 13.9745 14.22 13.875V10.5C14.22 9.90326 13.9703 9.33097 13.5258 8.90901C13.0814 8.48705 12.4786 8.25 11.85 8.25C11.2214 8.25 10.6186 8.48705 10.1742 8.90901C9.7297 9.33097 9.48 9.90326 9.48 10.5V13.875C9.48 13.9745 9.43838 14.0698 9.36431 14.1402C9.29023 14.2105 9.18976 14.25 9.085 14.25C8.98024 14.25 8.87977 14.2105 8.80569 14.1402C8.73162 14.0698 8.69 13.9745 8.69 13.875V7.875C8.69 7.77554 8.73162 7.68016 8.80569 7.60983C8.87977 7.53951 8.98024 7.5 9.085 7.5C9.18976 7.5 9.29023 7.53951 9.36431 7.60983C9.43838 7.68016 9.48 7.77554 9.48 7.875V7.875C9.48 8.10491 9.7764 8.22873 9.96422 8.09613C10.2982 7.86035 10.6797 7.68826 11.0877 7.59197C11.7103 7.44504 12.3653 7.48151 12.9656 7.69653C13.5658 7.91155 14.0829 8.29494 14.4481 8.79571C14.8133 9.29648 15.0093 9.89092 15.01 10.5ZM6.715 5.25C6.715 5.39834 6.66867 5.54334 6.58186 5.66668C6.49505 5.79001 6.37167 5.88614 6.22732 5.94291C6.08297 5.99968 5.92412 6.01453 5.77088 5.98559C5.61763 5.95665 5.47687 5.88522 5.36639 5.78033C5.2559 5.67544 5.18066 5.5418 5.15018 5.39632C5.1197 5.25083 5.13534 5.10003 5.19514 4.96299C5.25493 4.82594 5.35618 4.70881 5.4861 4.6264C5.61601 4.54399 5.76875 4.5 5.925 4.5C6.13452 4.5 6.33546 4.57902 6.48361 4.71967C6.63177 4.86032 6.715 5.05109 6.715 5.25Z" fill="url(#paint0_linear_68_132)"/>
<path d="M18.565 0H1.185C0.870718 0 0.569309 0.118526 0.347079 0.329505C0.124848 0.540483 0 0.826631 0 1.125V17.625C0 17.9234 0.124848 18.2095 0.347079 18.4205C0.569309 18.6315 0.870718 18.75 1.185 18.75H18.565C18.8793 18.75 19.1807 18.6315 19.4029 18.4205C19.6252 18.2095 19.75 17.9234 19.75 17.625V1.125C19.75 0.826631 19.6252 0.540483 19.4029 0.329505C19.1807 0.118526 18.8793 0 18.565 0ZM18.96 17.625C18.96 17.7245 18.9184 17.8198 18.8443 17.8902C18.7702 17.9605 18.6698 18 18.565 18H1.185C1.08024 18 0.97977 17.9605 0.905693 17.8902C0.831616 17.8198 0.79 17.7245 0.79 17.625V1.125C0.79 1.02554 0.831616 0.930161 0.905693 0.859835C0.97977 0.789509 1.08024 0.75 1.185 0.75H18.565C18.6698 0.75 18.7702 0.789509 18.8443 0.859835C18.9184 0.930161 18.96 1.02554 18.96 1.125V17.625ZM6.32 7.875V13.875C6.32 13.9745 6.27838 14.0698 6.20431 14.1402C6.13023 14.2105 6.02976 14.25 5.925 14.25C5.82024 14.25 5.71977 14.2105 5.64569 14.1402C5.57162 14.0698 5.53 13.9745 5.53 13.875V7.875C5.53 7.77554 5.57162 7.68016 5.64569 7.60983C5.71977 7.53951 5.82024 7.5 5.925 7.5C6.02976 7.5 6.13023 7.53951 6.20431 7.60983C6.27838 7.68016 6.32 7.77554 6.32 7.875ZM15.01 10.5V13.875C15.01 13.9745 14.9684 14.0698 14.8943 14.1402C14.8202 14.2105 14.7198 14.25 14.615 14.25C14.5102 14.25 14.4098 14.2105 14.3357 14.1402C14.2616 14.0698 14.22 13.9745 14.22 13.875V10.5C14.22 9.90326 13.9703 9.33097 13.5258 8.90901C13.0814 8.48705 12.4786 8.25 11.85 8.25C11.2214 8.25 10.6186 8.48705 10.1742 8.90901C9.7297 9.33097 9.48 9.90326 9.48 10.5V13.875C9.48 13.9745 9.43838 14.0698 9.36431 14.1402C9.29023 14.2105 9.18976 14.25 9.085 14.25C8.98024 14.25 8.87977 14.2105 8.80569 14.1402C8.73162 14.0698 8.69 13.9745 8.69 13.875V7.875C8.69 7.77554 8.73162 7.68016 8.80569 7.60983C8.87977 7.53951 8.98024 7.5 9.085 7.5C9.18976 7.5 9.29023 7.53951 9.36431 7.60983C9.43838 7.68016 9.48 7.77554 9.48 7.875V7.875C9.48 8.10491 9.7764 8.22873 9.96422 8.09613C10.2982 7.86035 10.6797 7.68826 11.0877 7.59197C11.7103 7.44504 12.3653 7.48151 12.9656 7.69653C13.5658 7.91155 14.0829 8.29494 14.4481 8.79571C14.8133 9.29648 15.0093 9.89092 15.01 10.5ZM6.715 5.25C6.715 5.39834 6.66867 5.54334 6.58186 5.66668C6.49505 5.79001 6.37167 5.88614 6.22732 5.94291C6.08297 5.99968 5.92412 6.01453 5.77088 5.98559C5.61763 5.95665 5.47687 5.88522 5.36639 5.78033C5.2559 5.67544 5.18066 5.5418 5.15018 5.39632C5.1197 5.25083 5.13534 5.10003 5.19514 4.96299C5.25493 4.82594 5.35618 4.70881 5.4861 4.6264C5.61601 4.54399 5.76875 4.5 5.925 4.5C6.13452 4.5 6.33546 4.57902 6.48361 4.71967C6.63177 4.86032 6.715 5.05109 6.715 5.25Z" fill="url(#paint1_linear_68_132)" style="mix-blend-mode:overlay"/>
<path d="M18.565 0H1.185C0.870718 0 0.569309 0.118526 0.347079 0.329505C0.124848 0.540483 0 0.826631 0 1.125V17.625C0 17.9234 0.124848 18.2095 0.347079 18.4205C0.569309 18.6315 0.870718 18.75 1.185 18.75H18.565C18.8793 18.75 19.1807 18.6315 19.4029 18.4205C19.6252 18.2095 19.75 17.9234 19.75 17.625V1.125C19.75 0.826631 19.6252 0.540483 19.4029 0.329505C19.1807 0.118526 18.8793 0 18.565 0ZM18.96 17.625C18.96 17.7245 18.9184 17.8198 18.8443 17.8902C18.7702 17.9605 18.6698 18 18.565 18H1.185C1.08024 18 0.97977 17.9605 0.905693 17.8902C0.831616 17.8198 0.79 17.7245 0.79 17.625V1.125C0.79 1.02554 0.831616 0.930161 0.905693 0.859835C0.97977 0.789509 1.08024 0.75 1.185 0.75H18.565C18.6698 0.75 18.7702 0.789509 18.8443 0.859835C18.9184 0.930161 18.96 1.02554 18.96 1.125V17.625ZM6.32 7.875V13.875C6.32 13.9745 6.27838 14.0698 6.20431 14.1402C6.13023 14.2105 6.02976 14.25 5.925 14.25C5.82024 14.25 5.71977 14.2105 5.64569 14.1402C5.57162 14.0698 5.53 13.9745 5.53 13.875V7.875C5.53 7.77554 5.57162 7.68016 5.64569 7.60983C5.71977 7.53951 5.82024 7.5 5.925 7.5C6.02976 7.5 6.13023 7.53951 6.20431 7.60983C6.27838 7.68016 6.32 7.77554 6.32 7.875ZM15.01 10.5V13.875C15.01 13.9745 14.9684 14.0698 14.8943 14.1402C14.8202 14.2105 14.7198 14.25 14.615 14.25C14.5102 14.25 14.4098 14.2105 14.3357 14.1402C14.2616 14.0698 14.22 13.9745 14.22 13.875V10.5C14.22 9.90326 13.9703 9.33097 13.5258 8.90901C13.0814 8.48705 12.4786 8.25 11.85 8.25C11.2214 8.25 10.6186 8.48705 10.1742 8.90901C9.7297 9.33097 9.48 9.90326 9.48 10.5V13.875C9.48 13.9745 9.43838 14.0698 9.36431 14.1402C9.29023 14.2105 9.18976 14.25 9.085 14.25C8.98024 14.25 8.87977 14.2105 8.80569 14.1402C8.73162 14.0698 8.69 13.9745 8.69 13.875V7.875C8.69 7.77554 8.73162 7.68016 8.80569 7.60983C8.87977 7.53951 8.98024 7.5 9.085 7.5C9.18976 7.5 9.29023 7.53951 9.36431 7.60983C9.43838 7.68016 9.48 7.77554 9.48 7.875V7.875C9.48 8.10491 9.7764 8.22873 9.96422 8.09613C10.2982 7.86035 10.6797 7.68826 11.0877 7.59197C11.7103 7.44504 12.3653 7.48151 12.9656 7.69653C13.5658 7.91155 14.0829 8.29494 14.4481 8.79571C14.8133 9.29648 15.0093 9.89092 15.01 10.5ZM6.715 5.25C6.715 5.39834 6.66867 5.54334 6.58186 5.66668C6.49505 5.79001 6.37167 5.88614 6.22732 5.94291C6.08297 5.99968 5.92412 6.01453 5.77088 5.98559C5.61763 5.95665 5.47687 5.88522 5.36639 5.78033C5.2559 5.67544 5.18066 5.5418 5.15018 5.39632C5.1197 5.25083 5.13534 5.10003 5.19514 4.96299C5.25493 4.82594 5.35618 4.70881 5.4861 4.6264C5.61601 4.54399 5.76875 4.5 5.925 4.5C6.13452 4.5 6.33546 4.57902 6.48361 4.71967C6.63177 4.86032 6.715 5.05109 6.715 5.25Z" fill="#C1A875" style="mix-blend-mode:color"/>
<defs>
<linearGradient id="paint0_linear_68_132" x1="1.09501" y1="11.727" x2="19.41" y2="7.20778" gradientUnits="userSpaceOnUse">
<stop stop-color="#576265"/>
<stop offset="0.172016" stop-color="#9EA1A1"/>
<stop offset="0.45741" stop-color="#848B8A"/>
<stop offset="0.553567" stop-color="#576265"/>
<stop offset="0.823421" stop-color="#576265"/>
<stop offset="0.925155" stop-color="#757A7B"/>
<stop offset="1" stop-color="#576265"/>
</linearGradient>
<linearGradient id="paint1_linear_68_132" x1="7.88407" y1="9.375" x2="4.28818" y2="-0.509779" gradientUnits="userSpaceOnUse">
<stop stop-color="white" stop-opacity="0"/>
<stop offset="1" stop-color="white"/>
</linearGradient>
</defs>
</svg>
