<svg width="1470" height="89" viewBox="0 0 1470 89" fill="none" xmlns="http://www.w3.org/2000/svg">
<line x1="724.72" y1="46.9261" x2="1409.03" y2="46.9261" stroke="url(#paint0_linear_73_152)"/>
<line x1="724.72" y1="46.9261" x2="1409.03" y2="46.9261" stroke="url(#paint1_linear_73_152)" style="mix-blend-mode:overlay"/>
<line x1="724.72" y1="46.9261" x2="1409.03" y2="46.9261" stroke="#C1A875" style="mix-blend-mode:color"/>
<path d="M1382.44 42.8541C1381.77 44.3999 1381.77 45.3458 1382.44 46.8916C1384.74 52.2077 1404.3 49.7046 1416.41 47.5988C1405.01 52.1929 1387.07 60.3839 1387.92 66.113C1388.16 67.7789 1388.66 68.5826 1390.05 69.5435C1394.4 72.5704 1407.61 62.3838 1416.85 54.3698C1409.22 63.9266 1399.57 77.5354 1402.77 81.7658C1403.79 83.1088 1404.61 83.5746 1406.29 83.754C1411.71 84.3346 1418.63 68.2025 1422.87 56.6542C1420.87 68.7921 1418.95 86.2408 1423.95 88.4037C1425.49 89.0721 1426.44 89.0721 1427.99 88.4037C1432.99 86.2408 1431.07 68.7921 1429.07 56.6542C1433.31 68.2026 1440.23 84.3346 1445.65 83.754C1447.32 83.5746 1448.14 83.1088 1449.16 81.7658C1452.36 77.5354 1442.72 63.9268 1435.09 54.37C1444.33 62.384 1457.53 72.5704 1461.89 69.5435C1463.27 68.5826 1463.77 67.7789 1464.02 66.113C1464.87 60.3839 1446.92 52.1928 1435.53 47.5987C1447.63 49.7046 1467.2 52.2077 1469.5 46.8916C1470.17 45.3458 1470.17 44.3999 1469.5 42.8541C1467.2 37.5378 1447.63 40.0413 1435.53 42.1472C1446.92 37.5532 1464.87 29.3617 1464.02 23.6324C1463.77 21.9665 1463.27 21.1628 1461.89 20.2019C1457.53 17.175 1444.33 27.3614 1435.09 35.3754C1442.72 25.8186 1452.36 12.21 1449.16 7.97959C1448.14 6.63661 1447.32 6.1708 1445.65 5.99137C1440.23 5.41078 1433.31 21.5428 1429.07 33.0911C1431.07 20.9532 1432.99 3.50469 1427.99 1.34184C1426.44 0.673401 1425.49 0.673401 1423.95 1.34184C1418.95 3.50468 1420.87 20.9532 1422.87 33.0911C1418.63 21.5427 1411.71 5.4108 1406.29 5.99138C1404.61 6.17082 1403.79 6.63661 1402.77 7.9796C1399.57 12.21 1409.22 25.8188 1416.85 35.3756C1407.61 27.3616 1394.4 17.175 1390.05 20.2019C1388.66 21.1628 1388.16 21.9665 1387.92 23.6324C1387.07 29.3617 1405.01 37.5531 1416.41 42.1471C1404.3 40.0412 1384.74 37.5378 1382.44 42.8541Z" fill="url(#paint2_linear_73_152)"/>
<path d="M1382.44 42.8541C1381.77 44.3999 1381.77 45.3458 1382.44 46.8916C1384.74 52.2077 1404.3 49.7046 1416.41 47.5988C1405.01 52.1929 1387.07 60.3839 1387.92 66.113C1388.16 67.7789 1388.66 68.5826 1390.05 69.5435C1394.4 72.5704 1407.61 62.3838 1416.85 54.3698C1409.22 63.9266 1399.57 77.5354 1402.77 81.7658C1403.79 83.1088 1404.61 83.5746 1406.29 83.754C1411.71 84.3346 1418.63 68.2025 1422.87 56.6542C1420.87 68.7921 1418.95 86.2408 1423.95 88.4037C1425.49 89.0721 1426.44 89.0721 1427.99 88.4037C1432.99 86.2408 1431.07 68.7921 1429.07 56.6542C1433.31 68.2026 1440.23 84.3346 1445.65 83.754C1447.32 83.5746 1448.14 83.1088 1449.16 81.7658C1452.36 77.5354 1442.72 63.9268 1435.09 54.37C1444.33 62.384 1457.53 72.5704 1461.89 69.5435C1463.27 68.5826 1463.77 67.7789 1464.02 66.113C1464.87 60.3839 1446.92 52.1928 1435.53 47.5987C1447.63 49.7046 1467.2 52.2077 1469.5 46.8916C1470.17 45.3458 1470.17 44.3999 1469.5 42.8541C1467.2 37.5378 1447.63 40.0413 1435.53 42.1472C1446.92 37.5532 1464.87 29.3617 1464.02 23.6324C1463.77 21.9665 1463.27 21.1628 1461.89 20.2019C1457.53 17.175 1444.33 27.3614 1435.09 35.3754C1442.72 25.8186 1452.36 12.21 1449.16 7.97959C1448.14 6.63661 1447.32 6.1708 1445.65 5.99137C1440.23 5.41078 1433.31 21.5428 1429.07 33.0911C1431.07 20.9532 1432.99 3.50469 1427.99 1.34184C1426.44 0.673401 1425.49 0.673401 1423.95 1.34184C1418.95 3.50468 1420.87 20.9532 1422.87 33.0911C1418.63 21.5427 1411.71 5.4108 1406.29 5.99138C1404.61 6.17082 1403.79 6.63661 1402.77 7.9796C1399.57 12.21 1409.22 25.8188 1416.85 35.3756C1407.61 27.3616 1394.4 17.175 1390.05 20.2019C1388.66 21.1628 1388.16 21.9665 1387.92 23.6324C1387.07 29.3617 1405.01 37.5531 1416.41 42.1471C1404.3 40.0412 1384.74 37.5378 1382.44 42.8541Z" fill="url(#paint3_linear_73_152)" style="mix-blend-mode:overlay"/>
<path d="M1382.44 42.8541C1381.77 44.3999 1381.77 45.3458 1382.44 46.8916C1384.74 52.2077 1404.3 49.7046 1416.41 47.5988C1405.01 52.1929 1387.07 60.3839 1387.92 66.113C1388.16 67.7789 1388.66 68.5826 1390.05 69.5435C1394.4 72.5704 1407.61 62.3838 1416.85 54.3698C1409.22 63.9266 1399.57 77.5354 1402.77 81.7658C1403.79 83.1088 1404.61 83.5746 1406.29 83.754C1411.71 84.3346 1418.63 68.2025 1422.87 56.6542C1420.87 68.7921 1418.95 86.2408 1423.95 88.4037C1425.49 89.0721 1426.44 89.0721 1427.99 88.4037C1432.99 86.2408 1431.07 68.7921 1429.07 56.6542C1433.31 68.2026 1440.23 84.3346 1445.65 83.754C1447.32 83.5746 1448.14 83.1088 1449.16 81.7658C1452.36 77.5354 1442.72 63.9268 1435.09 54.37C1444.33 62.384 1457.53 72.5704 1461.89 69.5435C1463.27 68.5826 1463.77 67.7789 1464.02 66.113C1464.87 60.3839 1446.92 52.1928 1435.53 47.5987C1447.63 49.7046 1467.2 52.2077 1469.5 46.8916C1470.17 45.3458 1470.17 44.3999 1469.5 42.8541C1467.2 37.5378 1447.63 40.0413 1435.53 42.1472C1446.92 37.5532 1464.87 29.3617 1464.02 23.6324C1463.77 21.9665 1463.27 21.1628 1461.89 20.2019C1457.53 17.175 1444.33 27.3614 1435.09 35.3754C1442.72 25.8186 1452.36 12.21 1449.16 7.97959C1448.14 6.63661 1447.32 6.1708 1445.65 5.99137C1440.23 5.41078 1433.31 21.5428 1429.07 33.0911C1431.07 20.9532 1432.99 3.50469 1427.99 1.34184C1426.44 0.673401 1425.49 0.673401 1423.95 1.34184C1418.95 3.50468 1420.87 20.9532 1422.87 33.0911C1418.63 21.5427 1411.71 5.4108 1406.29 5.99138C1404.61 6.17082 1403.79 6.63661 1402.77 7.9796C1399.57 12.21 1409.22 25.8188 1416.85 35.3756C1407.61 27.3616 1394.4 17.175 1390.05 20.2019C1388.66 21.1628 1388.16 21.9665 1387.92 23.6324C1387.07 29.3617 1405.01 37.5531 1416.41 42.1471C1404.3 40.0412 1384.74 37.5378 1382.44 42.8541Z" fill="#C1A875" style="mix-blend-mode:color"/>
<line x1="13.4293" y1="46.0929" x2="697.741" y2="46.0929" stroke="url(#paint4_linear_73_152)"/>
<line x1="13.4293" y1="46.0929" x2="697.741" y2="46.0929" stroke="url(#paint5_linear_73_152)" style="mix-blend-mode:overlay"/>
<line x1="13.4293" y1="46.0929" x2="697.741" y2="46.0929" stroke="#C1A875" style="mix-blend-mode:color"/>
<path d="M671.147 42.0206C670.478 43.5664 670.478 44.5123 671.147 46.0581C673.445 51.3742 693.011 48.8711 705.116 46.7653C693.72 51.3594 675.776 59.5504 676.627 65.2795C676.874 66.9454 677.373 67.7491 678.756 68.71C683.113 71.7369 696.319 61.5503 705.558 53.5363C697.926 63.0931 688.283 76.7019 691.484 80.9323C692.501 82.2753 693.324 82.7411 694.998 82.9205C700.417 83.5011 707.338 67.369 711.576 55.8207C709.577 67.9586 707.657 85.4073 712.659 87.5702C714.205 88.2386 715.15 88.2386 716.696 87.5702C721.698 85.4073 719.778 67.9586 717.779 55.8207C722.017 67.3691 728.938 83.5011 734.356 82.9205C736.031 82.7411 736.854 82.2753 737.871 80.9323C741.072 76.7019 731.429 63.0933 723.797 53.5365C733.036 61.5505 746.242 71.7369 750.599 68.7101C751.982 67.7491 752.481 66.9454 752.728 65.2795C753.579 59.5505 735.634 51.3593 724.239 46.7652C736.344 48.8711 755.91 51.3742 758.208 46.0581C758.877 44.5123 758.877 43.5664 758.208 42.0206C755.91 36.7043 736.342 39.2078 724.238 41.3137C735.633 36.7197 753.579 28.5282 752.728 22.7989C752.481 21.133 751.982 20.3293 750.599 19.3684C746.242 16.3415 733.036 26.5279 723.797 34.5419C731.429 24.9851 741.072 11.3765 737.871 7.1461C736.854 5.80311 736.031 5.33731 734.356 5.15787C728.938 4.57729 722.017 20.7093 717.779 32.2576C719.778 20.1197 721.698 2.67119 716.696 0.508344C715.15 -0.160095 714.205 -0.160095 712.659 0.508344C707.657 2.67118 709.577 20.1197 711.576 32.2576C707.338 20.7092 700.417 4.5773 694.998 5.15788C693.324 5.33732 692.501 5.80312 691.484 7.14611C688.283 11.3765 697.926 24.9853 705.558 34.5421C696.319 26.5281 683.113 16.3415 678.756 19.3684C677.373 20.3293 676.874 21.133 676.627 22.7989C675.776 28.5282 693.722 36.7196 705.117 41.3136C693.012 39.2077 673.445 36.7043 671.147 42.0206Z" fill="url(#paint6_linear_73_152)"/>
<path d="M671.147 42.0206C670.478 43.5664 670.478 44.5123 671.147 46.0581C673.445 51.3742 693.011 48.8711 705.116 46.7653C693.72 51.3594 675.776 59.5504 676.627 65.2795C676.874 66.9454 677.373 67.7491 678.756 68.71C683.113 71.7369 696.319 61.5503 705.558 53.5363C697.926 63.0931 688.283 76.7019 691.484 80.9323C692.501 82.2753 693.324 82.7411 694.998 82.9205C700.417 83.5011 707.338 67.369 711.576 55.8207C709.577 67.9586 707.657 85.4073 712.659 87.5702C714.205 88.2386 715.15 88.2386 716.696 87.5702C721.698 85.4073 719.778 67.9586 717.779 55.8207C722.017 67.3691 728.938 83.5011 734.356 82.9205C736.031 82.7411 736.854 82.2753 737.871 80.9323C741.072 76.7019 731.429 63.0933 723.797 53.5365C733.036 61.5505 746.242 71.7369 750.599 68.7101C751.982 67.7491 752.481 66.9454 752.728 65.2795C753.579 59.5505 735.634 51.3593 724.239 46.7652C736.344 48.8711 755.91 51.3742 758.208 46.0581C758.877 44.5123 758.877 43.5664 758.208 42.0206C755.91 36.7043 736.342 39.2078 724.238 41.3137C735.633 36.7197 753.579 28.5282 752.728 22.7989C752.481 21.133 751.982 20.3293 750.599 19.3684C746.242 16.3415 733.036 26.5279 723.797 34.5419C731.429 24.9851 741.072 11.3765 737.871 7.1461C736.854 5.80311 736.031 5.33731 734.356 5.15787C728.938 4.57729 722.017 20.7093 717.779 32.2576C719.778 20.1197 721.698 2.67119 716.696 0.508344C715.15 -0.160095 714.205 -0.160095 712.659 0.508344C707.657 2.67118 709.577 20.1197 711.576 32.2576C707.338 20.7092 700.417 4.5773 694.998 5.15788C693.324 5.33732 692.501 5.80312 691.484 7.14611C688.283 11.3765 697.926 24.9853 705.558 34.5421C696.319 26.5281 683.113 16.3415 678.756 19.3684C677.373 20.3293 676.874 21.133 676.627 22.7989C675.776 28.5282 693.722 36.7196 705.117 41.3136C693.012 39.2077 673.445 36.7043 671.147 42.0206Z" fill="url(#paint7_linear_73_152)" style="mix-blend-mode:overlay"/>
<path d="M671.147 42.0206C670.478 43.5664 670.478 44.5123 671.147 46.0581C673.445 51.3742 693.011 48.8711 705.116 46.7653C693.72 51.3594 675.776 59.5504 676.627 65.2795C676.874 66.9454 677.373 67.7491 678.756 68.71C683.113 71.7369 696.319 61.5503 705.558 53.5363C697.926 63.0931 688.283 76.7019 691.484 80.9323C692.501 82.2753 693.324 82.7411 694.998 82.9205C700.417 83.5011 707.338 67.369 711.576 55.8207C709.577 67.9586 707.657 85.4073 712.659 87.5702C714.205 88.2386 715.15 88.2386 716.696 87.5702C721.698 85.4073 719.778 67.9586 717.779 55.8207C722.017 67.3691 728.938 83.5011 734.356 82.9205C736.031 82.7411 736.854 82.2753 737.871 80.9323C741.072 76.7019 731.429 63.0933 723.797 53.5365C733.036 61.5505 746.242 71.7369 750.599 68.7101C751.982 67.7491 752.481 66.9454 752.728 65.2795C753.579 59.5505 735.634 51.3593 724.239 46.7652C736.344 48.8711 755.91 51.3742 758.208 46.0581C758.877 44.5123 758.877 43.5664 758.208 42.0206C755.91 36.7043 736.342 39.2078 724.238 41.3137C735.633 36.7197 753.579 28.5282 752.728 22.7989C752.481 21.133 751.982 20.3293 750.599 19.3684C746.242 16.3415 733.036 26.5279 723.797 34.5419C731.429 24.9851 741.072 11.3765 737.871 7.1461C736.854 5.80311 736.031 5.33731 734.356 5.15787C728.938 4.57729 722.017 20.7093 717.779 32.2576C719.778 20.1197 721.698 2.67119 716.696 0.508344C715.15 -0.160095 714.205 -0.160095 712.659 0.508344C707.657 2.67118 709.577 20.1197 711.576 32.2576C707.338 20.7092 700.417 4.5773 694.998 5.15788C693.324 5.33732 692.501 5.80312 691.484 7.14611C688.283 11.3765 697.926 24.9853 705.558 34.5421C696.319 26.5281 683.113 16.3415 678.756 19.3684C677.373 20.3293 676.874 21.133 676.627 22.7989C675.776 28.5282 693.722 36.7196 705.117 41.3136C693.012 39.2077 673.445 36.7043 671.147 42.0206Z" fill="#C1A875" style="mix-blend-mode:color"/>
<path d="M0.501331 42.0206C-0.16711 43.5664 -0.16711 44.5123 0.501331 46.0581C2.80008 51.3742 22.3659 48.8711 34.4707 46.7653C23.0753 51.3594 5.13117 59.5504 5.98138 65.2795C6.22861 66.9454 6.72743 67.7491 8.11054 68.71C12.4674 71.7369 25.6737 61.5503 34.9129 53.5363C27.2804 63.0931 17.638 76.7019 20.8392 80.9323C21.8554 82.2753 22.6787 82.7411 24.3533 82.9205C29.7716 83.5011 36.6927 67.369 40.9304 55.8207C38.9319 67.9586 37.0117 85.4073 42.0135 87.5702C43.5593 88.2386 44.5052 88.2386 46.051 87.5702C51.0528 85.4073 49.1327 67.9586 47.1341 55.8207C51.3718 67.3691 58.2929 83.5011 63.7112 82.9205C65.3858 82.7411 66.2091 82.2753 67.2253 80.9323C70.4265 76.7019 60.7842 63.0933 53.1517 53.5365C62.391 61.5505 75.5972 71.7369 79.954 68.7101C81.3371 67.7491 81.8359 66.9454 82.0831 65.2795C82.9334 59.5505 64.989 51.3593 53.5936 46.7652C65.6984 48.8711 85.2644 51.3742 87.5632 46.0581C88.2316 44.5123 88.2316 43.5664 87.5632 42.0206C85.2643 36.7043 65.697 39.2078 53.5923 41.3137C64.9877 36.7197 82.9334 28.5282 82.0831 22.7989C81.8359 21.133 81.3371 20.3293 79.954 19.3684C75.5972 16.3415 62.391 26.5279 53.1517 34.5419C60.7842 24.9851 70.4265 11.3765 67.2253 7.1461C66.2091 5.80311 65.3858 5.33731 63.7112 5.15787C58.2929 4.57729 51.3718 20.7093 47.1342 32.2576C49.1327 20.1197 51.0528 2.67119 46.051 0.508344C44.5052 -0.160095 43.5593 -0.160095 42.0135 0.508344C37.0117 2.67118 38.9318 20.1197 40.9304 32.2576C36.6927 20.7092 29.7716 4.5773 24.3533 5.15788C22.6787 5.33732 21.8554 5.80312 20.8392 7.14611C17.638 11.3765 27.2804 24.9853 34.9129 34.5421C25.6737 26.5281 12.4674 16.3415 8.11054 19.3684C6.72743 20.3293 6.22861 21.133 5.98138 22.7989C5.13114 28.5282 23.0766 36.7196 34.4719 41.3136C22.3672 39.2077 2.80016 36.7043 0.501331 42.0206Z" fill="url(#paint8_linear_73_152)"/>
<path d="M0.501331 42.0206C-0.16711 43.5664 -0.16711 44.5123 0.501331 46.0581C2.80008 51.3742 22.3659 48.8711 34.4707 46.7653C23.0753 51.3594 5.13117 59.5504 5.98138 65.2795C6.22861 66.9454 6.72743 67.7491 8.11054 68.71C12.4674 71.7369 25.6737 61.5503 34.9129 53.5363C27.2804 63.0931 17.638 76.7019 20.8392 80.9323C21.8554 82.2753 22.6787 82.7411 24.3533 82.9205C29.7716 83.5011 36.6927 67.369 40.9304 55.8207C38.9319 67.9586 37.0117 85.4073 42.0135 87.5702C43.5593 88.2386 44.5052 88.2386 46.051 87.5702C51.0528 85.4073 49.1327 67.9586 47.1341 55.8207C51.3718 67.3691 58.2929 83.5011 63.7112 82.9205C65.3858 82.7411 66.2091 82.2753 67.2253 80.9323C70.4265 76.7019 60.7842 63.0933 53.1517 53.5365C62.391 61.5505 75.5972 71.7369 79.954 68.7101C81.3371 67.7491 81.8359 66.9454 82.0831 65.2795C82.9334 59.5505 64.989 51.3593 53.5936 46.7652C65.6984 48.8711 85.2644 51.3742 87.5632 46.0581C88.2316 44.5123 88.2316 43.5664 87.5632 42.0206C85.2643 36.7043 65.697 39.2078 53.5923 41.3137C64.9877 36.7197 82.9334 28.5282 82.0831 22.7989C81.8359 21.133 81.3371 20.3293 79.954 19.3684C75.5972 16.3415 62.391 26.5279 53.1517 34.5419C60.7842 24.9851 70.4265 11.3765 67.2253 7.1461C66.2091 5.80311 65.3858 5.33731 63.7112 5.15787C58.2929 4.57729 51.3718 20.7093 47.1342 32.2576C49.1327 20.1197 51.0528 2.67119 46.051 0.508344C44.5052 -0.160095 43.5593 -0.160095 42.0135 0.508344C37.0117 2.67118 38.9318 20.1197 40.9304 32.2576C36.6927 20.7092 29.7716 4.5773 24.3533 5.15788C22.6787 5.33732 21.8554 5.80312 20.8392 7.14611C17.638 11.3765 27.2804 24.9853 34.9129 34.5421C25.6737 26.5281 12.4674 16.3415 8.11054 19.3684C6.72743 20.3293 6.22861 21.133 5.98138 22.7989C5.13114 28.5282 23.0766 36.7196 34.4719 41.3136C22.3672 39.2077 2.80016 36.7043 0.501331 42.0206Z" fill="url(#paint9_linear_73_152)" style="mix-blend-mode:overlay"/>
<path d="M0.501331 42.0206C-0.16711 43.5664 -0.16711 44.5123 0.501331 46.0581C2.80008 51.3742 22.3659 48.8711 34.4707 46.7653C23.0753 51.3594 5.13117 59.5504 5.98138 65.2795C6.22861 66.9454 6.72743 67.7491 8.11054 68.71C12.4674 71.7369 25.6737 61.5503 34.9129 53.5363C27.2804 63.0931 17.638 76.7019 20.8392 80.9323C21.8554 82.2753 22.6787 82.7411 24.3533 82.9205C29.7716 83.5011 36.6927 67.369 40.9304 55.8207C38.9319 67.9586 37.0117 85.4073 42.0135 87.5702C43.5593 88.2386 44.5052 88.2386 46.051 87.5702C51.0528 85.4073 49.1327 67.9586 47.1341 55.8207C51.3718 67.3691 58.2929 83.5011 63.7112 82.9205C65.3858 82.7411 66.2091 82.2753 67.2253 80.9323C70.4265 76.7019 60.7842 63.0933 53.1517 53.5365C62.391 61.5505 75.5972 71.7369 79.954 68.7101C81.3371 67.7491 81.8359 66.9454 82.0831 65.2795C82.9334 59.5505 64.989 51.3593 53.5936 46.7652C65.6984 48.8711 85.2644 51.3742 87.5632 46.0581C88.2316 44.5123 88.2316 43.5664 87.5632 42.0206C85.2643 36.7043 65.697 39.2078 53.5923 41.3137C64.9877 36.7197 82.9334 28.5282 82.0831 22.7989C81.8359 21.133 81.3371 20.3293 79.954 19.3684C75.5972 16.3415 62.391 26.5279 53.1517 34.5419C60.7842 24.9851 70.4265 11.3765 67.2253 7.1461C66.2091 5.80311 65.3858 5.33731 63.7112 5.15787C58.2929 4.57729 51.3718 20.7093 47.1342 32.2576C49.1327 20.1197 51.0528 2.67119 46.051 0.508344C44.5052 -0.160095 43.5593 -0.160095 42.0135 0.508344C37.0117 2.67118 38.9318 20.1197 40.9304 32.2576C36.6927 20.7092 29.7716 4.5773 24.3533 5.15788C22.6787 5.33732 21.8554 5.80312 20.8392 7.14611C17.638 11.3765 27.2804 24.9853 34.9129 34.5421C25.6737 26.5281 12.4674 16.3415 8.11054 19.3684C6.72743 20.3293 6.22861 21.133 5.98138 22.7989C5.13114 28.5282 23.0766 36.7196 34.4719 41.3136C22.3672 39.2077 2.80016 36.7043 0.501331 42.0206Z" fill="#C1A875" style="mix-blend-mode:color"/>
<defs>
<linearGradient id="paint0_linear_73_152" x1="762.66" y1="48.0516" x2="762.687" y2="43.852" gradientUnits="userSpaceOnUse">
<stop stop-color="#576265"/>
<stop offset="0.172016" stop-color="#9EA1A1"/>
<stop offset="0.45741" stop-color="#848B8A"/>
<stop offset="0.553567" stop-color="#576265"/>
<stop offset="0.823421" stop-color="#576265"/>
<stop offset="0.925155" stop-color="#757A7B"/>
<stop offset="1" stop-color="#576265"/>
</linearGradient>
<linearGradient id="paint1_linear_73_152" x1="997.893" y1="47.9261" x2="997.892" y2="47.3292" gradientUnits="userSpaceOnUse">
<stop stop-color="white" stop-opacity="0"/>
<stop offset="1" stop-color="white"/>
</linearGradient>
<linearGradient id="paint2_linear_73_152" x1="1437.01" y1="84.0224" x2="1417.77" y2="1.89112" gradientUnits="userSpaceOnUse">
<stop stop-color="#576265"/>
<stop offset="0.172016" stop-color="#9EA1A1"/>
<stop offset="0.45741" stop-color="#848B8A"/>
<stop offset="0.553567" stop-color="#576265"/>
<stop offset="0.823421" stop-color="#576265"/>
<stop offset="0.925155" stop-color="#757A7B"/>
<stop offset="1" stop-color="#576265"/>
</linearGradient>
<linearGradient id="paint3_linear_73_152" x1="1425.97" y1="53.7502" x2="1380.13" y2="71.3153" gradientUnits="userSpaceOnUse">
<stop stop-color="white" stop-opacity="0"/>
<stop offset="1" stop-color="white"/>
</linearGradient>
<linearGradient id="paint4_linear_73_152" x1="51.37" y1="47.2183" x2="51.3962" y2="43.0188" gradientUnits="userSpaceOnUse">
<stop stop-color="#576265"/>
<stop offset="0.172016" stop-color="#9EA1A1"/>
<stop offset="0.45741" stop-color="#848B8A"/>
<stop offset="0.553567" stop-color="#576265"/>
<stop offset="0.823421" stop-color="#576265"/>
<stop offset="0.925155" stop-color="#757A7B"/>
<stop offset="1" stop-color="#576265"/>
</linearGradient>
<linearGradient id="paint5_linear_73_152" x1="286.602" y1="47.0929" x2="286.602" y2="46.4959" gradientUnits="userSpaceOnUse">
<stop stop-color="white" stop-opacity="0"/>
<stop offset="1" stop-color="white"/>
</linearGradient>
<linearGradient id="paint6_linear_73_152" x1="725.724" y1="83.1889" x2="706.485" y2="1.05762" gradientUnits="userSpaceOnUse">
<stop stop-color="#576265"/>
<stop offset="0.172016" stop-color="#9EA1A1"/>
<stop offset="0.45741" stop-color="#848B8A"/>
<stop offset="0.553567" stop-color="#576265"/>
<stop offset="0.823421" stop-color="#576265"/>
<stop offset="0.925155" stop-color="#757A7B"/>
<stop offset="1" stop-color="#576265"/>
</linearGradient>
<linearGradient id="paint7_linear_73_152" x1="714.677" y1="52.9167" x2="668.838" y2="70.4818" gradientUnits="userSpaceOnUse">
<stop stop-color="white" stop-opacity="0"/>
<stop offset="1" stop-color="white"/>
</linearGradient>
<linearGradient id="paint8_linear_73_152" x1="55.0789" y1="83.1889" x2="35.8394" y2="1.05762" gradientUnits="userSpaceOnUse">
<stop stop-color="#576265"/>
<stop offset="0.172016" stop-color="#9EA1A1"/>
<stop offset="0.45741" stop-color="#848B8A"/>
<stop offset="0.553567" stop-color="#576265"/>
<stop offset="0.823421" stop-color="#576265"/>
<stop offset="0.925155" stop-color="#757A7B"/>
<stop offset="1" stop-color="#576265"/>
</linearGradient>
<linearGradient id="paint9_linear_73_152" x1="44.0323" y1="52.9167" x2="-1.80763" y2="70.4818" gradientUnits="userSpaceOnUse">
<stop stop-color="white" stop-opacity="0"/>
<stop offset="1" stop-color="white"/>
</linearGradient>
</defs>
</svg>
